<mxfile host="65bd71144e">
    <diagram id="QI44zQ4zqmmdMSfOPGXQ" name="第 1 页">
        <mxGraphModel dx="2993" dy="1760" grid="1" gridSize="10" guides="1" tooltips="1" connect="1" arrows="1" fold="1" page="1" pageScale="1" pageWidth="827" pageHeight="1169" math="0" shadow="0">
            <root>
                <mxCell id="0"/>
                <mxCell id="1" parent="0"/>
                <mxCell id="11" value="" style="shape=image;verticalLabelPosition=bottom;labelBackgroundColor=default;verticalAlign=top;aspect=fixed;imageAspect=0;image=data:image/png,iVBORw0KGgoAAAANSUhEUgAAATwAAAE7CAYAAABAAD2+AAAgAElEQVR4nO3dfVCU5734/3eO+ZmmCKJSQkyAray2Uckvq+ZYsP2OWSAR5ptMTQ+S4NE/MmLAJLRxHBwKwZFIHRgn7dFUjOv0j3iEKKcxE7+zqMDG+aZCPNFsf6K21SVdILFkS5THY3Vi8/vjvveRXZ5c2KfPa6ZT9364rmuX8OFz3fd9ffa+pKSkbxFCiAjwL4EegBBCTBcJeEKIiCEBTwgRMSTgCSEihgQ8IUTEkIAnhIgYEvCEEBFDAp4QImJIwBNCRIwICng1JB7uJDE/0OMYaebWdnT765kZ6IGEtQLi9neyaGtBoAcSfIpew2R6jaJAj8OPamq7aHl55Pb7p38oHua/ydJ/g2t73+B2oMawqp5FhelEAWDh2oYMhvzY/KyqThYmOV/3NibTXeePlguI218MR1LpPQtKUM8jzr57sJXLW17kjj+6CqgaEg8v56affy4hK2s9H26B/1h7hJbxHl+qY5b9db+ZqvGeO5ai1zAt+xP6gmblpWEPuSn2nYOc272T0iZ/dDR+BTt7yeMhkt8ZsScIAt60KaF7Q4nXPbNy0rnVmMxVvwQh7xxBblU9iwpbmFXn/OW981Yq5nvuQQl2D5p3YX7LcM+thR8DvVsM9AZ6GIHiEuSKDHv4edU5Wsosyr7afehr772LIsMecuPMVOn9FEwnI2OY4h/N5OgzD4zYpf/hmtEC3lM8VLyd78cqr4b+u5pLJz/yvX3+myzVw9/nPqnu6+BK5SsMAFDA9yt+xkO4noNbO7qKkx79eDdzazsa9nL1LQPuGU4NifsTuXUzncQkgAG6DyiZz8yt7SzRxQDesqsCvjNngFudnj25Z0uO8/Jb0C2x0T0nncRosGeEd7a2o5lngyQtUV2t6n5l3wiDNjXrcunDIxubVdXOd762kajTAjBs3qW+Z8+McYBugPzlxA22ctlbsPMx5iHcPxvXMcyq6mTOZftn5ZJhrapnUQ7c8NKWfxUQt79c7UPp56br+8nWuo2Zre0smdeIucz+R81lzC7Hu36O3vpx7nffPt6sPKNqB2Vp6kn2IFP0GqZlNzgXp2PlbIBOGvT7qAWP7MvXdhhqO8BzZbD7eKHaBpSZdJQ59lkArdt+S8M2NvsIZD1feB7v0rf6PvKwkJCmjqHjpCOLG5ExdvwJyESXMsi53d6CXSYHTY/xddtcVqqfjWNsRa9hyk1Wj3OOIaNqBz/niMv7Wg/7d1LalMnB4w/xda+OlSngmUUW/K9b8MkcvKc2o0xpY/59O9+7Ws0nHsHHfbsa/Gwf8dceYMGTfPf/rOGTzyDm30+StOYpLp38iAfWrCHqv0e29dXej/jKn1Pa6HTmWnZhLjMov8g5NfSeLXFkULOqOpnjcrhb4CjsJLHQ/h88xO3Pg8ZkzI5f+HbiOlOVDCFpKRxIxqwGU83WAqxAVBJcO9DK/MJ0HmzcRfePi/nOKvgHEJfdSVw22AOxEtiUrLN7VT2L1o/4CZCovcTlDRncWVXPosIXmIWBO1vbWchRzBtKcAR8YNYSLcOW9xzBamES7kHUy5iv9rzAEu0lLm9Qjpm5tZ0lVTUuQcOHpHQeVD+b8Zyz6W0jzy9w39ZxPIfXRklEZ1WVKz/LtwzYgxegZMg/timfi9uYG+k9vJxZoATf/OXEdV1Q/hjUZTjGqhm1H/ftD/7By8//7CifS9FrlC22eM9wUrSwexv6JvWXuUpLbZmGg6VzadRvUwJN0WuYjq/n6tojtDQd4bmmI+rJyi/87qydlK7d5nNKW2QoZN7pbWq2lslB0w52W3ZSCjBb5wiQdJxUj7Eo7akByZM2bS4N+m3UkslB0yp2ZzUrAadUy+Xd25QgU/QapmVA0WNo+y0ctW/LTcY9GCWzhAPo9RZ1/OvJsMDPc1H7cH//o5qtY8mVA+gLLMo5W9aT0XSEFu6ifwwuvTPD62mLZkf5CngFzFvQQdd/emZaT/Hg3GH+brJv/4i+q6/yvfinoAfo+5Trnyl7bvcOO866beth1v/ezo/itHzyn1M53bJwXf0P906PDeaNfvRQWTLmEdfBAGp4MNrCTcdf9BJuduUxx/6HqKvRceydt1K5CszcWsyw+T2G0MNgK1/VQcyPnX15Tmn/cXbsrKj3D2qwOtvNrcJ4oIAYLXQfGT0gDZUlY/YMor7GrAZJgDvnLjG8PnHsmyfq+/M8x9e1wkOv5nBorDbd1DAnycL1spH/rcxcuZSo6BiWHHZJybtA+Rl1MicfhuqUPwC9l71k1+Pqp4Y5SRCXZP8jBY5MehRFy5KxnN7nfTrXcdaRhbSU7VSOKcpGSzJa0x5y7cf131D/kclB0xq0jgYGOTdq75noUkCbsgeTo7FBvna06z6l/bDKqmZPvg21NaoZn5Wv+1epb/IxtB1n2Tzadbnafehr1azMoZNGe39NR3hODYxlHX9yZJXU/glL7mMsAq6OOjKXtlzO8TmNjn6TD7KepOeTUae0fvTZK3zyGbDst/yo4iR8/vspDnxB7KyJG+uVzG9otGxhgu58PUDUvIX+a3C8kuOJwjbqIZPJ8EYzclqqGDK2Mj+nBoA5c5xBeXKmaqruwXWq6KLIsAatY59n8PDFfVrqkOX+svazTnKXaYDRA96EWG4wlDt39MAzFbIeImGsYwbf4KfvQ+HKk74eS7HwP30pJK15ymP7R9y6EcX3HrdvL2D+v0YxbPN9zc3NZ6/wyaFPGZqbhNslxdi5jLzE6Jv9F3vm1mKXazz+dI1bg1rm2B9hWVXP/CRv1/kmYZWeudE2/jGpYGfgHzdjmLtSebTC9f3feauR3qS8CT12c6fHRpRW78joZuWkE3Wz25GpPZig9DOryuXOrwdlKm0a9U7woVdzyMlx/9/owc7983ft/865S6B7wXn9yNVZEzfmLGdW/nIeHGNMrv3MH/GoSgk3u7xtd9r0thGjcR+bXLZdtQ2ifXo9Y+WVDrV/wpKyit1Z3ncP2azKP4qyHdflHGYrwcWpGXNHMtlVWsZStCzZ2fZEWW4wlPKY+ghLJgft19+ajtDYkUyuIXOSbUFG1Sq0/Tcc2d2seI26ff3I928/Z7WWWY4scQamP8HS/3XX67FX+4d9ZXgf8dVeLd+t2M6P/nU74LyZMPCfv2fYc/tnwHzf7yvm30+y2OUv/Ff/Z43zet31N+j6/CSLx3nT4s5bjfQezkN3OA+6WukeXOq7Y5XbtbqkTuKynTc0vDPQe0TPosJOdOqUprcxWTk+2dc5o/O8hjcEHo/DoEzTuo6Oej1syNgKheXoDpczbD5K96B9zlVC94FEtzEz2Dr6oOoyuLak0zk9HGzl8pYSL/200psU7zwvOt15TtfRKbgrbKD3Dy+gUz+z3saj9Cap1/DOvoh1ZbvblNZ5Q8HAgKWYJdnQfcA5JrcbMyjvSTnHQO+WhTx4WNkGzuxxqOwot1y2j+cRn5aynSwy7HFeKxvz8Y9mNjc8hql0D6ZSZYv9BkTtMTPZpYWYTECHmXP9c52nNR2hcd0ectWpsOOcgpPoTOo5nv17XsMrs+A5bdaa9pCrnuOTW9+dNDR0ol2m7KotOEDS8UJMpjXqwWNMw5uO8B+rd1DmmNJ30mC//ll2ljzTGqWtDjPn+l0DebLjvSvv0ZkhG/7vgxSXDFNDjNcbF/dJiXcxIeq1QWtYPN8nQo9yg8XsbequKtjZS3l8NMlF7vNG/Q9/H0krLYQQkcCwI46jfDVipYXpzyclwxNCRA7J8IQQEUMCnhAiYni9S7tgwaN8+eWXE2ro9m2ZGQshgptkeEKIiCEBb1L8W1strOrhhWFttaA1v55vXq9nPHOrb3Pa+SZHagH6cWlZNRtNecri7P5WDq7Np8d/jU9gDMtp12f6odyS/4xerSV4FRn2oPvMo+JGpNRWm2jNuSngXjHEUw13X17Kfe+kcp9jWwovvfsyT8YADPLpb97kd2eUPfcZ93Lf6+Xc/crAjAvTMfrg5MeAt5139dshq47iLf5rNThNrLaar2otnvtDRqTUVgti/9yYx7fndnH/dee27F+/zA/+8g5FVR2wOp/qX7xC9pnf0giAgRlH9Xzzcgv/vJARsVO76SkeUNRMRa5zaYi1QcO7taAzWPmJbRd7yw45j3vapmSHbudYOKFmbQlVF1nHXvWcTeQcL4b9j/O3dVaeVbMBjcnKswAdR6ksUJbAkVVHcWk6fWrfY/FZj85nbTXf9fh8u/d6eL4W0rtzr5MGOBetu9Yjc63fZt/mqL7hY2E6QVRbzWOplH37ZGurjeuztH9mWev5sHQujY73rRw37/Q2Nte6n+OsX+exasCe4R57yOUzsS8Vcx1bDd+mWPiXd11/7hmkfr+TM693KC8XzCGGZFJfgsbfqYdcf5F/6ejk2+VAhGZ50xPoazOp1GvU/x2F3GZ0gPlYKyzWO6od6JZpsZ7OpyerjuJcOGE/pwGePV43alUEc4HSthWL8zx7sJuUGBK1Ni5vSMa84Si3dMXErUKprbYhmcvmgZGnRKcz9+tdmDckY260kbh+rOtyJXRvSMZ8oJXhEftc+j/Q6lgwP3NrO/PtfWzYxQ1t+ZgFAzKq1rOy9yR6/Tb0u80M0UlDQbMSbJ6+QZV+G3r9NqquaCkzZCpZmn4bDR1K0NDrt6F3DXazdZSZ9mAy7SGXk2qwUWqr6fUnvdbg0KYpdd/0+pMuC+adtdX0+m3oG9T1sWpttWZ7bTXTHkymHS6L7JNZwhHH+0l4ej0ZaNl9fA04xnsScnf4XJjvMFvHEtsBtf8brNwy1uJ/+/t0fmY/r9I6Fs/r7Bcvs1ayBDNHa5U6dUuuqH3oD3B5cSEHR7vI2XSE5/TbqGobZKjNfp5LIF6+nG86Lrj/8q5+iHkDN/kc+EHZG9Suvsmnfx3Z9H29A3yzpGaMDyV8TU/Ay6qj2GSlwmSlwn6dD6DJhIWlLMsCqCY1rpXTtYA2ntiOC85pXu0FrLPjefhextCUz179+LI7O0c9Okq42RXDg2MWDnDW46PuAr3R8fd0I8KtHh6g1MOLIUpXju5wJ7rD5fdULSZjtZZZLsHLUal3LP1mR5BsYA0fjqNCh3ttNXWjWltt1Iyqdh96/QHO9btu9KittvYILWiYN7sTs+Pn24y5I5p5Yw7No7baiCokIxUZ9qhB2P0zq/2sE+0ypVpIxmotPaeP0IKWpLhBLp+x/xmw0HxlkIRHx/7MJmNB2Rv8Iq6Voo11/M3L/vu+Gr2UV7ibhintJnK2pEPbLirLDmG/saA4hPH0CxSv3gTa5XA6MwA3OsajgO94u/g2mlWJPAjOsuR+M56psruWL25QlrbGUcXC0qBUmM3AdXo1ORFXW63oNXJTPEuRq2obOXc8myKsJMVbOFo2paN1d+Yrvv7FMzwXd4qi11uAFB72UgD324fimdF7bRoHFlym7dpl3xfKdbqEqmz3Mtu1F+hbrCdnGbTb/zpbbPSlLEenvkyoykbTb3P8xYqNX6huL2bFiDpZ8TzsbRqjZpkbJ/O8xCo9c90qII9t5sqlRHVd8HMBSQMDFkjM8T0lWb2jAaOxgZ1657aiZckuU1PnXdeWMxZIyx71EZKxMpGgqa2Gla/7XaeU68lOGeRrNQ5PvLbaKBw12zLJc8uKLTRfmYuuaiXzbOfUYG2hqzeaJavtn6NyjnLdE2AuSfbpfe7IKYR93G4uXOD+lOX8021jC+1/hb+2q38iXlrDkzGdtP/O/dRv42K47yuPa776nTQYjTTsWD3WOw95/svw1JsC6nfysNlkddw0MJ5+gYpcKxW50NfWihWX2mpsp73XyrMcpdK+qSmfY6svstl+8wELJ/TqYy5ljVhNeVSY8qCjlfP9S93aOt2WzeZSKytKcb9pMQneatj5rq0GoGWhl9pyPuvxMfF6eHfe2kv3/nKlHqD62YxVmbf2s05Mua6lv+0X9D3rkbl/8YtbTTbXGxHBWFsNC6X7zXxY6nyflgb1exeaJldbze19Oj6bRs49Xahu7+Rc26BbVthyxsLPS7Vc3u1835516obaDvBcLUAzR9tWUVa6B1PpIOfaOtG6/Gq0uNaEc7tpUcJ9HZ38M6eAfzE6g1fj66dI/aCG2ueUz+vT37yp3qFVza/nnykW/uVdj4/O1E3PtidJ+Z4WODPqpxzqvFZLmd6lZc47rcZp/v7K0bh/a9d4BOt3p7relVS2ZFTtoCz+rNfS4pFl7NpqE+bxLOHUqeHuzmx4J5UZ18c+Ggq4+3o5/N9kL8/hrWZnfQmL/1xD7s7wDngB/F7aTeQcL2fFbPUxlSAKduHFQvMV1CxC3eSZyYh7Z3+UZ9o+2xJmvJPIN3n1fPvrF10ePvbu25xivv3LLu73DHYF+zCuTWH4XPgHOwiKDE8IIaZHpD5wLYSIQBLwhBARQwKeECJihGjA20TOcSvFVZvGPlQIIVSBD3hZdRSPsU422Hyb087tnZ3c3tkpNcaECCEBfCzlXhzCuPZQQEcw49wu7jf6+wuohRBTyb8Bz7Wkk0sRUJ3hIg/bbKxIU/b1te1ibxmO5/BAXZnhtq8Yrniec8itD8c2O7fVHs6SUm7FSb2cpzNYeTYuUEVLhRDTxb9Ly562cVCvFABIqLrIZkO1urQrhhWLLyn7suooLn0BHZkY1x7CqBYMPeYWbDYp58Q3UqnPRAlYL6DjEObaTCpr7XXxXFWzsTSej/UaJcgVNVNxvI6/rc2HqmxiHcULhBCRym8BL2H1UmJnxzgyNQA6nP+0nlYDWlM3faXxnqd7McD5Y/Z1sNt5Vz/qwVC0HA1aZ/FPgH6lFE7PFzZic8upMCz0urbWXKAJrYrDQohJ8euUdsQUc7r5KhagZoUUNVPhUtRACBFZ/HaXtufMJUh7wVHSaULutbgnKEVCU7LJGa3CbW0mlbtb6YtLdLsrrDNYqQixO8VCiInzX4Y3oqST87srxjrv43VWnlXPs9+08CWh6iKb05zlmSpM5Wo/23m3YTkV9tJQODNOncH5fRf2ccnNCSEijxQPmIRvc9q5y155LEWIEBP4B49D1N2V5fLgsRAhJkQfPA6s+4ypPGAM9CiEEBMlGZ4QImJIwBNCRAy/TWmTFiRN6EbH3dt3/dW1EEKMi2R4QoiIIQFPCBExgiTg3ablVBedp3qpzwj0WIQQ4SooHksp2DlI/CePkLxjRqCHIoQIY0GS4YHtugQ7IcTUCoqAtzD+fwI9BCFEBAhswMsYpv1UF8v/mETGOwEdiRAiAgQ24LVEkfpMEhee6KLl5YCORAgRAYJiSnvN9t1AD0EIEQGCIuAJIcR0CJqAFz9flpoJIaZWUAQ8w45obD/6Uh48FkJMqaB48BgeIOOZpEAPQggR5oIiwxNCiOkgAU8IETECOqVdkLRgQjX0bt+9PYWjEUKEO8nwhBARI/wCXlEzFabmyX0h+FS2JYQIuJALeAlVFymu2hRybU9cCi+9W0PtBzXUfvAGL60O9HiECH0hF/DGVJtJpT4Tc7C1NUHZv36ZH/zlHYp+WkLRbzr4wS9eITsA4xAinATJc3gTpWejqRwNQMdRKgu2A5vIOV7OitkAFk64BCqd4SIP22ysSNMC0Ne2i71lh5SdRc1U5GodLfe1MWpbCVUXeZpLxKalE+vW/8i2YIDzux/H2ARk1VFcmk5fg4Z3a8d6fxmkfr+TM693KC8XzCGGZFJfgsbfTfCjEkI4hGSGF5sWT7teQ6V+F+fj8thYBHAI41oNlfqjWEecEcOKxTYO6jVU7m6FtBeU63JZdRTnwgm9hkq9hoNtA+rxo7UFmrR4Ptar+1OyyckCqGZjbjzndyttneiAvra9SrCbqNUPMW/gJp8DPyh7g9rVN/n0r5NoRwjhJiQDXl/be2rGdYjPrgwQ++jY192sp/PpAWjqpk/dlrB6KTjamkz/1+jtH+dJTfns1Y8nu3NaUPYGv4hrpWhjHX+b4BiFECOFZMBz9XB8DH1fHAr0MFCCXwwrSq1UmKw8G9fKsbJJjuvMV3wd8wTPxbVS9HoLkMLD8/w6WCEiUogHvGpSUwbotUzu7J4vbMQu1pMAkFXHurSYyQ8lS4+WVmXarNdQuVbNKB376yg2WdXp91haaP8r/LW9RXn50hqejOmk3eX63aa3jRiN+wiWe8pChIKQvGkRm1ZOhakcAGuDRr1OVs1GU55yIwPQmKw829/KwbX5vhuqfY/zT5ez2WSF/lZOtA3wEybZVpMJyxa1LTv1nB7fZ/nU+PopUj+oofY5gEE+/c2bNLrst/x9GBYkkKgHTJPoQIgIdF9SUtK3nhsXLHh0Qku+AB56JHFC59y9fTe8lpYVNVOx7ILzji3VbDRl02u/S+tvBfswroX3c14jGCb0QoSCkMzwglLtBaymPCpMeY5NzuzTn1azs76EJ2d3SLATYoIkwxNCRIwQv2khhBDjJwFPCBExJOAJISKGBDwhRMSQgCeEiBgS8ELV/N/S/PxJmrPeRB/osQgRIuQ5vJD0FL9aksB/N63hl4OBHosQoSP0Al5RMxXLbJyPSx9Zr06tOReLx3aPpWKu9fASqi6y2b6G1rEUrJqNpuW02893XUUxWv9udfRc+3HfbvWoiaczKMUGJrYMrYcuCXZCTEjoBTyAlKWwW0NlkxKw1lVtwly2kI2lSp06R5A6Xsff1uZDVTaxbbuo9KxeUtTM5sWXOKhXAk1C1UU2G6qpLJhM/4fQGcrRXhnZj85QTtxpDZW1oATfi+RY7mXJmZa50dA12dOFiFChGfA6Gh3BoqfscfYCFDWjQass9Lcf129TjvnCRmxuORWGhS5rXSHh0Xj6rrznyKp6zlyib0siCXRPvH+qSU2x8HGB52KvalJTQJNipSLXvm2AXpcjzAWacdfk0//w9/xycQ//9f4rHBjnOUIIRWgGPF9cy627qs1UsquiZipMVt/HTRn3MvH3wvTnn2H6cwEHnv8thRL0hJiQ8LlLW3vBpdy6r2MyqdzdSl9cIgl41MMDdOvSie3tVjO+eB52lG7X+mjQ1TV6+7X8ZMS3nm2nvcPbdiedwUrF8TrHOMZm4YZcvxNiwsIow9vOuw3LqSi1sqJU2WK/aaAzWHk2xXmktUGjBLXaTE4sszpr2PW3cnCtkvmdbstmc6mVFaUDnG+zoIkfq/9DGNcuZKPJWavP3r+54CipLtvvpU6eEGLypFpKSHqKX2W9Cp/8TB5LEWICwmdKG1E+4peXe/jXLHnwWIiJCKMpbYS5/gqZ7wd6EEKEFsnwhBARQwKeECJihNSU9tHvf3/CN1O+vXNnikYjhAg1kuEJISKGBLyIUUDc/k4WbR1robAQ4SukprSTpTNYSf3MvULJ+LhWWRngvMt3zLpVWZn2pWp+tqqeRYXpRAFg4dqGDIb82PzMre0s0cU4Xg+bd3H1LcO4zp1V1cnCJC/nTfGYRXiKiIA3WQm+qqxQzdNpNk7oH/fL+tjpYaB3i8GtaIHdrJx0bjUmc7Vu6np3BqsaEg8XE7fKQO/ZMU5aVc/8Oa1c3vAinldip2PMIvxETsB7tI5ik1Irz1GnLquO4i1wbK2zPNQ69jpq5T0cH0PfZ16+6jorkdh+G38bsd17PT6l3Uv0paUr2aLH0rKJ1MObubUdDXvV4FFA3P5iOJJK79kaEvcncutmOolJAAN0H0hVgkp+C7psZT3wyOyqgO/MGeBWp2dPNSQeziNOfdXbmEx3nX37cm6Z40lUs7bexmS+SmhHM88GSVqiulrpnpNOYrSSeY28bWTjH2edbd20Z2f5LeiWXMBcVqIclhxP1M0LXs73NeYC4vaXkxjtMeb8FnRLbOqYQDLCyBUxAU+zGA7qNWpxz2Jysg5h9HGs23TVXtap4yiVBbgVElXW4NqnutW+6/EBsWnKvndRAtzTRUxiij2G6HTmWnZhLjMo08icGnrPlkBdBuY6e7B0cp0uUthJYqE9IELc/jxoTMbsCHLtxHWqARQtc9mFeYNBmVqur+f/sUBUElw70Mr8wnQebNxF94+L+c4quANE6crRHVbWEvc2Jo8ebNymq1p0h/OwByl8jtnArKpyHvyDlzEDJC2FA8mYz6qfw9aCcU+rRfiImIBnPW3PnrbT3pFHqhaweD+2p+xxKvF+7e9d/fYRmSEARct91uMD6Gt7zzH99ax/N5F6eKOzcF39Jb7TY4N5ox89VJaM2S1LtO+p4cFoCzcd08USbnblMScZOOveD2df5KoaRIbN7zGEHgZb+aoOYn7s7Mt9SusaPL1Q2xyR8QGMMuY5SRCX1Elctn3bgLOyYVej49g7b6VydfSPRoSpiAl4Tpt4OG6AXh/B7p74uHkx/rJPkcAzePqTj6lqsr/7EaEq8h5LydKjnW3jb/by6rPjeRggq451aTGjnDiG8dTj82Gi9fCi5i0EYObWYsf1Kv+6xq1BLXPy1Zer6pmf5O2a2WTUMMetrXi+s0rZnpg9nrqDvpRws0vL/Ek8drN6RwNGYwM7pQpD2IuYDE+Tay+xrlxzMwM05fPxOivPmqw8i4XzbQNM/lfOdz0+f7rzViO9h/OU61pdrXQPLh3zHPfHQpRrac6bEN4Y6D2iZ1FhJzp1etjbmDz2XdVReF7DU9oq4StzNksKO0ksHKDbbBlzGj6aobKj3Drs7IfBVi5vGXmH19OZ6z2UkMLcFMA0+f5F8AupenjfS5ovS8uE/+l30rBtMVf25LJDAl5Yi5gMTwhvNr1t5PkFw3wqwS4iSMATEe3Qqzn496KDCGaRd9NCCBGxvF7DE0KIcOR1ShusNy3kS3yEEPdCprRCiIghAU8IETFCL+BFv8kHz5+k+fnfUhjosQghQkroBbzBN/jp+2v4ry9TWPPDpwI9GiFECAm9gKe62j8c6CEIIUJMyAY800APs2bfy2JzIUSkCdmAx/VXyOx+gubnf8+vpqRiiBAi3ITu0rL5v6U58Y9kvi9Va4H4WdAAABg7SURBVIUQ4xOyGZ4+JoGh/pFVPKW2mRDCl5ANeL6cud4DRCm1zYQQwkXIBrxFs6O87+i4wTDD3OiY3vEIIYJf6F3Di36TD7KeZBYd/Ne5j9x2SW0zIcRoQqrisRQPEELci5Cd0gohxEQFdEr7edfngexeCBFhJMMTQkQMCXhCiIgR4IB3l/pjXXSe6qLl5cCORAgR/gIc8Gbw4rokkt+PRZsxzMS/M14IIcYvOKa0lhkMBHoMQoiwFxwBr+V+bLPvsjDQ4xBChLXgCHg8QMYzD7D8VBftO+8GejBCiDAVJEvLbtNy6jYXnkmiJNBDEUKEreDI8DK+Ib5/Btc8NkupJyGEPwVHwPNBSj0JIfwpOAKe9i4x3rZLqSchhB8F+BreXeqPfUn6bLC8n4RrsXYp9SSE8LeAlocSQojpFBxTWiGEmAYS8IQQEUMCnhAiYkjAE0JEDAl4QoiIESQB7zYtp7roPNVLfUagxyKECFdBsZa2YOcg8Z88QvKOGYEeihAijAVJhge26xLshBBTKygC3sL4/wn0EIQQESCwAS9jmPZTXSz/YxIZ7wR0JEKICBDYgNcSReozSVx4Qr7ERwgx9YJiSnvN9t1AD0EIEQGCIuAJIcR0CJqAFz9fqqcIIaZWUAQ8w45obD/6Uh48FkJMqaB48Fj51rKkQA9CCBHmgiLDE0KI6SABTwgRMQI6pV2QtGBCZeFv3709haMRQoQ7yfCEEBEj/AJeUTMVpmZ0wdaWECLgQi7gJVRdpLhqU8i1PRnZv66h9oMaqsvkm8iF8IcgeSzFj2ozqawNwrYmJIWX3n2ZuDMlfEgNqwMxBCHCUIgGPD0bTeVoADqOUlmwHdhEzvFyVswGsHBCn4lZPVpnuMjDNhsr0rQA9LXtYm/ZIWVnUTMVuVpHy31tjNpWQtVFnuYSsWnpxLr1P7ItGOD87scxNgFZdRSXptPXoOHdMYNoB7/bWAJA9q8n+tkIIXwJuSktQGxaPO16DZX6XZyPy2NjEcAhjGs1VOqPYh1xRgwrFts4qNdQubsV0l5Qrstl1VGcCyf0Gir1Gg62DajHj9YWaNLi+Viv7k/JJicLoJqNufGc3620daID+tr2KsFOCBEUQjLg9bW9p2Zch/jsygCxj4593c16Op8egKZu+tRtCauXgqOtyfR/jd7+cZ7UlM9e/XiyOyHEVAnRKa3Tw/Ex9H12KNDDQAl+eawotbKiFOhv5WBBMIxLCGEXkhmeUzWpKQP0WiZ3ds8XNmIX60kAyKpjXVrM5IeSpUdLqzJt1muoXKtmlI79dRSbrOr0+95tetuI0biP4LmnLETwC8kMLzatnApTOQDWBo16nayajaY85UYGoDFZeba/lYNr8303VPse558uZ7PJCv2tnGgb4CdMsq0mE5Ytalt26jk9vs/yKfvXNTz3ffXF91+m9oNBPv3Nm/zujLLJ8vdhWJBAoh4wTaIDISLQfUlJSd96blyw4NEJLfkCeOiRxAmdc/f23fBaWlbUTMWyC847tlSz0ZRNr/0urb8V7MO4Ft7PeQ2ZOAsxPiGZ4QWl2gtYTXlUmPIcm5zZpz+tZmd9CU/O7pBgJ8QESYYnhIgYIX7TQgghxk8CnhAiYkjAE0JEDAl4QoiIIQFPCBEx5LEU4dXMre0s0SkrT3obk+muC/CAhPADCXjCqztvpWIGZlV1MifQgxHCT0Iv4BU1U7HMxvm49JH16tSac7F4bPdYKuZaDy+h6iKb7WtoHUvBqtloWk67/XzXVRSj9e9WR8+1H/ftVo+aeDqDlWfjxrsMrYC4/eUkRqsvu45iLlNq582q6mSh4+t9LVzbkMEQNSQeXg5dWuKSBug220jUaRk27+LqOT2LcuDGnHS1Pfs5Y8hvQZet1v0bbOXylhe5QwFx+4vBorQPKH28ZRjzHQkxXUIv4AGkLIXdGiqblIC1rmoT5rKFbCxV6tQ5gtTxOv62Nh+qsolt20Vlmce6hKJmNi++xEG9EmgSqi6y2VBNZcFk+j+EzlCO9srIfnSGcuJOa9TqydVsNF0kxzLJJWf5L5B48yjmLSUjdg2VJTtLXeW3oKuqwVwGoOXBr3dxjXIWai9xuRGWLFmoHJeUzoONyZjr1GlsVY0jgHq1qp5FP7ZxeUMGd3A95xoQQ+K8RswbMoAaEg+/wCwMYwdQIaZJaAa8jkZHsOgpe5y9AEXNaNAqC/3tx/XblGO+sBGbW06FYaHLWldIeDSevivvObKqnjOX6NuSSALdE++falJTLHw8oiRUNakpoEmxUpFr3zZAr8sR5gLN+GvyddoYzs5Dtz9RzaycXK+7AdB1Qf2HhetvGaCqnN4/vMgdWpzHDLbylXp97s65SwyvT2QmuLXraubKpURFx7DkcKdLP8731W20B8sSujeM900JMT1CM+D54lpu3ZX9uymKmqkwWX0fN2Xcy8Tfk7MvcvUsSqZ1uJMo+5RyVT0aHXQfSKb3LEqGt2SCbSfHE4VtzMO8T1XHSouFCLzweSyl9oJLuXVfx2RSubuVvrhEEvCohwfo1qUT29utZnzxPOwo3a710aCra/T2a/nJiG892057h7ftTjqDlYrjdY5xjMvZF7m64Si90fHMdGy08Y+zAAXE/Xg8Y3Y3a4mWYYvJZ3YHShaI7gVmTbj1TewzGjG+LRX8ROCEUYa3nXcbllNhrziM86aBzmDlWZdvOrQ2aJSgVpvJiWVWZw27/lYOrlUyv9Nt2WwutbKidIDzbRY08WP1fwjj2oVsNDlr9dn7NxccJdVl+73UyfOctg6bdykT8LMvcj2nk4WHO4EBus0WmDeOBqPTndPTrqOY1czN7QZIUidx2QN0H0il9+yLWFe2u01px/fYioUb/ZAyL5HVwJlxvVsh/EuqpUSyVfUsWg9Wj2uBU2XT20ae531yXpWiViIwwijDE0FLv5OGbU8S9bkEOxFYEvAimf0GyFQz7SBXytCLIBA+Ny2EEGIMEvCEEBEjoFPaz7s+D2T3QogIIxmeECJiSMATQkSMAAe8u9Qf66LzVBctLwd2JEKI8BfggDeDF9clkfx+LNqMYVmNKYSYUsExpbXMYCDQYxBChL3gCHgt92ObfZeFgR6HECKsBUfA4wEynnmA5ae6aN95N9CDEUKEqSBZWnabllO3ufBMEqPU2hVCiHsSHBlexjfE98/gmsfm1TsaMBob2KkPyKiEEGEmOAKeD2eu9wBRzE0Z81AhhBhTcAQ87V1ivG3vuMEww9zomO4BCSHCUYCv4d2l/tiXpM8Gy/tJuH5Lwqa3jTy/YJhP9+SyQ0oLCSH8IKAVj4UQYjoFx5RWCCGmgdcMTwghwpHXa3gypRVChCOZ0gohIoYEPCFExAiSgHebllNddJ7qpT4j0GMRQoSroFhLW7BzkPhPHiF5x4xAD0UIEcaCJMMD23UJdkKIqRUUAW9h/P8EeghCiAgQ2ICXMUz7qS6W/zGJjHcCOhIhRAQIbMBriSL1mSQuPCFf4iOEmHpBMaW9ZvtuoIcghIgAQRHwhBBiOgRNwIufL0vNhBBTKygCnmFHNLYffSkPHgshplRQPHisfGtZUqAHIYQIc0GR4QkhxHQIaIa3IGnBhEpK3b57ewpHI4QId5LhCSEiRvgFvKJmKkzN6IKtLSFEwIVcwEuoukhx1aaQa3viMij5oIbaD2qo/eANXlod6PEIEfpCLuCNqTaTSn0m5mBra4J+UJYOH5ZQ9NMSfvMpPPlSPj8IwDiECCdB8ljKROnZaCpHA9BxlMqC7cAmco6Xs2I2gIUTLoFKZ7jIwzYbK9K0APS17WJv2SFlZ1EzFblaR8t9bYzaVkLVRZ7mErFp6cS69T+yLRjg/O7HMTYBWXUUl6bT16Dh3dqx3+Ffqt6kxv7vsx0MSLQT4p6FZIYXmxZPu15DpX4X5+Py2FgEcAjjWg2V+qNYR5wRw4rFNg7qNVTuboW0F5Trcll1FOfCCb2GSr2Gg20D6vGjtQWatHg+1qv7U7LJyQKoZmNuPOd3K22d6IC+tr1KsLtHP1iVQszXX/GXe29KiIgWkgGvr+09NeM6xGdXBoh9dOzrbtbT+fQANHXTp25LWL0UHG1Npv9r9PaP86SmfPbqx5fduXnpFX7x5A0+fL1lgicKITyF6JTW6eH4GPo+OxToYaAEvzxWlFpZUQr0t3Kw4B7H9dIr1D43l09/8yaNfhmjEJEtJDM8p2pSUwbotUzu7J4vbMQu1pMAkFXHurSYyQ8lS4+WVmXarNdQuVbNKB376yg2WdXp9ziszqdaDXa/OzNy96a3jRiN+wiWe8pChIKQzPBi08qpMJUDYG3QqNfJqtloylNuZAAak5Vn+1s5uDbfd0O173H+6XI2m6zQ38qJtgF+wiTbajJh2aK2Zaee0+P7LB9SeOmlJ4gBnvxFDU/+Qtn61w9LqPmd8m/L34dhQQKJesA04Q6EiEj3JSUlfeu5ccGCRye05AvgoUcSJ3TO3dt3w2tpWVEzFcsuOO/YUs1GUza99ru0/lawD+NaeD/nNYJhQi9EKAjJDC8o1V7AasqjwpTn2OTMPv1pNTvrS3hydocEOyEmSDI8IUTECPGbFkIIMX4S8IQQEUMCnhAiYkjAE0JEDAl4QgQtLbuP7+HDKu3Yh45X9Jt8kPUmevvr+b+leWWB/9oPchLwIsDMre0s2jqB/6hX1bPocCc6j/8ljvLctd/HEKKKDHs4OK7VNEow8zy2yODnAOemgANZi7nyyRvOZ9Wvv8J/8TM++OFTU9RncJHn8MRIZ1/k6lmAGhIPZ3PrQCq9ZwM9qHBjofnKIGXLMoFmdVsmupRBLh+zOI4pXbvNbz0WrvwZCVeqKRx0337g3O954vlX+dWXH/HLQe/nhovQC3hFzVQss3E+Ln1kvTq15lwsHts9loq51sNLqLrIZvsaWsdSsGo2mpbTbj/fdRXFaP271dFz7cd9u9WjJp7OYOXZuAksQ8tvQZdtzwIsXNuQwRA1JB5ezs0NGQzZj1lyAXNZiXqcnsTD5cQBdB11bndta7CVy1te5M5E+refk9+CLjuebjU4ztzazhKdjWsHbMwvTCcKgHJ0h8uBAfU432OeubUdDZe4pUtXxuw6tsmMueg1TLnJ6otOGvT7qEXL7uPr4coNVqYp+4baDvBcmRJwigx7yE3BY7uW3ccLWan+LOk3U7X2CC2u7afswZTr2o/3tlrOWPh56WMU0UwtQNFjaPstHG1yH6/rmEa8F9f+l/0JfUGz+3GObQU88UgHJ8995OXDMXDsyhqKH3kK/uxtf/gIvYAHkLIUdmuobFIC1rqqTZjLFrKxVKlT5whSx+v429p8qMomtm0XlWUe6xKKmtm8+BIH9UqgSai6yGZDNZVjzby89n8InaEc7ZWR/egM5cSd1lBZC0rwvUiOZZJLzlbVsygbrm1IVoLEOEXp4rm+IZluCojbX05ifgndnfUs+rGNyxsyuIMapKpqXIKkj/69npOBmRZ0OTX0noWHdDY1EMNVNQBq2MvVtwyTGDPMqurkoXwmN+as9XyYCw36bYyszhXNyviz6PX7gEwOmrIpYh9Xq3aQbTuAvsAZ5A4WbWNzrXvWlVG1g59XaWkp24e+Vglsus+2sdmlowyfbZ3j8pZCdEVALRQtS2boSiMtALVKexlVO/i553t5+gZV+n20qG2XGTJpOXaDoWWo7a+H/TtpfnQuQzZ1bff8J9B++UcKfXxEpoEefrlEj/7PH4X10uzQDHgdjY5g0VP2OHsBiprRoFUW+tuP67cpx3xhIza3nArDQpe1rpDwaDx9V95zZFU9Zy7RtyWRBLon3j/VpKZY+HhESahqUlNAk2KlIte+bYBelyPMBZpx1+SbuXIpmPdOKNgBDJvfU88xMGApZm5CATMTlhIVHcOSw53OA7vG7t/nOXUZXKvqRHcYehsnFpBHHzMMlSntzdw68TFnrNZC2xEvwQ5gkHPH7FlRM5v1zYCW3YujmTW7EJPLb789x3LN1gCG2kbrXUumz7Zcp7VWkuJcp7O+38us2dGUmXSU2Td2qP8f9xAZWQ8xT+kWgJ4vxllKaPDGPf+8QkFoBjxfXMutu6rNVLKromYqTFbfx00Z9zLxgTZzXgy3LhsgoZhh864JZV3AGOcM0DtGALpXkxnzxA1ybvdOSj2z8KLXyE1xTlVHZGATaQuUae0WJVAtwcJ/jCPrHzHFBSCTntLHWKQFTp+FZZksAr72UlrMq+i5zBr4Y1hndxBOd2lrL7iUW/d1TCaVu1vpi0skAY96eIBuXTqxvd1qxhfPw47S7eO5a3aN3n4tPxnxrWfbae/wtt1JZ7BScbzOMY7R3OmxEaV7gVle98bznVUANSRm+xpzDXOSBrjVCXfOXQKfbfnof5RzZm5tZyGNdJc1QnY7cavc90fNWzjJMY+vfwD0O2kwGmnY4fyat5YvbjArLZvxliJUMi9YuS7T++7+G1wFIJO8tOgRuxMedX0fY7TVdI7LaMlbp4Ur5xirrnXLGQt4fS9Wvu6fi27ZDcy1Vr6OW0V2nMvu63/E8sgTPqe0+pgEhvo9g+gm9hmNGN8On6qLYZThbefdhuVU2CsO47xpoDNYedZlCmJt0ChBrTaTE8uszhp2/a0cXKtkfqfbstlcamVF6QDn2yxo4sfq/xDGtQvZaHLW6rP3by44SqrL9snXyQPqMric0O4ypbPftCjhK3M2Swo7SSwcoNtsQZnbKKJ09hsGynRTuev6ItaV7W7Tw97GZLrrRun/rI9zaFFuUmxQrqV1Ny5HV9gOKDcx7rzVSO/hPHSH83DetBh9zBPqf7Qx1+6j6tEdlJn2oFxVcGZovrSUHSHzeCEm0xp1i3pObSPnni5Up5SdnGsbdPtDVXvMTHapffqqnuOrLcAeEMvS4JzLdDajagdljmCqtGdp2Mbm2iP8x2rX92LfbqGrN5qVcXAUC1evwMq0G3Q5MkYDf/zyJGt++BQHRtyYKGDdYrjS5Lndwo1+SJmXyGpgvMliMJNqKUJEjAIOPL+GG00/c3v8pHDlSdb0V/NTL3doN71t5HneJ+fV8ChEFj5TWiHEGAwUNl1h8Y/cV1r8G78fGezUSwPhFOxAMjwhRASRDE8IETEk4AkhIkZA79J+3vV5ILsXQkQYyfCEEBFDAp4QImIEOODdpf5YF52numh5ObAjEUKEvwAHvBm8uC6J5Pdj0WYME/7lIYUQgRQcU1rLDAYCPQYhRNgLjoDXcj+22XfxtrRcCCH8JTgCHg+Q8cwDLD/VRfvOu4EejBAiTAVJtZTbtJy6zYVnkhilbq0QQtyT4MjwMr4hvn8G1zw2r97RgNHYwE6917OEEGJCgiPg+XDmeg8QxdyUMQ8VQogxBUfA094lxtv2jhsMM8yNDm87hRBiYgJ8De8u9ce+JH02WN5PwvVbCja9beT5BcN8uieXHeFeaF8IMS0CWg9PCCGmU3BMaYUQYhpIwBNCRAy/XcPr+nyKv4xUCCHukWR4QoiIIQFPCBEx/PpYyrc57dxZqTxRN+PcLu43GsY4Qwghpo9fA959xlQeMCqBTx46EUIEG5nSCiEihgQ8IUTEkIAnhIgYEvCEEBFj+gKeficNRiMNO1ZPW5dCCOFq+gKeqZseIOp72mnrUgghXE3jlNbCjX4Y/rtl+roUQggXU/jgscuOgn0Y16YwfK6G3J1n/NmlEEKMm9/q4d2+PaIZIYQIKnKXVggRMSTgCSEihtcprRBChCPJ8IQQEWMSAe8u9cd6qc/w/2CEEGIq+Qx4hStP0vz8ST744VMee2bw4jsPsrRkgJopHpwQQviTz4B34NwaMps+hcX/RqHnzpYo9n5yh7za21M7OiGE8KPRp7SDXfT42GXYEY1lwe0RWd6mt40Y63ciK2aFEMFmjGt4Fm4MJpAU7W3f/dj6+1j+8lQMSwgh/G+MpWUf8csm+FXWSZoHfk/mOdfvqJhB99cQ73HGoVdzOOTvUQohhB+MEfCe4ldZr8Ina8gc9Nx3l8R538UmtQCEECFijCmtlrnRPXSNCHYA3xA/eybdLe5bN71txGjcxyZ/jVAIIfxk0g8eF+wcRPv5A5R4bLf8fRhI4f8tuLeBCSGEv40e8KKTSPC2PWOY4h/N5GjRAyN2nfn4CsN08P/JV9IKIYKMz2t4hStP8m+PwNCVag647blL/cu3uFQTNyK72/S2kecXDPPpnly5cSGECDpSPEAIETGkeIAQImJIwBNCRAwJeEKIiCEBTwgRMSTgCSEihgQ8IUTEkIAnhIgYEvCEEBHj/wcHNo+GHsA8tAAAAABJRU5ErkJggg==;" vertex="1" parent="1">
                    <mxGeometry x="-250" y="-110" width="331.05" height="330" as="geometry"/>
                </mxCell>
                <mxCell id="2" value="" style="shape=image;verticalLabelPosition=bottom;labelBackgroundColor=default;verticalAlign=top;aspect=fixed;imageAspect=0;image=data:image/png,iVBORw0KGgoAAAANSUhEUgAAAUUAAAGyCAYAAABz49b8AAAgAElEQVR4nOzdf1BUZ57o//ds9muSiyIqg5gI9EhrZlScbXHWqDHrNOAEKs4m2eAPuFqVLTDizLD3mpQWC8HSyFpQibtrsuLY1KYqrBhlJjoxBRnBHm+MEDeSnhV1JtpkG8kkSFChlevKnex8/zjndJ9uupsGGpofn1cVNfT58TxPd8YPn+c853z6W/Hx8X9CCCEEAH8W7gGEVNZpTJWnmRySxsqIq2wlLiskjY1ak7Y1YzpwhEnhHogIWkrJTqzHs0kZ1l6M7D3+Gu+VGEPXZEoPzcd6yA1di8Piz8Pa+yOvsvB5uLb/Fe6PeOdlxFWuIxrgTgOXt26gd8THMBS5RB/Ih8NJdJ4L91hGhzzLa5g+fZnN5cEcncoh61O4/sl32yh59jCnQzKSVA5Zv4fN/AZBDcVLSslOCpdNcW9o+QBzbn1IRuZmZO/xLSydCtBK9SDHGrz7nN5+j0tl0Vi89pi/+0v+fn4E/OGXpJ733jvywhsUQ60qBVtVsAdvp23jdtpWHGFetv/9413vviRs4R5E2GjBQAkQf1dyntOF9nAPCoC7jQf5caEdLXgfyqt3BfvThbtCELztFDz7MloA978/NMrKbxDz8aOk9Bl4Lmvnt/OLd3/CwZD1NjR+guIPmZm/g+9EKa/u/nsplz74jf/tj7zKQjN8Pf0H6r4Wruz+CU4AcvlO8d8wE/05eLRjKv7Aqx/fJm1rZiaXeNi0nAiA60exFW5HyZqKiJsCYOfaxhTuqudMLmnmoZsdxJmUnKDHtoer+wL/NZq0rZkFpkgAOmsTaKvqr39gxRHmbVG3e40hlCaXtDI3XnvlpE371Wf/ZcRVpnPvoDubnLStGQP7ubpvbsBMWf8ZeOzPOo0p3dh3eyB5P8OamaC+0AeibLhyi6XLlH3uQKDPYsBerWV/nttd2Z2+/cTXsGbq+1EyyMxEvPrQs1N/5Q5LYwyAss/nOWnZvLcWLkebfGRYXmOj1fXHxnf/gd6/Xj22lqdIn20EDO7s1iuzzbPsJL7DT1v6zyeYjFh3vOeYUjl0fCY3O00sTQS4w/m9uyio6/v+3f/NAO6TPCeK2rwHfPd35xZXA41nhPm8phj5P3fw7aulfLz7KT7e/ZQrUHluL+XreTv4zmL1pDk/4H98pBx/5fNE4p/6IQAPPvUUEf/u3dZvuLH/KT6u+IS7XZ9g8+onkGhTDF9uTMC2cQ9t09ap1/wsdG5NwLbxKJ193w1xxg4ub1T23zPlE70icB+9+5KwbUzg2vVA/R+lMz5dbauMuC3a9gRstTC3v+t0uW9QU1Pj+fNmTsBxTdrWzFyOKn1s3EPbHW2Pv/63c8MG05dqV3FyiTTCrfMWlEw4AdvBBnq8O8o6zQLjJfUzS8CmBb4VR5j3RIdr+2X7QhaUlAX+MNOyeS8Tqs0vYza/jNljmjaFpTG/U7d/QPuydPKAPMsWZpx62bWdzJ3sTQMtezGrbZVcMfJ3JUYofwOz+WWqW5R/jPp+Ukp2kt5xUN12kMvzt3Aoz3uQRlLnT8H+qTJFDXhOosk1tuqWBNLVa255li0suHLQNWYtjATu3/f795SKKfEOl8/YgXo2m1/GvNfm4w/uFJbOv0WJq61s5TNLy+a91dp25TMrtKQG/m+mfp4ljXf67ptqYoH6fkoaYenaVNf79/3fDHjxPsbPH8TnvGtKPLGBRzPifGSKucyY08L1f/MOUD/k4ek9fG3Vtv+Grqs/5dsxP4R2oOsTvvxU2XO/0/3P7H5HO5Of3sHj0UY+/rehXy/osb2j/h/CgtOez/TYXOhzlcJT50daNrOd29fXMS0BGOR1OHf/17h3J13ZmJVMNEaiK1vdB97pCNyQ5WdkDOjjUAJa22Ef/9cK0H/v+UuQbWYSFnpXmJnOJRz9vPfJC4x0fpTSJwOctHQhEVMiWaDvx8cfDr2UVUZoPOznetUdzh/TrpXVs9lcD6RyKBGMroxPOe6m+ps+6wK42xiodyXYTZ66BavVvdWdiyWQaX2NTNSMqDyIc7ptHFXfzNWOOyj/D0jFlNhKba53ltdf/77eP6QAk5e5z7FXv6xmY4HZT2kZoJJdmoyQMtvI5KlTKLSaKNQObOm/Lf9aqVUzx9Nf3KIwBpT37/+/mT9bln7A85Gf8A91r2Dt59iRNPzXFD/9CR9/Ciz+Fx4v/gA+/2VIgiPApBmR9PvJe8jloWkh6bov/VQ6qKG8Qc2ziZ7bPn+XjJ9WhLb/cxv4MqOZyBXgXLqQex8lDWlBKZjLD0Pn58J/3s/ITHTvSynZyd/125Z+iuenn7yfYc3MZm+adpyfc9J8NDGk/v3zPZUOlpH46FC1FayBL9YcPP8UB6e8yom0V2EUBUYf02c7/7fLPf11+w33bkXw7UXa9lwe+csIejr6n/ICSnCs+IS70+N5UL89arrn66CVMS3eqU4Fg7TCzPQpdm4HvRgTpKom3VQ6SJafkZGR4fkTMCBa+K/bka6p8KRt+eo11P77v3u5g+lLy4g0dgT13ntvOol+ou/0v/f8JTCt93vL06qd1dTUVLPL7N52+otbTPY5LfSnHptuWtpHt3b9KZV1+hVaVexs/Xl26q+4p3h+lddyvnuKelyQ53hwcLM7AZP6JvMs2qr2YNoKgbSlLJjaiq0cTp+xw4A+/8Ho57/Zzx/EPuc+Pi+03LlO+3AObRB8ZIq/4cZ+I/+jeAeP/+UOwL0A4vy3X9Ljvf1T4BH/HUT+zw+YP8f9+sb7T7lvv/nyFa5//gHzg1xoAYgwFWGqLAKURRBlAUF3ew0o00h1EQAgOr2V6HQAJ20Hk5Tpr8fCBMqUUM22PBYz4luJTlfOc/od1XbaapMxbWklbouyZTgyqrs1DbBFef89tqO0adP3/vqvauJe5Trirh91rzQHeP+9+5K4VtLqniZrCyrnNuBY2uwxfdYvRPlU/gYls3dSqE5Tg8koynM/wGTVTTm1xYHyWs6v3qJOBVs533jH43pU+TEb6QXaeWo/hYdJPb4Fq/Up9Shf/dspOGDjvYLvkUd9kOd4nX+qFWumMn20V3+APVFZ0T094LYCSMvmvQKT649SodVEoe52HWOmNn1VstNygLrD/PMq/eevLYJ43pJktL5Gpvo543FLkPJ5ei6c9OX3vxkAD9L0+Q3Sd0WwfaefxZZR5Ftj6YkW98pp8MFmckkr0y738w9XiDFuYPdohsN9Tv/6Dh1l0WzwWPrO5eBzf8FvR9EtOePriRYhxCj1ICllD7PwRe8nWiwcuxLL8899QP3S0fGsy5jKFIUQYrhJpiiEEDoSFIUQQqfP6vOcObP5wx/+MKBG7t+XGbgQYnwY9QUhni5cyvsl5/s9pj/9tSGEEDAGgmKwAgW9YIKmEELAMAXF2KylzP7deS5416SaNZNVfwMX3rzht4KMrwDmL6jpA6EEPiFEKIQ+KM6ayXenO/oGRCD2hwbunjsfsKSWd6DTXvc3jZbpsRAiFEIeFP0GvgDB0pdgriV6H98fCZxCiP6EOChGMvs7N/jCxyN1kxdFwzX7gAqvegc6/WvvABeKxRghhAhpUJz8ozgmX7D7qHoRyXeX9PD7kuC+iUXLEv1Nn/0FuGCuPQohRCAhDIr+A5//YBl63gFQMkQhxECE7okW03Ri//OWj8D3ILPmwh8uDixLFEKIcAhRpvggc1dE8NkvHX13mWbx2K023v8quJaGGhAlMxRCDEVogqLfwBcgWA5Sf0FPskwhxFD0KR02Wp999jetDjTdDrRaLYQQvoyZoCiEECNBSocJIYSOBEUhhNCRoCiEEDoSFIUQQidEQbGUTVYHxVYHxcerPL6Ld+SUsslajykUTcUu5PBLT/NKbCSv5GZx2Bw5pOZeeD6LfUnh618IEbwQBcUdvG02sHtvA12haXAU6OaLkXgucdT2L8TENPyVt/PqKc40ul46qg28XQ4mi4OVHXvYX1jhPm51B4eezaLd4xw7J82p2IDYkousZb96Tg4Zx/PhwCK+WutgTaJytMHqYA1Ay1F25+5QNqZVkV+wnC617+A5+eI2TPvaqbyMXcjh7EVEqHt7bO+TbXUCcex7yUDz62d5CyBpJScec/DMZwZOrI5TDk7I4sRqgDZ+pR73pPlptpnULNB5kX2WS3wYqH8hxLAb/qBYnspuVyBSp7jlqdiONbByq5lYKmgHTIuNOE6l0p5WRX4mnDQbsIESLI9X8dWzWX67sOUasFHKJmsyzWoAHZL2S2S/rv7+iyqv7ZfUF5G8kvskr1x5n1f9ZXTNZ3mmWZk+J31WxbZm3b6klWxLdLDvdSUQPml+mm3Pd/PhL9r89y+EGHbDHxTVLC3KtcFOM0CdFfvWfBanQU1dKUnRDZwqB/JiiGppcge28iYcmcnMAoJ8fLqvuiz21w3hPbjEse+llcxxvXbSNMiWnvz2VHpa/sOVGX54xcGLa6byJG1e2aIQYiQN8+pzDhlbl0PjHnabDew2H8X9FHQFNac6MK7KgbxkOJU1IqXFhuKF51cyp/Usz7xexTOvv0+TzGqFGHdG5Jacri+U64axJekY9DvKm+iabyZjMTRrU2x7B12Jya5V5NiSdAzdHa4sMSpmrro9nyVTvXuKYVaajwGkVZFvdbApb+jvpedWt/JL0vdJ9lgUnsrsWIA49mnXEXVmfttzBfnDr7uJSIznSfX1C08sIuJ2dxBZYg5v1NRQ82bOYIYvhOhHaKbPXlPkzVaHa6Gj5tR6ijMdFGdCV2MDDmJ0J+6gudPBGo6yW9tUl8WxVRfZrC2YYOekWc0iC2txWNdRbF0HLQ1c6F7o0dapxnQ2FzhYUoDnQkuIvPXRRVKzn+aECWi9SJNTi8ptnLB9n23ZWZzASZOtDab7OU9baGk+y68ey2LbS4vYBupCS1sQo7BzqxsSZ8SxCjgT0ncohAhzQQj3CnJNSK75TQw5b9bwHO+S8dOKcA9FiHFn+BdafMoh43gRS6aqt+hIQAyOeRfVL/+AiM8lIAoxXKR0mBBC6Mizz0IIoSNBUQghdCQoCiGETpgWWoIX6IuqAn03SzDfyeJ9XH/f9xJsm95j9LVNCDE6jbqgGCiADOQ7oX0FU18BKtBrrS9tm782/W0L1JYQYnQalqAYm7WU2b87zwXvygyzZrLqb+DCmze46+dcffAYbEDUt9Pf9v7aDfbbAvvbLsFQiLEh9EFx1ky+O93RNyACsT80cPfceb8B0Rd9MAnVNLS/bNFfYPY+J1CW6Ou4gQZ2IcTIC3lQ9Bv4AgTL/vj7vmdfv/vbpm8j2CDla7rtq49gA53WngRGIUavEAfFSGZ/5wZf+CgBOHlRNFyzDyhL9BYooPQ3Bfb1u6/XvtoMNI3vLzj761MCoxCjU0iD4uQfxTH5gt1HCbBIvrukh9+X3A9ld4PSX5Y4lIDlb+osQVCIsSOEQdF/4PMfLMMj0GpyoOP9vfZ3vD7THOhUWwgRHqELiqbpxP7nLS702fEgs+bCH345vFniQAJcoOwt2NtuAo0hmNt0JDgKMTqFKCg+yNwVEXz2S0ffXaZZPHarjfcH+V0C3tNd7X99LZwMpD2tzVDQj+npwqV97k+Um7eFGDtC85ifGviu9Ql8arD8zcDq9gdamAh0A7a/RQ9/wU8LZPqfUPDVVijbF0IMn1FdOizQVNPfNNjffYGBVo29+Vow6Y+/J1YkUxRibBnVQVEIIUaaVMkRQggdCYpCCKEjQVEIIXQkKAohhI4ERSGE0BmlQbGUTdZ6TGEexZ8ymrm/q5X7m8rCPBIhxEgZdZW3R48y/ntpB//fzqTR+pdDCDEMQhIUTRYHKzv2sL9Q/YL2tCryt8KxZ7No133xPYCj2sDb5aBkg8l0NsawZFmka1/zYgdrEpVjDVYHawBajrI7d4erL21/V6PaZ149xZkxXNi7iJo6iC25yOZlHZw0p2LTxlOwnC5X30Hq6uBbQ/pkhBBjTUiSINuxBphvJlZ9HbtqIVyx0g6YLEVEnzKw22xgt/koZF4kI00704iR/cq+vQ1Era7iq1zlOAd2TprV89SAGFtykZUde9S29mCfX8SmPKA8ld3VHSxZWwqUslofEAfrkTjklnQhJp7QTJ/rrNi35rM4DWrqclg8H+wHKoBSkhLBkOigOFM72Emn60Q7Z7Xssi6L/XWBOslh8fxIoqYWUWwtcm11laAoT+WkxUGxVck4PQJiv217+u9Nrfy/GQ1M+scNkikKMcGE6JpiBTWn1pO/KgcwY+ys1QUh+9CzNhena4rsb7+jZei9/NnbCTz4yBH++L+P8IAERiEmlNCtIZQ30TXfjGnVQro+3aFu3EFzi5GVJTmDaDCGWWn61xV8egV1itxXbMlF1lDL27m1XlN0lGuKVocy1Q7Wl20SDIWYgEK4sLqD5s7lrFnWQbNuMcOWe5SuZUUUWx3Kz/Eq17XHQG2daoQlBeo5FiUQthfu50L0Ondb2m07efXKwkruDmAHb1d3sKTAKzAKIUQQpEqOX2V8syuZb+1MkVtyhJhA5N+7X9v5s/Mx/D+5eVuICUVu3g7gWzVJPFgT7lEIIUaSZIpCCKEjQVEIIXRCMn2OnxM/oMWZb+5/E4puhRAi5CRTFEIIHQmKo1YZcZWtxGWFexxirCkrv87pF8M9irFrDAfFHDKO93+DdmzJRdfN3gN6omUosk5jKpHbeDQpJTt5r8Q4gDNSOWR9Dav2Y0lVNqdl897xbFIGPRIje4/vZO8gb+pPKdmJ1foztP8b5Vlewzqg8QTZf97PXO99YJ8b5O7qZB0zSfl5nz0cfO4D6p/7Jf8wZUBNTjjj/pac9sJF7EYpOZYU7sEMyHbaNm4P9yDCwMje409B9cuYB1LmbYTc7Yb4NKAuFROt2Iejk/I3MJcrQfjvBnJeSg/5j0/i6I8e7LPL/N2niL1SSurvfxOyYY5XYQuKSpCyY0g00tXYQNey5Ri6Gzj0bBbtefUUZ2p/IT0LSujrKYKTC4BWm7FZOy6vnuLFTa6SY37p+9H61vYNtAbjiiPM27KcCO319SbXrsklrcyNV37vse3h6j4Lk0taeeSm8rvr/GxwbN0A25pZYFJqTHbWJtBWpesn6zSmdPdnc21jCnf79K/bHlAqh6xP4Wqt+mU2u/4x2mlfZlL2ddsoefYwp0HJYjIT1M/MvT3P8hqZrv8urVSb36A8LZv3CkxMBmALVivAHc7v3UVBHUrm59qvntPvmCHV8hqFiV7n6Meley/0Gdsdzmu/+us/72dYF9/ifLSJpVPd+4iZQvsVOzNWGcH4Pfj0d5D5PeYBp/18lv77T+WQ9XvYPPr8Hebc+sBv3s/nD5D75D34eBr+/pS2OyUgBiOs02dDdAeHqu1ELVtI596jOKbGMCutivxM3LUUq2GN+ry0UvThqKue4oXuIXSeVkX+6g4Oqf0curKQzRbfxSb6V0bcloXcOpiAbWMCtlp3/jBpWzOP3NyjbN+4h1vGIuKy4G5NAxjNTNKOW7oQ7FZ6gd59Sdg2JnDtulc3K44wLx2ubVT7cQW+MuK2xPCltr0W5h444mrbN11GZlZ+Nusi0uRl07Gp26s7TazLQwkiq29Rom4vuWKkUJ3alue62zFXQ6YlFeoO82Pzy5Q03uFu40F1vxoQSeVQwXRq9ecczyYFOwWnWjFmvuYxVXWZamJBh9JWdUsC6dr0svwNd//mDyBTOTelZCeZfKBuP8h51/9n/PWvSjTCAfV9Nk5X+7nDzTPnuRmzlL2LwVbu4Ga3r8/yA8hUpsn++x+EAJ8/fIP5e3Dpwwd8njpvaoTP7aKvsE6fHaeyaKceWmqpqYNNBYAxhqiWJnepsfImHJnJzCKHWfPhwoF+sr8gxa5aSNTUSDZbHe6N+rJjA6nBmJVM9PVabOe8d+QSaYwkYkoRpkp3DchOgHNWbmXnE7kCOs/lEmmEW4ctAbuZtHQh2Pb3zQCzkonGSHRlq3vbnY7AY05bygJs/LOf1OxuY60rayvPfRmAlBIjk6dOodBqolA7UP3MUkp2UrhMd7Gq5XeB+8/7HkYSMFpfw1Vqs/uW2qEyfdSurWW2fODOoLpt/HOh8kfnascd0l3vR5/1AbRiw0jqfDh/wEf2Fah/gJZzavCG04W71GwYwE59RzaFMecoAPYCYGDG1FZsrs+yHlvLU5iMAfofhJRV/j9/v6a8yom0H9D+8VNs+TIkwxj3xv01xUBcX2cwrJy0HUyis0/AtND50XrmLc2lEzPTb9dytc8xA3D9KLbC4b8GebfxID8u9LqSlpbN3y2D83tfVgJJ3s+wLg6iMX2w86X8DczlqRyyrmBvWj0Ffg80snerCRoPYi60o01Nh9y/H1qQBCMwXbnGOEJ8fv6B3HmFZ96FLUs/4CASGIMx+laf7R10JSa7vskvtiQdQ3cHX1HBV52RGFflqNvzXd/7otDqL5ayKbP/Fbv2M5dg2Xr/3xg4kBqMrR30xCerWUoZca5rfhacdojL8LMSXdXEPaOZyUsXcu9y/wGtt72DCNN6XTbkbqczPp3oFf7OzOGNmhpq3tTVtay7QftUdVocpNNn7LAsve+UFoBbXK8DMLJ3dUKfvZNjDJ4byn+HPXFF/yuxaTODKDWnaP9CCRYpJSvUa3t2rndOYcEqo7o9W71GOID+XYzER/vb5+BmdwIm7YNJyyY98Q437QH6B9wBNZVDmX0/M2+BP/8HsP4OFj7p+8GIq909/bYvFKMvU6zL4tiqi2zWvrQKOyfNygJI+7EGVhYoX0fQ1XiUC93a5GkHpxrT2VzgYEmBkwuNdgwxyh6PhZlEB8WZWvVu7370X6o1QOc28GVGK3MrWwE712rtRC9QdvXu20/bgSJMlevUg/WLINu5fbuVuSY71za6m9MvzBDfSnS6mm1WpXA5tpkFrmmy1tZ22mqTMW1pJW6Lskdb0PGvns17Z/JewWtY1fmjfnHAp7rD/POqnRTqppzKOYepXfsamdbXyOQO5xtbIcZ92unCc6yzPoXV+hTuhZZ6Nld/D2vBa1jVFFDJggweCxZaH8rCjL+BKdchrZnKe7nbaMPOdADKj9lIL1AWee42fsD5bu0vh7/+B7OebKfggK3PZ6lMv/33f7RxBYUFr2EtUD4zo/qZeV6KUM7VPmffn7/yu+XDh8nf3kMZkX4XW0T/QlJPceajcfKYnxCjQO6uTopippCQ53lbjvm7vySfN3lGbsnp1+ibPgshBs2yM5qj3OjzRIv19x/QPn+H3LwdBMkUhRBCRzJFIYTQkaAohBA6YVt9nhM/Z0BT7vvf3B/G0QghhEIyRSGE0JGgKIQQOhMsKJayyVrv/ymWUWRyiVeB2RVHmOdd5MFjm1KU1qT9uLbnEn3A3/bmAE/BCDExjb4nWsTA3G6jlzLiKtfxsG0PNq+nWCaXFDHd3ne7EMK3sRcU/dVa9FuDMYeM40W656TtNPtqawj1FCdta2bBjFpdQYYy4iqTua0+zuernqJ2zD1bDHH62ono6iXGtxKdroz52sYm7m1JZhLQ6z2ArGSi7zRwWQKfEEM2tqbP3rUWtcAXoAajyVKE8coe9fijOPRthaieYu++WjpdBSFQS4k1cRf/9RQVRqazX9l3sIGHnzjCpKoUVy3FzlrvuokK19Q6IYYIYPICIz1qLcbJJZ7T5Ls1DWAqwlQpU2UhgjGmMsXYVQuhcb+71qLGbw3GUpIS7ZzN7VseLKT1FNnO7eutTMuCu1VKkOq8nELAeooA2PlSy+7ObQiydFgZ07DDgjK4DD03r8EM9967hQnY1CreHu2uOMK8La3EZTdweeuGvtmmEAIYY0Ex1EJZT/FuTQOPqCXCpk1r4IbrKwT81VMcqGvcu5POQ1lx3Lv8DixwV+3uvekkYsbcwKef28DVc7lEHyhiZhaeX3EghHAZU9Pn9i86iPJVA9FvDcZrdHYbSVIL0Jks69Cq+oW0niIolbSnJTM5K5mH1alsv/UU+/FwbG7fbQtioNWC82YMkbFwr92iTt/XBfF1qHN5ONhiAOZdVNfUUL1z1UCHLcSYNrYyxfJUDs32rrWYii1ADcaaU+spznRQnAmO6qM4EpOVtkJZTxFQAmA+C9Kh7aB7wSNwPUX/7tY0wBZt2q2c81+3i4ibdonL56CXDqZvWc69WoDttB2MY96WVkxaick7DSi33RQRpwuEPbY9XHVliZHE6WowelTvtrbR/vIPSPy2ETgz2A9FiDEnbFVy5DG/0W4Vu45sZ/7vy8jcJUFRTBxjK1MUIyP3DWqeTaTnvAREMfFIUBR9WX5GhtzyKCaoMbXQIoQQw63PNUUhhJjI+kyf5esIhBATmUyfhRBCZ3QGxRedtJbLLThCiJEXxqD4Q/4h7QPqn/uAg4947fp5JEe5QfMumWYLIUZWGIPib/j7uqdI/bgF44JXMXvt3Z43k47Hb3MkJSyDE0JMUOGfPt+55eeRtwd552NY+KRki0KIkTMKguJ12qdMZ56PXZYvJxH5vf+ib1kEIYQYHuEPiljY8u5v+YvnPuDEd3/oucv+AM7wDEoIMUGNgsf8cjn43F/w23ef4qD3LuM3RN58EHniTAgxUsKfKU6JJ/bOLa762JX7SC/ODu+4ncMbNTXUvJkzEqMTQkww4Q+Kft1n/eNw6cMHvLbbudUNzIhDyp8KIUIt/EFxynT3Fz7plJXfIObjaWw47b3nDG03gZttUvpUCBFyYbym+EP+IW0HfzkF7B//BKt+14tO1jGThJ1eWaJ5F9Uv/4CIz98l46eh+W4VIYTQC1vlbSGEGI3CP30WQohRRIKiEELoSFAUQggdCYoDlkPGcQf5JePjPsknzU9zInchT4Z7IEKMEmMuKMaWXAxNQFK/7L7Y9VOPaeit+mSyONiUF4qW4tj3Uhb7kuCF57M48XxcKBodEFe/SSs58dJKXhjxEQgxvEbBY35h1N3AoWezaEcJXGsspWpIsfgAACAASURBVNhyd/RzUgU1z4bzdiAnt78GHgtNax9a3+dDa//H6fXc6g5N50KMQuENinn1FGcald9dAaqUTcfj6OxczpJEACcX9i6ihiryC5YTBUARxdYi9766HDKO58OVDpYsU9rratzD/jNm8gtiOGtOxQYoU98iok8ZeNvuORTbp3bWrI4jFmjXjws7J7Xzddu7Gvewv1ALjn7GbNS1k+igONOrPdRgHO0OzsFqueWkByU4PWl+mhend0NCHBGtF2matojkyDZ+9fpZ3opdyOHsRUSo5/XY3ifb6kTJOlcyB8B5kX2WS3yoHvPC808z+1Y3yaY4r3N0vr5NjxNaBjBmIcaC8E2f06rIX93BIbOB3WYDh64sZLOlVNk3dTnGjj3K9kZYsrYU6rLYbzZwqNFJV6Oyb7d5ETV1WoORLIlpUrcfpWvZekx1WZxtMZKkTV3TzBhp4FR53+GYFhvpumKlPa2K/Ew4qY5rdzWsOV5FLEB5qjomH7V7fI1ZPf5kCziq1fZ0AXHg2tj2+vu82q5kePpAFZEA9Ycv0pOwiGkfv0+TcyqzY4H2S2S/XsUzr1fxzOvv8/vEJ3klVmurimcOX6SnTz+RJCfeZp+6H9P3XdPkt35RpfTbfolsXSAVYrwIW6YYu2ohUVMj2Wx1uDe60g47Z9UsrP2LDogJpkUnF45pU98dvK2V8v7UzprFpcAOYlctpOvUIndGNnW5u/+Wo+wurIC89US1NLkDV3kTjsxkZkE/mdxgxgy2XMMQgqRbj+0/eIt4Up0XOdEMf/W4tkeXEQLgpCmI9j7/WA147d3cYFoIRijE2BDW6bPnFFRTGtpOyt/hwvH1mMhhVswlThXq9nUPfNo61rzw/ErmtJ7lmV+0AZG8kivrzEIEErbpc/uZS7Bs/aBWfKNi5g7g6Ao+vRJDUomZ6A5r/wHQ3kFXYrJrXLEl6Ri6O/hqEOPUi5rte8XcZHFQrE3Ph4lrYSTp+yRHDl8/q3ZWU1NTzS7vL9wRYgwJX6ZYl8WxVRfZbHWwRt3kqDbwto/rfXrthbU4rOsotq7DvdDSzzlnLhFVsBD73qxBjMvOSbOSTcaWXGTzMi2qKIs9wYzZdqyBlQXa4pDnQstwe+uji6RmP80JE9B6kSbnVGWH1wLMtpcWsc2VUQ7OmS/b2U4i0xOBAa5oCzFaTIyCEHn1FC9uYne/t9uIITHvovrl+Vx5LZOdEhTFGDW+71PUbqHpbuDQsxIQh1POmzU8N6eHTyQgijFuYmSKQggRpDH3mJ8QQgwnCYpCCKEjQVEIIXQkKAohhI4ERSGE0AnfLTlpVeRvhWODeMzO4ybqlqO6+w9L2WRdhwEI9sbukZC7q5Oix/8vAM6PHyXJ+1sKhRCjxhi8T7GU1cs6OGle1OepkNiSdKIa9yiFHUYZCYZCjA1hD4qLLQ61BqH2+Fspm6zJNOtrGOqfRkmLI8rPs8izYiLp+tQ7ICo1FJeoT7e5H8tT+ulsjGGJmnW69nnUU/TOOJVsNMpnMQshxFgX3qA4dTnRpwzszlWnxJZSbLn+DtZPjVFLfikB69NVuum0VsxVnVabLEpR2d2uQHiRDLsW5IwY2cNuc4U6na8ittzK4tUxXNhrGBVTbyHEyApvUOx2F3xtP3OJrq1xxOKvIMEO3jbv8H0tsm4Ru1EqziR9qi/QUEpSIhhcVa8BnHS62nTXQKQui/1qEPyqs4g1BQ6ijb6KPajjEEKMS2GfPrsYY4jqbBqG2oYDr0qjFX41WRwUW4Or3iOEGB9GzS05psVGujquqa9imJUGUMom17W9wdhBc4uRlYP89j9brvLVA561EEvZZB0/X3EqhPAU9muKfb4OADjVmM7mAgdLCpxcaLRjCLK0vy+23KMkWbVahgRRbdvz2qWSacqCihAThVTJGQG5uzrJZ5rckiPEGDBqps/jXeTjf6D119dp3jWx/iAIMdaMnoWWccyyMxpLuAchhAiKZIpCCKEjQVEIIXTCNn2eEz9nQIsz97+5P4yjEUIIhWSKQgihI0FRCCF0xmZQfORfqH/uA+rTXsUc7rEIIcaVMXhLzg/5hwWx/HvdU/z9nXCPRQgx3ozNTJF2rktAFEIMgzEYFI1MnxLuMQghxqsxFRTN3/0l9c/9Bb999yccDPdghBDj0pgKitbf/w2p7/6Wv3juX9gS7sEIIcalMRUUFXZuyfVEIcQwGYNBUQghhs8YDYqxxMtiixBiGIzBoPgb/v5yO3+ZJjdvCyFCbwzevA18+RNS3w33IIQQ49EYzBSFEGL4SFAUQgidMTN9nv2d7wz4C7X+1Ns7TKMRQoxXkikKIYSOBMUxJ4eM4w7yS3LCPRDRRxlxla3EZYV7HGIoJCgOu1I2WR0Uaz+WUveutCryj1cRG+ou8+o9+wmjSduambctd0DHm0rKPDdmncZ04AiTRmgM/bVlqmxVf5qJXhGSZsUoMmauKY5NOWQcXwfVBnaXh6rNCmqerQhVY6NO7/lL9GxJZjJwV902eYGRHvs7hP0KcdZpFhgvcXnjBj9j2U7bxu0jPCgRauM/KObVU5xpdL10VBt4uxyUDC6ZzsYYliyL1O3LIeN4PlzpYMky5byuxj3sL6xQMruC5USpbWnbY0susjmmlt25O5QdaVXkF8Rw1vyOn0HlkHG8iCVTlVebrY4+7a3lEl3LlmMA6G7g0LNZtOvei2tMGq+x0dLk2mWyOFiTiM/zTBYHa6LV9oP6QMuIq1xHtPqqszaBtqoy4iqTub0xRQlkWacxLWjCVqgFCDNxlUXKOdePurevOMK8LcuJAMDOtY0p3D1n5VZ2EdOy4G6V0t+0eCe3atRvzs46jSld/e95p4HLW5UANWlbMwYucc+0XOnnTgOXD4PB1X4RpsoiwEnbwSQ6z/npX31/D9v2cHWfxXXMvdoE2gJ8KpO2NbPAFKn7TPpux6Mff/2LcBv/0+fyVHabDerPUcisx+TaacTIfmXf3gaiVmtT2UiWxDS5zulatl45py6L/a629mCfn09GGrQX1uJITHa1G7tqITS+g40Kak7ZMWQ6KLbq+62g5lmlz67uBg6pbeqDVdSyGJrV7Sc7l7M6z/1eDjU6vd5kKZsKFmLfq46t2u7aE1tykZUde3RjLmJT3mA/zFyiD6yD2gRsG5Uf7R9/IBGmGG5vTMC2cQ9t09ap19zKiNsSw5dqO7ZamHvgCJOw4LQ7iV6gTqGzkom+cwmnFsSe6OCyes5l+0IW6Kba7n4SuHZ7OTMTNnB1YwKXbU56bHvUMasB0W//22nbeJR7pvVMBiZnqAGxCqh6hzaWs6Cytc90vHdfktLvdXxut6nj6KzVAp+//kW4jf9M0TuDwk6z7vezWiCqy2J/HUAO4OTCMTXrYwdvu54lLGWTdZ2SvYFynHpMc4uDpDywleeweH4HZ7UpbnmqMnXOq6fY6mBNy1F3RhlAV+M72NTfbbkG1+8+5SVjaKnl7TrvHTksnh9J1NQiiq1Frq0O3RH9tq23wsx0GnAEEQj1emzvqIHAgtOez/TYXCXYYSS6stV94J0OwHMK3Rsb45o6T1q6kIgpkSzQn3PdVz9wtzAhcNYVoH/YTlvtaUyVrUpm63q/Fjq3Wugkl+gDRZgq891ZZ3+yTmNgP1e1tgL2L8JpnAfFHDK2LofGPewurECbMg+WybIOgyuoqdNsle1YAyvXlkJaHNFX3qHG++TyVHaXl7LJmk5G2g5q+gSw4eLkwt5FI9hfYJNmRHLvsgVY7zmV1jtn5VZ2Pg+tyOUhI9w6bHHt6tGmtaHgr3+tr+t2P3uU4Ojc1syCjDI6z/V3HbGMuCc6cGz1Gnc//YvwGP/TZ6DrCyVriy1J12V5g2yr45ryS9561zVBAOqs2KOTyVgVQ+cZPwshaXG6jFU1NYZZQxwT9g66XNP3Uja5rqFW8OkVWLLW/0q0yeKgONgV8HNt3JuynJk+bzmJ4aEVAGXEpRt9HYB2ffBeK1DVRGd8up/VWwtOO0zPWM901KkzSgaJOq0dqIgZcz03BOp/xRHmpcOXhSl8yTq/K9eTZkT63O5tckk69w57Lc4EfP8AObxRU0PNm3Lr1Ugb55liBTWn1lOc6aA4E7oaG3AQM+jWbMcaWFmgTkVbGrjQrW+rgk+v5LN5/iUOFWrbvKfbymKOK2ury+LsWgdrrA7W4GPxxEtsyUU2L9P+ISrjUBaH9O3YOVltx7BYOaq9cD8XjhdRbF2nnmfnpDk1+Cmzh+20HYxj3pZWTOnKFmVRYTs3bOks2NJK3BYnbTY7zHCfFWHSFjmU45Xp5nbaapMxbWklTi2jrs8Ce89fgi3LwaZbdT63AcfSZo/ps35Rw5/efbV0Vq7DVLkO90KLv/7nEqcurNwFKDzKvcoi5m0DB/meiyZ3Gri8Vcn0Jpe0Mjde3R7fSnS62k/CaebGR4KuH+0zC/T+wc6tbkicEccq4EzgtyhC6Fvx8fF/0m+YM2f2gB+nm/lo3IDO+eb+N8yJnzOgc74d/8iof8zPZHGQ9Km2ui3E0OS8WcNzvEvGT8fvLVij0TjPFEeGdstLV+Me9ktAFENl3kX1yz8g4nMJiOEgQTEEBrSCK0R/rDvJtIZ7EBPXhFhoEUKIYElQFEIIHQmKQgihI0FRCCF0JCiGUl691zPOQoixZmIHRb/1DEvZFKLgZrI4BlWAYbDnhcp/b2rl/i7l55vBPxkpxJgjt+SEklb8YZz48/cSeKCp/+OEGE/Gf1D0WU/Rfz3DszFFrtqDBvXxO7QiEHn1FC/u4EL0cvVc7ZE5fXs+HqObXUW+VanU41GbcSscU+sYKjUU97P/i/Xu8SYqjyfq2/RbG9HjfXoXgVAeN4zq5zFCIcRECIoe2Zs6LS5PpebZCmq8ApOiAptaTafZ1zPCiQthr4HddWogK8nBVqhUw67xU4XHMB8OmQ20U8omaz4ZaRV9q+h4jdfXI4Ou2oi5FWiFajflVShBfnUMF/YaRk01HCHGqvEfFAPWUxyEllpX4GkvXMT+IE5xnNKC7g6aW9aRZAT8VaXyK1BtxAq+6ixiTYGDaKOvZ6938La5/xqOQohxHxRDW08xFOOZFe2kc8ABUeO/NqL2qKHJ4qDYqv/aBSHEQEyI1eeA9RT91jOMYVZaiAeSZsY4tYOvtKCm9Z1WxdplfWvzRc3W19LrvzYiKMHxUKPT61zlGwXla1GF6N84zxT7qafot57hDk41prO5wMGSAtwLLX551k00WB2sUb9sClC+oyUTtEzP1qdvOxcanehLs3rUbtQWWvzWRvSu22jnpFkWVIQYDKmnKHz6702t/Omy3JIjJp4JMX0Wg/PHH8vN22LiGefTZzFYf/Z2Ag+GexBChIFkikIIodPnmqIQQkxkfabP42mh5dGYGL7+emDn3L8vfyOEmMhk+iyEEDoSFIUQQkeCol/fcOTYdVp/fZ3TL4Z7LEKIkSK35PjzYg/Lb84kYa3cmCLERCKZYgDODvmbIcREI0HRj9xH5BFBISYiSYX6uM/pX98g5uNHSdr5QLgHI4QYYZIp9vEgKT+KZz+3ad71TbgHI4QYYRIU/bB8OSncQxBChIEERSGE0JGgGEBkzB/DPQQhxAiToOjPzyNomHFDbt4WYoKR1We/HmDD2vhwD0IIMcIkUxRCCB3JFL3Ez4kfcImyb+7LrTtCjBeSKQohhI4ERTECcsg4Lt87LcYGCYrDzGRxsClvKC2Usslaj2mwp6dVkX+8itihDCEoQxznMEr/xzLKTyg/2/823KMRo51cUxQjoIKaZyvC0vNjha/wY35N3jOngRS2n3iFv/38Vf71TFiGI8YACYqhkldPcaZRfeHkwt5F1NSpL2dXkW9dThTQ1biH/YUVKFPKIpZMVY/pbuDQs1m0Q9992GlWfzNZHKxJVH73bCsfrnSwZJnRa59/sSUX2bws0kf//vb5HvMs3ZgMVgdrAFqOsjt3h8fn4j0mf/2bLBeZ1eH/vZgsDtZEe47Xt0RWPAaf/Otp5eWqmcxgCjNWJMKZloBniolLgmJI5JCxOoYLew3uQKhjWBbDSbMBW1oV+QXrMVGBTc2eatRjYksusrYkh/2FFZgsRRiv7GF3YQXKtDTZdczKjj3sznUH1U15FbxdDhDJkphadptT1XO0fvzIq2fz/EscMiuBJbbkIpstpa5Apt/n5mfMuQZs6jibzamefZansrtcPTbY/olkyfxLHDKn0u7xmQ2UgejIWzSfAf72J5T/GD755A6PDbgdMZFIUAyJCr7qLGJNgYNoo0ENUm6OajVQ1LXRVRDj2q7P+gC6GgFKSUq0czbXO8vLYfH8SKKmFlFsLXK37frNyYVjO9Tfd/C2OfCIY2fH0HXlHVfQaz9zia6tccQCsxYbcZxK9ZmF+R7zwAXqH8BxSg3IXp8ZgC3XMLAA+bc/oXzVbf7pmSoofEWCoghIgmKIaP9QTRYHxVZwVPcNjh7y6lmTaOekmln1yaR88pqWj7RBjTmcHHQ6f8SPV/2Wf9pUxWdAevQU6Az3uMRoJqvPIWbLNXCo0UnU7CBuP+nu4CsASlmtXVvjGp3dRpLUFWuTZR0GACr49AosWVsaknG2f9FB1HyzKzMzrV1OVGcb7cBXHU4Mq/2sWPscsyaGWWlD778/JouD4qBW1Fs499kdnJ+d5zOAVVms+s4dPjvnvp64amc1NTXV7OonsxYTh2SKIVHKJqsWvADsnDT3s9pa/g4XVhex2eoA7FxodBIFQAU1p9ZTnOmgOBMc1UdxJCrXFNsL93PheBHF1nW6flL7n0pOXa72o1Cy2FROLna4t3c3cOjZHWo/izhp8d6XRbvfMQPs4FRjOpsLHCwpwLXQ4rGYgjL176//UPqspIrP3n6R8hPK6/98b7vHyvOZL9vZTiLTEwFryLsXY9C34uPj/6TfMGfO7AE/5jbz0bgBnfPN/W+YEz9nQOd8O/6RAY/r0ZgYvv56eN8LyGN+Y5p5F9Uvz+fKa5nslKAokExRTGA5b9bw3JwePpGAKHQkKIoJq+KnGYTnlnIxmslCixBC6EhQFEIIHQmKQgihI0FRCCF0JCiKcaSMuMpW4rIGcErWaUyVp5k8bGMSY42sPo8Q39VtUOodFixXb4IO8mZsn/wUZBgRZcRVJnN7Ywp3B3TOOqJdr520HUyi81zoRzdpWzMG9nN1nyX0jbt4vp/O2gTaqjzHsMCk3sR+/Si2wu0+zhvaZzC5pJVplz37FQMnQXEkpFWxMrrBR9UZ5fG2rmoD+wM9Jz1u2bmmBtJJ25pZkH0E57kN9A66ve20bdze/2F6VSnYhhxEcok+sI6HbXuw7bPAiiPM29JMdKsW4MqYaerg2sakPn80Jm1Ld58nRgUJiqHiUU/RK+MzxhDV2eTjud4cZkU76bR7b/d8bFCfWfrKOE2B6hnq2osKosaixiOzudPA5a0b6F1xhHnZ4NiqBC53BqYc9tC2ZuaaIvHOeCaXtDJX/bbYHtsenxlb7/lL9JhimAT0Bsi6PMblHVTV7a7jVxxh3pblRABQhKmySDe2XKIPFBE3xbMdhZ/+VxxhXgbcmrbc87wVZqbTgEN7X+c24FjajGFpLp3nLLAijofvdHDD1+c8I5J7l70/D/3Y8Mwss05jSjd6/nfRb4tvJTrd13sSwZKgGAppVeRnotRMBCVAHq/iqwOw1jU1NqrPLCsBE30JLvV5YS3IxZakE9Wo1VN081tPMVA9w8HIOs0C4yUubxxI1mZkOnuwbbQo/3DVrI9tzTxycw+2Qguuf+xZlj5TvElLFxJxvZa7atZFbYKawZURV6llXf4zrt59SdhQp5DaxnMbuHrO3/TZQudWC53q1N8tQP8A8ct5WN03uaSVR7blcrU9hojbTR6fVW97BxELsoirLHIF1wWVrWhB2blUF9y1QKYFv6z1xN0+im2rV9a74gjznujg8sYU1x+lBSVl2ApTXOOR6fPQSVAMBWMMUS1N7mBU3oQjM5lZdansr0MJkoubdJkbkGvAplXMPuBZDqz9iw6iMosotszVndNfPcVAdvC2OfhiC5MXGOn8KGWA01g7X2pBp6qJzvRkJpHLQ8ZIIqZoWZrCXbnLyNzKVuXXOw1c3rodKOPhKXZuu/5hb+f29XVMSwDOXePenXXMrWwetuuPMNd//63KOG+o+3pvOvtp6xPaNv6QNq8MG4BzuiDuHchaO+hJX4fpQJySCaqbJy1dSMSUSDW4qq4P5b0KXyQojkZqtWry6im2OtSp8DXCXk8xWLrp4kMBFw8GOsXTsrtcog+0YtoyfIszA9LaQc8TcerUXzEpNoaem9cG156a4bLiCPMqW4lQp8ng//KDCB25JScU7B10JSa7vskutiQdg6vu4BCUp7J7bwNd0XHEBlVP0V89w1I2WYP/itHem06inzjCJF87pyjX/VhxBIPJu56iYtLShUTcbqMXC047xGWUBdWv4hr37hiZpt1Ws+IIj8Q7udeqP8ZC59YErl2P5OGE4FqNmDE3hP17OWflFsuZqTvHYIJb54cYvM5t4OrGo3Sqn3nv+UtgWh/w9qGHY3N9bs95s4aamjeQL5ntn2SKoVCXxbFVF9msLXJg56SPleZgeZf8d1QblLYC1lP0Xc9wMHr3JXGtpNU9TdMu6J/bwJcZreqU106bzcl011m+psLQu28/bQeKMFW6xxw4O7TQedjMvC2tmNKVLZ21CUo26LFwovajTjv1iznKNTp3Ftm7r5bOynXqGLTtnosp0ZWtrvfpv/9gxzy0DNZzMUnJDtvAtYCjnz7rF6Hu1jTAFu1ShefnbP+6B+bEEmdG6kb2Q+opepF6imJcyn2Dmmfh3YyfSWWgfkimKMS4topdR7bzg6ktEhCDJEFRiHHtDDs3nOn/MOEiCy1CCKEjQVEIIXQkKAohhI4ERSGE0JGgKIQQOrL6HFL66jYj/UheCAtCxC7kcLaB3x/+ENY8zXdb3ifb6vTav0i9ibqNX73+H8zOfZrkSO31Wd4a4hBeeD6LpM+q2Nas3xrHvpdWMkd72XqWZ37R5mOfk6bD7/NqUHfPR/JK7tMkR+rG3d/7F+OaBMUQ8lfdZmzq5ot2mO1jzwtPLOLGKa+AZalCCUwGH2eEShvbXtcqJyjBbF+SMo4nzd+HU1U80wxPmp9m25qFPGm5xIf9tPik+UmSb7fxeZ8nFv2/fzG+SVAMoVkxkXR96h0QPWsjOqoNvF2ubU+mszGGJcsi3fvsVeRvjaELI4apdi6o+137XKXIhreeosLJF7dh2tf6LCmS2dOc3P462Da0TEx51WNzZ10vPJ/FX7ueXVYztaSVnFgdp2xKyOLEat0+j3anMi3SPY4Pre+7AuCHVxy8mKjr+7aWUSrZ5ExtDLELedHUza9ed5DkM5j7ev9ivJOgGAKxJRfZrAY2Eh0UZ+KqbJNxfB1UG5SqN5SyyXqRDLs2rTZiZA+7zRVKTcatVcTagalGqN7DhdVFLIk5yqHGdNbOzoHyLKUUGYBadiwjrYKaUNdTbL9E9uvq779w17TyCGLZWZzAM8j58sLzyvTzGasTV3b3tZLdvfWLKnegS1rJiefjeOsXZ3mm2d/0GY+pe4/tfbb5mCI/Od9AxO3/4EOcfGh5n1dyn+SV2Db+z/zvuwMikbyyRsl43yKOfUG8fzExSFAMgfbCRexGKeSQ9KmWCQKUEj3VTrPr9Q6aW9aRZATqAOyc1TK3OjXgpVVBdwOnymHxaicXju2AVemu9vRZJzi5ENQIB1ZP0R8liEXySu6TcDKYa3ZKVvn7j7Sg6eT/tDh58dtKde4nzU+zTV9ppzWI6pDtl8h+/RJagD2MV1BOWsk2Uze/el271ujk1ZMODmdnkey8yD6LcqwybVYCsBB6EhTHEJNlHQbXtFgtUDtWxS7kRRM0Ha5SgmvSSk48NpAGlACbPH0qoAbFpJWcWD2VpsPv913oaW3jc1dJ7kj+KjESIldy4iX3IXNeyiLJ+1qpmHDklpxhdY3ObiNJeerLtCpWJvr6TpbgdXWohUvz1rNkqvfe0NRTDB0nX9yO5LvztWwwjmdMkdxwXaNTFjMgklcej+tz9sxv+67XqFAC2+efqRlh7EIOqwHRM4ONY1+2gd9/dJYTLQa2PR8HOHnVUsUzr2s/Z/mcNn71enABUWoTjm+SKQ6rCmoOmMkvUK8zoiymDPY2HduxBlYWqF9H0NLAhe4Y3d7Q1VMcOM9bZea8lMVfOy+yz3KJt35xlqSXnuaEWoG3x/Y+2c0Al6hvzeKvX8rir3HSZGtDV5yRtz66SGq2dp660OJxKxB87srqlOuDEUCyeq1T2f8+tx9XFla2tQPtH/JXuU9z4nn9rTwDJ7UJxzepp+hF6imKfkltwnFNMkUhgia1CScCCYpCBE1qE04EstAihBA6EhSFEEJHps9ern8u3y4uxEQmmaIQQuhIUBRCCB0Jij6UlV+n9dfXad4l9x8KMdFIUPRhe148CWUz4PEeysI9GCHEiJKg6M/pP6cj3GMQQow4CYp+/Tkd3b3EpYR7HEKIkSRB0a8H2LB2Grx4ndby++EejBBihMh9in59w5Fjt+Hn8SScDvdYhBAjRTJFv/5IzNRJtPUJiDm8UVNDzZtSTU+I8UiC4oDZudUNzIhjVbiHIoQIOQmK/qT8kRifO87QdhO42YbUSxFi/JFrij6UlV9n3Rxwfvwo2/U7zLuofvkHRHz+Lhk/lWp6QoxHEhR92J4X7xkMNdadZEr5eSHGNZk+CyGEjgRFIYTQkaAohBA6EhSFEEJHgqIQQuhIUPTrG44cU+oqnn4x3GMRQowUuSXHnxd7WH5zJglrHwz3SIQQI0gyxQCcHfI3Q4iJRoKiH7mP9IZ7CEKIMJBUqI/7nP71DWI+fpSknQ+EezBCiBEmmWIfD5Lyo3j2c1u+uEqICUiCoh+WLyeFewhCiDCQNkZahwAAEydJREFUoCiEEDoSFAOIjPljuIcghBhhEhT9+XkEDTNuyM3bQkwwsvrs1wNsWBsf7kEIIUaYZIpCCKHzrfj4+D+FexBCCDFa9Jk+z5kzmz/84Q8DamTmo3EDOueb+98wJ37OgM75dvwjAx7XozExfP318L4XUN6PEGJ8kOmzEELoSFAUIyCHjOMO8ktywj0QIfolQXGYmSwONuUNpYVSNlnrMQ329LQq8o9XETuUIQRliOMcRo8VvkL5iTLK/zEl3EMRY4DckiNGQAU1z4bne7LT/7GMVZ0/558+yeJ/RYdlCGKMkaAYKnn1FGca1RdOLuxdRE2d+nJ2FfnW5UQBXY172F9YgTKlLGLJVPWY7gYOPZtFO/Tdh51m9TeTxcGaROV3z7by4UoHS5YZvfb5F1tykc3LIn3072+f7zHP0o3JYHWwBqDlKLtzd3h8Lt5j8te/yXKRWR3+34vJ4mBNtOd4/an939upBR4r7OdAIVQSFEMih4zVMVzYa3AHQh3DshhOmg3Y0qrIL1iPiQpsavZUox4TW3KRtSU57C+swGQpwnhlD7sLK1CmpcmuY1Z27GF3rjuobsqr4O1ygEiWxNSy25yqnqP140dePZvnX+KQWQkssSUX2WwpdQUy/T43P2PONWBTx9lsTvXsszyV3eXqscH2TyRL5l/ikDmVdo/PTIjhJ0ExJCr4qrOINQUOoo0GNUi5OarVQFHXRldBjGu7PusD6GoEKCUp0c7ZXO8sL4fF8yOJmlpEsbXI3bbrNycXju1Qf9/B2+bAI46dHUPXlXdcQa/9zCW6tsYRC8xabMRxKtVnFuZ7zAMXqH8Axyk1IHt9ZgC2XIMESDFsJCiGiPYP1WRxUGwFR3Xf4Oghr541iXZOqplVn0zKJ69p+Ugb1JiFGFtk9TnEbLkGDjU6iZodxO0n3R18BUApq7Vra1yjs9tIkrpibbKswwBABZ9egSVrS0MyzvYvOoiab3ZlZqa1y4nqbKMd+KrDiWG1nxVrn2PWxDArbej998dkcVAcohX1VTurqampZlc/mbWYOCRTDIlSNlm14AVg56S5n9XW8ne4sLqIzVYHYOdCo5MoACqoObWe4kwHxZngqD6KI1G5ptheuJ8Lx4sotq7T9ZPa/1Ry6nK1H4WSxaZycrHDvb27gUPP7lD7WcRJi/e+LNr9jhlgB6ca09lc4GBJAa6FFo/FFJSpf3/9h9Jjha/wv34wRX31I8pP/Ij/fG87Zf+qbDnzZTvbSWR6ImANefdiDOrz7LM85ieP+U0o5l1UvzyfK69lslOCokAyRTGB5bxZw3NzevhEAqLQkaAoJqyKn2YQnlvKxWgmCy1CCKEjQVEIIXQkKAohhI4ERSGE0JGgOEKUJ12UH4+6gmlV5Fu1fUMpvRXO0l1lxFWeZvJATsk6jamkrE8b07Y1e21Xjz1whEnApG3NmCpblR91m97kklbX/nnbcl3bPc7zbn8gVhxhno9+xfghq88jIa2KldENPgosKE9ydFUb2B/okcAJ5P+dv0TPlmQmA3fVbZMXGOmxv0Nv1mlMpg6ubUziLkoAXFBShq1wu3LgiiM8Mq2Byxs30OvRahkzdecJEYgExVDxKB3m9aSJMYaoziYfj7DlMCvaSafde7vnEzL60lm+SoeZApXu0rUXFUQ5Mc2kbc0sMKlPotxp4PLWDfSuOMK8bHBsVYLOpG3NGNjP1X3KYQ9ta2auKRJw0nYwic5zyvbJJa3MVb8ttse2h6v7LP47PmflVnYR07LgbhVAGdPindyqsTA5o4jO2gRXYLtbeJTOSl0ATYgh4naTV0AEVsTx8J0ObnhvzzqNKd1d7s095lyiDxQRpz4I01mbQFuV57YFla3BvR8x5khQDIW0KvIzUcqDgRIgj1fx1QFYW7BcfRTOqD6epwRM9NVm1EfjtCAXW5JOVKNWOszNb+mwQKW7BiPrNAuMl3xkXIEYmc4ebBstSrDJPoLz3AbY1swjN/dgK7TgCjZZFtr8tmPBac8nbkEZbWyHrGSi71zi8rlcIrOd3GvVH3uNe3fSeeiFIzxiXk6EOg5TpfI5X9vYxLTKdWi1ZZVApgW/XKKfiKHtYIIreGsmlxTx8EcJ2NSgHFfZTHRrEp1bLXR6/WEQ448ExVAwxhDV0uQORuVNODKTmVWXyv46lCC5uEmXuQG5BmxacdgDnpVv2r/oICqziGLLXN05/ZUOC2QHb5uDf6548gIjnR+lDPAfvZ0vtYypqonO9GQmkctDxkgiphRhqnSPubOflnp1U+je2Bhl6hzohKsbuPoWSjBe0OSeTgN3N26nzWcgs/Bft4uYu6WVhxMSaKvStpcxLR6i41uJTte2OQMEcTHeSFAcjdTCrOTVU2x1qFPha4S9dFiwdNPVh7ym0i5ZAc4/Z+VWdj4PrcjlISPcOqwE2/+6XcS0BMDV1lwentLBbe+2g3S3MAEb2uKMNk0GJctMkeuPE5SsPoeCvYOuxGTXym9sSToGV4mtIShPZffeBrqi44gNqnSYv9JdpWzyXvUOoPemk+gn/KywTolRtq84gsHkXTpMMWnpQiJut9GLBacd4jJ8rPa2dtATn+xasZ60LZ3o601qIFLOm56xnulcwqkGvbuX7R7jmlyyTnfO4N0tTOCyzcnDsbnAdm5fN/KIbuW6D+0z8GbeRXVNDdU7Vw1xRCKcJFMMhbosjq26yGZtkQM7J32sNAfLu7q1o9qgtBWwdJjv0l2D0bsviWslra7FBNdCy7kNfJnRytzKVsBOm83JdNdZRnW7dvx2ta39tB0oUq/zKWO+tjGFu+c24Fja7O4DO9c2uqe9vecvwZblYPv/27v/mKjvO47jL2O3JtMe1VbElgMGZDFO7BwaXTKoxWpbQiN1WFdIlpjInN3apNjQNJaR88eSkuH+0M5sNDHZAsbCHG3JZbWWWXCtZFhXMZudh5UfdihW5CZbWCTdH9+783vHHRz4lS93PB+JCff9cN/v58sfL9+f7/d77zMtnevW6sK3TfPqPhK0VJ6YKjlN1xuN4xsV6c2dR/Tf35uW/P7zl6Sgv0HIjZbmHvW9vFIZCzIlnZjkvGA3WoeFoHUYJm+NXIfLteR8lTa5CMVYRaUIWKF0v9zPZGiojUCMdYQiYIWaF5TP44pxgRstAGBCKAKACaEIACaEIgCYEIoAYMLdZ0uZu9tM9UfyLGwIkbRUtSVpOl/bIj1doMWdTSpp9oaML/M1YOjR29WfKrm0QNkO/+tWHbrDKWwpKlbWZ3Uq6zBvdWrfjhyl+192taqwoSfMmFena5u0e7yn57Ny1LjeafzsPat9NefUEji/Mc4fcY1QtFCk7jaxaVC9fVJymJEt31+mK8dCAqumTkYwpYV5h1V6VFbt79zgUEVpgfZlGfPIzXtEOlanwg4pN69AZU8vVa4/5MJyqGK19HZ1nQ759rUtr1stgfCLfP6Ib4SihRYlOnTjk9BADO6NeKk+Tb876N+erWsfJ2rF9xy3xzx1evH5RN1QptISPGr3jQfGAq3I7m4/RYNXvQPSvH5zleRQ8jyvBvqj3YcRONm+j0kPnblddW0pKtaGVP/v+SpMc/WWWqzG9aaxoP0maJ7j9jxampsCAdjy90valmE69oC/ojSqyYW+OeyuaQ2c54edXi2O6vwR7whFCyTtPasf+4JNGZf0800KdLbJ/+NmqT7N6Hqj1/Wj5rPK9/iX1ZnK1B7tynvT6Mn4fJ2SPJISMqX6PWpf/5pWJB7Rbz9+Ss8mb5UOFhutyCTJ13Ysf92bclvdT7HvnEqqfT83BHpqBYdYSbEaFRxy4WwpMpafhc1eBaq7fqO6O9RQdzvosnLUWOTUoYZWFXZEWj4raOk+dKZJZWGWyLlL0jRn4FO1yKuWmiZVlOaqIqlHHy55JBCIwRx6NMOhK6e8Y54/ZgZC0QJ9O5dpl4xGDlmf+CtBSXpdDyZ41BF4/Yo6OjcrK1PS+5LkUau/cnvfF3jr6qTBj3TsoPTd9V61v/WKtOapwP7MVafkVXtUM5xYP8VIjBBzqKI0V3o3imt2vqry/El/CBkV2bYFRnfu3LwClZk77XRF0R2y75xKqs/JH7C1Cgm5rByVLR/U29X+a41e7X73kmpLipXtPat9NaMDfEuRr5oMDWDMSNx9jiHLazYrrfOIduWlaVfeHrUP2j2jO5C0VNuWS6dr61RYXafCYxNt42oE7Jz5Cbc3ZeWocX2CTteGudHT1aOLYfaypahYG+ad1b4G2sjCQCjeVRd0bTBTWdt9L9fVKScj3HeyRO/G1QvGD9t/qBUJoaPW9FO0jle9Aw4tXuKvBp0qXO7Qlf7gmxnGTQ/nqHcvXBC+X6PBWPJe/MwXZklLVbs+IcxdZ6f2laTp/MlWNXamqazo9nFy8wqMQBzzhsxoWw+45Xbv11T/NTE1WD7fVW/K/es8vfiq7zqjjJspk31M58xbHynnVd/XEXR+pPbBRNOodf0UJy74UZn0HcXa4HvE5VBDq7J2FKjR14F36EyTSjok6ZyOdxVrw45ibZBXp8/0yNScUYdOntXjJf73+W60BD0KJF0M3AF3qOJpY3u271qnMd6kgdXGjZWyPkl9LXq0tECNRa0qPJmgbcsdkpapbMcylcl0nHHO1tM/JKUnyZknqfmO/nCYhuinGIJ+ihhX6X65n5GO5r+geHj4CsGoFIGoGU1kVyZ0EohxjFAEonZClc/RQDbecaMFAEwIRQAwYfkcovtit91TAGAjKkUAMCEUAcCEUAyj6mC3ut7rVoeL5w+BmYZQDKN8e4pSqx6QVg+pyu7JAJhShGIkH9yjq3bPAcCUIxQjukdXB/8n51q75wFgKhGKEc3Wc8/Ok7Z1q+vgsN2TATBFeE4xohEdfmtA+k2KUj+wey4ApgqVYkS3lJjwdfWMCsSt2u92y32AbnpAPCIUJ8yj64OSHnBqjd1TAWA5QjGStbeUGHbghHq+lPRlj+iXAsQfrimGUXWwW5vTJe+ph1VuHshzqf7llZpz8ajyf0Y3PSAeEYphlG9PCQ5Dv+ZKbaL9PBDXWD4DgAmhCAAmcb187u3ttXsKAGIMlSIAmBCKAGAS18tnQ5VGXJt1S5Lk0dcq1/I/AYCIZkA+lGt2ZarurTwyE/4HAHCHZkAoAkD0CEUAMCEUAcCEUAQAkxkfilsPuOV27xfdEQFIhKI8/UOSkuTMs3smAKaDGR+KJ77ok9SnHrrfANBMfHg7sH2NXIfLtTKhU0fzXxDdEQFIMyIUyzW7slyzR20/ocrn6J0NINiMXz4DgBmhCAAmMbN87v38c7unAGAGoFIEABNCEQBMYisU79utxo1/0vGNb+gnds8FQFyKrVD8d4UKjz6phssZenLxY3bPBkAciq1Q9Pnn4JDdUwAQp2IyFJu9fZqbkGn3NADEoZgMRX3xUz3e8x0d3/gH/eI+uycDIJ7EzHOKQR56Q8edf9PjR2vsngmAOBOTlWKeI0k3Bz2jtq+prJfbXS8XbcAATFJMhmIkRhuwOZqfYfdMAMSqmAzFbyXMCT/QeV1DGtL1zqmdD4D4EVvXFO/brcZ1KzVXnWpo+3PQ0NYDbm1MH9Jff7lJlTSMBTBJs1JSUr4yb0hPT9bly5cntJOFDzsn9J6R4RGlp6RP6D3DI8MTmhMATEZMLp8B4G4ZVSkCwEw26priVC2fAWA6YvkMACaEIgCY2BqKpa5r6nqvW13vdavDxZIagP1sDcWaygeV+kSK9pz6hp3TAIAAls8AYEIoAoAJoQgAJoQiAJhM21CkNyIAO0zbUKQ3IgA7TNtQpDciADvY2k+x1HVNr63+jyTJe2peYDu9EQHYxbZ+igAwHU3f5TMA2MCS5XP3xW4rdgMAtqNSBAATQhEATCwKxVKNvNSlYVeXRrKt2SMA2MGiUKzR7F+l6t53PLqVe1h86QuAWGXt8vlfVzXb0h0CwNSyNhS/6NGs+xOpFAHELItvtJRrduVpfeXq0q38Umt3DQBTwOKP+VVpxJWtWZWpLKMBxCRrK8WHnPrqxlXNCt2e51K92636yjWWHg4ArDY1zyk296hP0pwFmVNyOACYLGtDcVGiwrd68Oj6oDTU77H0cABgNYuuKZZq5KXXdOt+6Z531gYvn0v3y/1MhobaqrTJdcKawwHAXWJJ67DhYR7CARAf+OwzAJgQigBgQigCgElMhWLBzlV3dX9j7T/aYxfsXBX0L9I2ANOTrV9cNZaCnavUtLct6t8dj39f4wWh+XXoe8IdJ9wcwx0r0vEBTC93JRSTilcp+R9taj8TMrBoodb8QGo/cEU3LTxetOEZ7nfHC9+xxiMFXLjthCEQG6wPxUULtXj+pdGBKCnpsTTd/EubpYE4GeNVi+aqbqxAHKtKDPd7E6l+AdjD8ucUraoSJ7IknqxoQupO5xF6DIIRmN4srhQdSv7mFfXWjR6Zu+xB6YJnQlViNOExkWVp0962Cd1c8R9/rFAzvz/a5TTBCExflobi3CecmtvuUd+oEYcWrxjS+b3DVh5O0viBFRo+4y1l7ySwIi2dCUEgdvwf2yrDYNys/24AAAAASUVORK5CYII=;" parent="1" vertex="1">
                    <mxGeometry x="-250" y="260" width="344.47" height="460" as="geometry"/>
                </mxCell>
                <mxCell id="3" value="" style="shape=image;verticalLabelPosition=bottom;labelBackgroundColor=default;verticalAlign=top;aspect=fixed;imageAspect=0;image=data:image/png,iVBORw0KGgoAAAANSUhEUgAAAdYAAAF1CAYAAABVkssaAAAgAElEQVR4nOzdfVSU953w//du81MjigpEkPqADFqLblAj0aQxO0zMQqe29wqSLKl3PCeZaePy8Ot27XhnTZgzqJsjzebuEVjTQnrf5iRhmwnY09opbOMwm7RRg1FJlVpkBB9CQGUCRGzw1579/XFd8wQzMAODgn5e5+RErsfvdaHzmc/3+l7fz18tXLjwvwlTfOa3WfXxm9R9CmlP5TOvoYK6T93r8tlw5R26v7aBT8vfpMmzrII3T4505DS+vXMFp/co+w3fhnw28w4V9V1DV87LIv+ZB5gdYL92256h7Vj1bfLnvhv4WEHXxZNVYOCBWcpPPcerqKhP4NsF83i3vI4ufO4NWeRnfErFW03qfkPvzbtzB90j93mvbAh8/gDt8v5e0vza4T3nu8wLcO43T6r3zNNGIYQQo3XPWA/Q2Q2P3B8Pn3YB8axaAt0fA8xm3jxo+hQSYmfDlTG3NWTx92vgeBV7BgWj+Mx8NkTqHJkboGYPez51B3nVrFgSgC7imRcT+vG6rvSQ9NU0OKkEtrSvJtHzhwCBPiSddPMIq+ahfOGZtwoN3ZwE5t3G34sQQtwNxhxYu+rfwVlgYOca5ed22x7e/BT4XQ87n9nJA0BPbw89AKTx7afgzXHNitLYsKaH3+4ZbVAKTdcVeMDn+jgH0MS7xx/BsHMnG+mhpxecAJ+exBljYOfOFRza827gA558k0Nf3cnOnRsBNQM+CawK0oDObviqEsIDtI66Gif5z+xkJwDtHNrzJl1AXcDfC5AQC90jdikIIYQYwV+Npit41FZ9m2/zpk9XrH93alC9H1Hl6dZU9wzSFRyo2zntqZ1sXAzuADMkrA/XFTxh+Xcpj9XgLn0hhBCjc2sD60Q1KQMrsOrb7PzqafaMtQcgUscRQgghgVUIIYSIpLCesU6fPn282iGEEELcEcIevHTjxo3xaIcQE8ry5cs5c+bMuG0vvMbjXg/eRn4/4lYa86jgO9mUHbtJXXqO5mcPcPN2N0ZMesuXLx92/d36wX/mzJmwAl+42wtxq0U0sE7NqmEJ5Zyua4jkYQcxsrh4Jd0l+fSFsvnW77NyxRlO/aBeXZDJfOtyenJf4fqo25DJfOs3iAOgj8tlL3DtvVEfLLK+28eF7B7ojWX3E1FU3u72hGLOIpYnQseZC3zmuyzuJs5zn/LF7WxbCNwf8qF82AdbP1LQHbN757EkOYYpAFz3v9dhmcOi5dH0jXr/wIa7b8HuTaDlEnTFRCAZ6zBu7n2BUwGWT9mxnunHyzm1t+WWt2l4f6H6sZt8ULqQvMO3uy1h+OwCHdHLiUuYxmedXwDTmBc3g+vXzkyaoAoT+0N9ztwYbnac4Vwko+EYhPJFwve++u4X6v0dfA7fnyfi70jcOcIPrKsrWLdRo/7QT1tVDl3sYoUhnRkA7GDdgzu86zqUDPPGhwksfjAKgK5DWbSdgOgtdcQ2K38emokaWVycQ7x6pq5DWXSn1pGarPwcX1yn/OF8DUffGF1eNuOHu5l2zcX8NUkA3DheTsveFvwy0r6PhnQFT4mL5sbpwUF1KXGvFTA/mkHHWkrca09Dy6DzHHmIpVtjuUEScdHtXD4ew/w10Vw7VMTlA2o39Br1YLTTGnKGPYVLkymoqj670EH08gXM6z3Hp9PiibnZwRk1CExLWIImVsm1uOnyZLFzFi0nuu8MFz6D8cikgmVEvuvdP7v/PFJwHXtmOo15SzTETIGb3U7OdYby1WMa06bc5ObgTYNlsX7LveeZs2g5ico/cmYsX04iwPUOzii/AM+1hRK0xiuwBQueE/ULj7gzDQ2sKctZ3nGGMwHHKD1K/CMJtFVl0dXhu/xFTpcM1xWs4T72crSkARJ3sWLzLqaeeHGYZmUQX5QDh7I4esJn8YksjobbFTysaOYvPUdz7ivcfHQrSws3MoNXuE49l3PrufzoVpZu9W7tF+yS9hG3EWj/Fad+UM+MHxYQ0+LOYtUgu1UJkhDN/Lj3OZX7CkrQ3siMI90QnQSHyrn8aAHz435F8/H1JCUsBRYzd42L1twXwuyu/jNzZ8GlMd+X2+Ezurrj0MydB1Om4Lqshsc5i9DMvI7zjBJMpyUsQbNojufDfDyNFByDrXcH10DbjDXgTktYQIwa8abExjOnc/gvEr7BkOTlxOAOlPeyKHkK186cUfafs4jlS+bxp3Of8sWfPuXcGfdMIdOYt0T9wnPhDJ+NU1ewr5GCYLB75fvFJtD2ElzFreIfWFO28JJpOWdKn+dMa6DN3+NPru+Raqhj+iF3phkKJxfdwbbjRU7vU/44NdjmiTruo5FzIR9/9K69p2aj73VyozB22G3dXcMzfriP2afdQRNgKdNi+nD90p3FttDX0kdMwlL15z4u/9L9jFcJ2jy6Ffo+4soBiH5UXf/QenWbNr7o+wYp1t0hP781Wq7xwrop/CwzGlPolz+hfNF5jevLE4m53sGZPynLpk2dws3Puzxdwl/0Xufm/GlMu22tvL0ZWbg+u3CGz9TgyOVzfKreV+bEM4MZ3swT4KbLvZJFyxOZ4TnKTVyMLNxrHm2gC7TPcM9hfXsRJLiKW+GeJajT3PoE1TcCBlVF3xtZHEXpxl230dutKyKphWvPFnGNpcS9to+VhSMPkKo0x1HJAIfr+yidtMH1M/quJ0LfBHkQOA7G2hX8ReclXDPdXcFdY8safbpxfc1ZlMgMzzo1KI+D8Q50gY4twVXcCn/9/T1bWBJiUPXV90YWJz/sJ2puht/yGXEpYTXAvX/0Fu/zVDou0j87ncTVwfZK4N7EYOsGaevmRtJyz7fvKTvWE9d+ZgwjggNp4QtXNDEPuTPUTOauieZG51gHNykBtrU9mmmLQ9n+Hq70jvGUE8wXAzeZMnOOJ0OdMzeGKTe/8GSwU6Yqa+Ys8s2w1G0XLWf58kXMuVWNDYG7u3Lwf6H7gk/PKfuE9nw1iM/6uD4jjnn3Bl59c0BNbefEe7qevaYwLcB+y5cvH/MXh5GeT4czcCmUrvrg5rBo+RLm3TuNeUuWsyRhGtMSlrB80UT62yQmqnvKzy3nfz0PDS+FElS3srj4f3gDIE6aS7zPUwfq6ugqzmFdcQ7ewUvBj9ZnbwSDMtjp+oeNdCW766xV0la1kBUGJSsG38y4ko4Ps1hlqGMxjDx46b0DtD+0m1Sr2v9MO6259cG3B3h0K0sLH8A9z1Sq9QHPs9Rgrv/gV9ywFrDSqvx843g5LQeCbh7W+en7iObRHmuyU0cMa5arfzduunCqQ1s/u+IiLlnD8li42e3i+gz/CPCngZswQw0Cf+K2mnhZ0mdc6IhmufrcFbyDlHzvK9dduG5O8duvqzsOjXu/IFnv7eY7qMzN97n3xPpdiDtNWHMFT58+XWZemtD+QvXbn8GP4ybX6zbjJdD7sSGK9GxAY11/NxhLthpohHY4+wsRSfIe6x3lS+QdnsIF00UufHcSTRARce5XUkKfCCFQ1+Bwo0/DMb6v30w+w13z4HXDPROV91LFRCUZqxBCCBFBf327GyCEEELcScLuCpbScUIIIURwYQXWhIQYPvnkk/Fqi8fAgNReF0IIMTlJV7AQQggRQRJYR8NYhs1WhuF2tyMgA2U2G1azdtzPUWYcx1NE2oT+nQkh7iR3aGDVYqm2YtGNsJXZis1mw+YXJAyU2Qbvq8VSHflAYii3ec5vG/dgGCadBWu1hfFrkXJPbeXuUBf6FwJD+SQL6sOYmlXDiqyMIGsziC+qY11xBdFBthjKyOLiOtYV7Qo+F/dgibtYUVzHumL3udznVf/zO5b/usVBZ0cT4u51V7/H6rDk4kD5oE7zLK2i6Xw2meu1YHcoi3QZpM5yUu9+KbSyEH2EXhB1HtRTWIkSyLbnY9E5MNvHcsQqCvVVkWncuJ+jn34WoAUcxjQ474zAMYOI4O/sVpmaVcBil5Ou2aHvE70lh6jzTq7HBF6vNVvJp4Jci8O7jy6d/kNZnPaZ87tvXwNdnmPWsSQrQ6latXoz97Xs5Whdg1pCsoLuE/n0ocVSbSLGrv59FuIuNiEDqxLonGiSNfQfa6RzbTqa3kZK88w4jGXYNrnrwTqp1RdS5bNfdrL7KP00uv+os2Ddnk5UgH0CqWpykq3LQIsDB6Bdn0rU+Xqq1A+P9FmBj+N7/v5jpeRaHMq1NPl/2LiXNfme1N5AszGdGA1gN1BmS8N1LIH0tWqr3QEYA2W2bDx3QF2uNVsxqdv6nn/E6x9yP2tY4LlGMNlsmHyO53seb5sUfm1w/74wUFa9AFd3OunJ6u/l5VzM9hRiZnXSfDaGDB2kpEFTE2jSlLmmLT5tINDvPtmGbZPv9QS7Z8F+Z+ry7lr0BVWe+5rgc9+U6+kc8e8LqLWFcRKfrOH6h430P5hOfE8jJ/e9yIBfDWN1es7O4WoYA4m7WPJgJ80lp4gtXqnumUF80Q4Wu9zTeCo1i6M+3KsGvQpSYxo5+Q4s2Ty0jYZyG9mxjZTmOXyWZnBvTD83OoNdWQb3xkB/szp16Yl8TrtXnThF10Z32xyY81KURwRIcBV3twkZWAE0sS5KD4JpUyqul2thexopOgv5m6BWr1c+6Ixl2KottOaZwWwlm1r0+iqUD8189UgGyrbHUB9gH0ewk1c24dyUSYYOHHYtGcuicNqVj1ZznkM5pi3Nbxet2Urm1VL0BQ7cH9plRgc1V/uVbFhnwWqEirwGFsT243ICvocYnBWjIZVS9HqHuq8FbWUDGdXZcFCvZl9qt7UzF7Oafbvbku858DDXr7Ng9b2fbnkOn/b636fAWb5yXNOyZkr1yvZasxVTuQFHATArndSzyr3Rmq2Ysg1gB3pdNLwPOestxNBEoXMBmWmgfEh7z6o1W8k3a3FYlKwz0JeV4PfMHOR35sCcB5bqfCy6KhrWZ/oF1dGIj3Fx8hCs2pjK1aoaugwrmQoMnMj3qStsZHFxBdEl+cPUMM4gfrOSRfZhxFvMsIGufUBRAfGJlfTcn+UNqhhZvDGBtqp8Btg1pG2Gcpvy7yPP+5uO3lJHqvuLqDr39nXf4xWrhTHO1/jXRXZbvZL4Hhfe6cCrKNS3Yqm2YU0c270UYjKbsIHVaTfjoAzT+XrMdijbDmhiiDrf5A0ClU04N6WRgpYFy6CxMkBeYUxDgwaNzUa2e1nvSNUlfbuDU4iZ5aRp2G/gSvCNmmXCZvMWbHN3bCYkatEmKn1zSj7WySU7kA2aTe7MS8nkqnz2rnd/MNnN5NoBDOT4tUVpZ5oGJVAFMsz1a9enwrGKEbOxUGgTE+g/W+MJwo73m8k3LkDLJb9rcXR0YrrPZ0d7Ay6jiRi7GbB4Fvv3PkD/sVBaEeieDceBuTID63Yb6b2DMznvl4hQdf32RQaogPN1dHWApyBRom92qrSze5jjKF3AQYIZDXS9o2OFoY7FPY2c3KcE5OgtSuba1gH4VX5SvuSlni1FPyjQKSUgM4gvKoB3BhfMqKStpJI21BKRW/AvdpG4ixWeQO7L/YXFhK08Re0NEOLuMmEDa0Sdrw37H3hVk5PstBQlMJ1vonDEPdxdnIMWGzsxpaWQAtTbIc2YArhoQAmyg7tTx0WQ658YQ6V8slMdELsArbGM7GRvt61/Bj4OzjtxDl/jfgyU7JMP1eeSGFns6doNvP3spVEw210lShFfXOdf+/i8ky7Pc1QjsckwI9ndpaxYVVxDW1UO5jzlkcRoA11fsxMeWahk3+D5otB/KCtA9arggVyIu8XkGhXsdNGfnOZ5ZUJrzkTT66IVB5e6o0hdr1WX53ufz1U24UzOHHGE8BCVTTiT0yhL0+BsGunDyEHDWUjPDvAyh9NFf2waaVebqHK6SNBlkhBmU7xacfVqSHOPiNVZyExWu5WDGeb6HR2dRK3NCf4KyqwYQq2u6+joJGpZhidYG7LTieq+FDzj0y0Y/j70ulCqGBrI8Xl27JaQGImvBQbKtqfSXFtIzdlUTOX+d0IZNR6ZV3T6ryiZ5dSsLJ+yiwr/GsYNdO3L4miJ+78aunDSXOIOqkYWG1K5as+noyWVVVuMKNmlzz5VjVzvaeRkiTcLrSrQU0s2tlGM9I5O1XC9xa5mpkYWq0G1bUhGbaDMpgxgGtINrLNgnWgj34UYJ5MrY7WbqVhvxeTp1nRSqz7Tc9Q2krld6YrtP1ZLY2+mulMVhQfTsG23YduuLPEdWOTpbky2Ydvkm3VW0XTepmROBe4G+A8c0thsZLsH1lgqyKg2YbO5O1zVjMt+ic7t6SRQA/ZWmo3ppKsBJ7yS8ODbdal0HysZ7/CjiINfP5WFlCYOvp/qQB27mfpsG9nquhHvWWUhtWk2z2AnZcCRMigobJU1NOpM6rGcNB7r9wvCVT6/65EHowX7nSnPqxOOlVJoB+zq76+cCHdfNtD1282s21hH/EaUusN4h+yGV8M4g/giny7fjnLainYM7aYNoqpAT6vnefVw2aTP81V8n7sqXc7xAOr1eNf/Nxb1+X/AHhj134HmvhQIq4NdiMknrOo2ycnzZUrDSSD44B4hbhdvF7EMahJ3usmVsYogtP6vp5yvnXTvbIo7mPqaVP8YR10LMVlIxiqEEEJE0OQavCSEEEJMcBJYhRBCiAgKqytYCCGEEMOTjFUIIYSIIAmsQgghRASFHVhL91/kQv1Ffm/5y3i0RwghhJjUwg6spm0LWVQaC+v6KR2PFgkhhBCT2Oi6gg/fw5UIN0QIIYS4E4zyGes9XOm9yYLHItsYIYQQYrIbZWD9EnlPzIHvXuTC/oGRNxdCCCHuEqOcK/gvVL/9Gfx4IYsOR7ZBQgghxGQ2yoz1z8ydNYVLElSFEEIIP/IeqxBCCBFBowusj/2ZuRFuiBBCCHEnCPsZa+n+izyZDH1Hv4xpPFokhBBCTGIyCb8QQggRQfKMVQghhIggCaxCCCFEBElgFUIIISJIAqsQQggRQbcssGrNVmzVFrSROJixDJutDEMkjqUq3X+Rw98NZcsBDtf33XGVfYyWayGWArzTrv8hdnz7dV575KHb3ZBxtpen7e08ve12t+N2WUrca/tYumPp7W6IuAuMYkpDLZZqE+mzlJ+cB/UUViqBM58Kci2OyLaQ8T02KEHlSeJZ9GOfhc/ks/9bi5Q/t9Wz7Z/c00xN5bHaAS683c+5J6KoDOkMge/ZhPHdPl746r3sfuJL3mXap9j7vZVEA/Sd4kdPv8UfgdFd/2SVx0vPfZ0kAG5wquY59l69zU0aD4+/RdHzDzMbgFZ+qdvAydvcpGCm7NhNEq/TsrdFWfDoVpZuhfZnD3BztAd9dCtLCx9gOgDttOa+wvWItFbcrcIMrEqASD1bit7iAAyU2axYnLk0jLCnw5JLxMJiZSH6SH2iP9ZP0bop/CxzqneZ9in2fgt+8fcmfg18/X+XsndnOzv2OJX1P47mZysvUmSZRqX5SwEP63OwoPfMbI/QNYzJAIezb/JBaZxPkHwM0/c0/PFHJn7qgK/sfJHv/e/HvF8uwrr+cWQsw5bWhL6gagwHOcLeN48EXPPwI3/L3NP7yftt4PVjp/zdiLHfii9aO3hdtyPgmlVPPEyPNYl9+8e7DbdTC9eeLeJagDUzvvkANw4V0XLgljdK3KHCC6zGHNK7a9UAAVBFzbFMcjTuDTIos5nQAJyvVT/wDJTZspVlvY2U5pk9AdZQbmXB1U7S1yoH6D9W6s1KjWXYNnkOTP8x8M/8nNTqC3F/pGrNVnJoJmFtOlF+5x96LOin8WUlsBkf/RMcneM32cVXvqaBxrf4NQAa5sVCdOxavoJTzdrA9E4sX//uFxgZIWsb7p7Z/TNZPO2GMlsarmMJpK+NAnyzXJ/7SbAeAy2W6nyozMVsN1BWvQBXdzrpyf7XDsB3B0g5P5PHfOd9fmYZi9s+oFRtcnLcTFi8jK9zWL0nYVx/4i5WGGK4WJJPn7ooeksdsc1ZtHXuYoUhnRnq8usf7uV0XQOQQXxRAbR0svhBzaB1Cq3ZimltJ7V69Xd83z/z2t/Ba2/+Gx8ADz/yKs9ygGd/e4QtG1/lyz1XWblC6YG4cXo/z/72CHx1F9V/O2iZj+TZ07niHBxUH2LHt7exciaD9svjpedS6Tl9HytXqLnPfz3N89f+mdf+bjZXWETSzAucUte3/9fTPP8HB+a8FMpsNsoILbgm7PmYJ9jHvp3Kvy39wSL49/ux/WYvTx9cwLVrD7NGA9DH8Zfux/YbZZ/vPBSttMmaxOt+AdTAvLg+rrUOPtNenrY/qWbrPvtte5fi1Vc4Hvcwa2aBO8P9dM/HPDH3CmhSmO38QF3vzn4N6A++oG4POH9GidEb5A3lNrJj/T8bwpfJ/NcS+ML1APOTlOu/XPYC194Dtn6flRvVfofj5d5sF4ClTIvp44u2AMezfoM49adrh4q4fMC9fDlfHI9h/ppoz7orCbtJinNBUhLT2z/icswDzI92Z79LiXutgPnR7pv5K079oN5zJu/fZe/nmZjcwnrGakhLoLG2CkO5DZvNhq3aAh2dJCQqT06j1sbQpNej15fSGJtNmRGgikK9Hv3LjfQPOWIU6ctclKrrWZujPDfVWbBuglq9Hr1eT+kx954OzHl69PpanAHap1kbQ71eXZ+ciUUHYKBsUwKNLyvHqj0P/ccq1MDyF3RfhdPv+WddyXEz6f7UCTyG6effJe6PpzxBwePwPVyZ9Sd0I9SkHe6eac35StD13B8ntZ7sS0MqFZ51CToLWrRYqrPhoHIten0tbLKq1zmMWemkXi1V9jnYSbrR+6y7dGUPraem+m3+lXkx9F1rBzQ883op2munGPK5E+L10/EiF89riF3tXmAkNtlJ9wll3emSLI6WZHG0ZC9XlxYQn+jeLorFcafUdTX0P7gZ9+eS1mzFtKyZ0pA/iKazclEPZa8+TV5NE6zQswXgDy+S9+rTlJ2+4bf1w4+8SvVzr/ON+ZD0t69T/dzrVG/MA2DLxm0svbCfvFefJu/V/bQs2sZLX3XvuYilHFDW1TQxd/U/8zDAzEVwYj+nPl/Eytn/RdnpG8yNdT/TraJQX4pLZ8NqHuMIhFkPk3JlNyW6JH5yBNY8sReAzp33U6JL4peD/tGsqmyn2P4Ca2ZFs+b5dort7RTtMaAE7CfBmkSJLokS3c8g92P0j6s7albAvyep55nL+j3KaIfZGnj/pQ/o0TxM3H/u5njvXOY9Dmz7B9Zc+5l6rCS/oBpR0Q8Qc62cU7lFNB+H+d/MVJYfeEVd5v+veMYP97HSWsD86GjmF+5jpdX9DHYpca99Aw4VcSq3iFO5v4KNu4l71L1nEjG8rqwr+4jpj27l/wGmJ0FH2UfcSHqAae+Vc7kvhmmPAls3Mt/1K/VYRX5BVdyZwgqsC2I7uYSFzNhGSl9upL/7kt83zP5jNeoHnYOGs/2egDscp139lmq/RKe6TLs+FTzHCp33/K24esPceYjHMP38Ya79yETp7wKtv4crI55DO+I9C85JvTvLtZvJzTPjIIWYWU6aPJlNFU3no4jRBDtGgGNVNuGcFUPKiOdP4pnXv0ucw8SOPV0B1ody/Yq+ZifxqUblh9UriT/v/qJiZHFxHeuK61hXvIPFs3336qfN7r7QStrUjNdQbsN0Xz36MLOb9hNKJsvVDq6MsO0Hv32OvFef5leXlawz79WnyTtUDTzEl2fdoOWP7iz2CO9f8A2SF2hwZ71X/41n1eyZz5v45R8AbnDqWHWAMzow55XSvMyErXwsQ/JaeX+n8i+g8/JIVwknjUmU6HZzvLeP4y8pQU/JhJcQN6uV33sy2x383hlNnPsvjfPX2H6j/LFz5/3qPtBz5D+UZ7O9H/Cfvllx6xV6NE9SfPAtEgK0o6pAH/bvM7B2OtRs9Gana8Str/+giFO55Vzu6+NymRL0lGx2MdOi2+nxdA3X09MezbTFQ8/DewdoefYA/x9w4/gh5dls30dc8e1WbuvmRtI3WPnaVqYEaIfDkotestU7SliBNQYXrZoYONuAQxMDV1sxpGno7Bj6TyLlvqiAy2+9Vly9UaRvVzLG7NhGKkYYBHX+2ucs/tbDXPvRLn7qAJLneLIlr1BK56UMe88cHZ2QnK1kstvT6Tx4C/5x6RYE/HDz9cdPXUSnZxLnMFH6U0AbT+yQrcIoHXjiHdpilIFQ0akJnoAZvSWH+PM1noy1rWfkQ1UV6Cm9mhm5EeYTgs9z+DE9L56gfvMU+3RJlPw7PGFvDxpg71jvHaAlt4hTByDJui9ogBV3jrACq6sbcLpgrQmbLgHWmsiObaRmyLMhA2nJ/bgC9deGwNHRSdSyDOWDU2chX33OOCq6DFJpVLqb9YO/GX8J+x9gxaP+r5n88XdO+vqc/M4BoOEZ7SL6/njM83wVUCr89H6Jc8OevHXYe2ZI0+D0dOuG8oytFVevhjSj+9osZPrc56j7lJRCa873f27rQ7s+lajzTZ4Abjo1m5SVA/4b/fQsbVzg9z9Vfvz6/1hJdNtZz/PV0K/frYGelgRiVxuJjWmmp8O75rr74d7qzYMy1uAcllxKz6ZiGvzK1czZJAPc9888qz7njKwjfNI7naVfcWeoeXxzxXSudI9lcJOBMpsygCnUUe+z5y4BIGFPkfe5ZUSd41pvCn/jfjXn8bdYrwn0HDZMv3mKfbqf0T5rLvN8FhvKbSF/UbrZ6WL60oc8gWnGNx+AliOjHxEcUBtf9CUxe6v646NbSUwK9Bw2TO8doCX3V1yLjvULrFqzFZsthEc6YtIIb/BSbAwp9kJyA4xm1QJRa03YbMowIOdBvfIcU2fBul0dUASYbDZMvgOLAqmsoVFnUrbtbaT2WD/K0xL/gTsam41sdUBUUPYGmo3qsdzLfAZRVb53L0WmfkqJ9q53vMVPv/Yi3/u5+rZmWz3b9vh/Syjd3A1/+PLIr5sMc88cTU5sm2zYNnmXDf8qjj06bE0AACAASURBVANzZQbW7d59PPfZXk+OLRubLRvON9LYm+qzn4Zsm41sz7X73PsfT6W1/nOqH5tKnif7PEzpL5ax/+elfAvU1238U9OQr1818HEzUYYc+HAv7jDeZ28Eww7WPbgDzjfS1hN6HuOw5OIwlmErN1BVUAVX/42Gy6/zjede5xtc4NTpG4z0xuLDj7xKoScAb6N6xTZ1UFHwfd449GuWP6dsC+rgpWG2H573mXmoo4I7d/6advuTFNufBOcHHO9dMeI+qyrb+abnH007xbnegU2BVWH7dx1Fz7dTnKssabcmKduP/AxhCN/BUwA9R3aP/nWeA6/QumIfqdYHlJ/7PqL5B0r3bTBTduwmdY37/AWstPoORgqkhWsHPmJp4T5WblSWXDtUpAyEGgX/8ysDqC77rHd0dGJCQ+p6LdgnQi+fGKuwqttozVbl+dZk6q4a8kqGgTJbJi6fkbFGyzVemDuTRdumBj2Mn+/2ceGxL7E7hPc4g98z35G7I207FgbKbGk0DfcMJ4zrGdX2QohhDP1MEpNb2GXjDOU2spPdPzknwRBx/ywXAmeFpfsv8sCphTz2Y0YwwOH6AT7KjA65Hm2we6YMs/fp5u4d6ysHAc8+cmBF+XJRxBz+ZsT3UsO/fiFEYO7PgAk3aYwYE6nHKoQQQkSQTMIvhBBCRJAEViGEECKCJLAKIYQQESSBVQghhIggCaxCCCFEBElgFUIIISJIAqsQQggRQRJYhRBCiAiSwCqEEEJEkARWIYQQIoIksAohhBARJIFVCCGEiCAJrEIIIUQESWAVQgghIkgCqxBCCBFBEliFEEKICJLAKoQQQkSQBFYhhBAigiSwCiGEEBEkgVUIIYSIIAmsQgghRARFNLBOzaphRVZGJA8ZgJHFxRVEh7TtUuJe28f8rf5LZ/xwH0t3LB3l+TOZb/0+M0a599Bj7WOl+t/gdgYz44ehbzuSKTt2j+peGC3XuFB/kQv7ByLTECGEuEPc4RlrC30tfcStyPRZlsnspD5cR1puW6sUS4l77RtMP17OqdwiTpV9xPSNu4l79DY3KyQD/MO6KfwscyGLtk293Y0RQogJ5a8WLlz4335LUpazvOMMZ24E2WN1Bes2atQf+mmryqGLXawwpA/K4tR1HUYWF6/kxocJLH4wCoCuQ1m0nYDoLXXENit/VjLRlXSX5NOH++cc4tWjdR3Koju1jtTkQe05X8PRNyqDX+GjW1laGEtH7itcB9j6fVY+2k3zswe4yVLiXitgvpr+XjtUxOUDoGSSy/nieAzz10R71vWs2EdK0qDjt/+KUz+oB5RM0r3+xvFyWva2KOfbGMPlshe49p6SIaaucdFa1k3iVmh/9gA31UNN2bGbJF6n5chDLPVZ51neuZGVG4c0gNbcV7i5YzdzOcf0NQ8w3a9dyrX0+F7/ijOc+mUCSwvVbT36PO0c3gCH3/4z//FEFMPceSGEuCvd4/dTyhZeMi3nTOnznGkNtHkG8Y8k0FaVRVeH7/IXOV2idAUvoZzTdQ2D9tNwH3s5WtIAibtYsXkXU0+8OEyzMogvyoFDWRw94bP4RBZHhwTgEbx3BNfWAmZvhesHYMaKJG60HOImMOOHBUx7r4hTnmC6m7g2d2BJIoZyTuW2KMF561auPFvEqcGBSjVlx24Sr5Vz6gct4A7YW4u4fOAVTvF9Vn4zk2vvwdw1LlpzX+H61u8z3XXGE1QBbna6mL5icfBrOfAKpw4oAXz2afeXAPX8QNyaWFpzi7juOX+93zb+9+UALe8d8AbtvWFk8I/9mbmhby2EEHeVe5YA58AvqL4RMKgCNPAn1w5SDXVMP+TONEPh5KI72Ha8yOl9yh+DdiIm6riPRs6FfPzhKN3B81dkcpk2psX04fplC0qXMMQl7SNuo3vbPi579munwx1s3jtAy7BZ3FKil0YzPbqAlVbv0mvuPxx4hdYf7mOlVcl8rwc6RATcOH5IPbZyzTEJo32OHFzp/os8GRvLbslWhRAioHu+v2cLr/wfeGbEoKroeyOLoyjduOs2ert1J7KbR85xY2sCUx5NIIZztHuCpNKNGplAN1I3ah/X2n1+bOvmxqMJTAFvV3BCDDeutQEJY27NlLhon8geOaZtCzE91s/v3+4HCa5CCDHEX5efW87/ej60oOqr740sTn7YT9Rc/1HAM+JSwmqAe//oLd7nqXRcpH92Oomrg+2VwL2JYZzkvSO4WMLcby6BliNqIKunpz2JxFGNDo5hmt8goxb6WmD+NzMDbj1lx25SeJ/LP3gf3AOU3juCiweY6x7d++hWktbgHVQVHcsUz/KhY6CnD5uNDh6g5W5vJvOHPKOF6XHDdD8HcvgeroS3hxBC3DWGDl4alv+AInDS7Pes03e9/+ClgM9EE72Dnq5/2Ej/gzHe7RL9B0T5ZsZTs2pYpQ6EGnHwkkoZNMSgrDKT+dZvEOf+se8jdVBT4Oeo/sdSg51nkJD/QChPNrz1+6zciDcz9h3MxFafAUT+Ga93IFQ7l4/HEOP7HPRR3/28g5dSfQKwdyCWb3v7uHzcxfy4M54BV/73QAYvCSHEWIUZWMVENapBSKM2wOH6AT7KjMZ0C84mhBCTyR3+HqsYH1P5j6M3eVImiBBCiCEkYxVCCCEiSDJWIYQQIoLuGXkTr+Tk+XzyySfj1RaPgQFJooUQQkxOkrEKIYQQEXT3BFZjGTZbGYbbeiwjr2ZX8Fwk2hCQAf3Bdor2hNOy0ewTmG5ZDT9fNt7VjYaXsOdjig++FcYUG5G7fiGEgDC7gm8tA2W2bJTp/vtpfDkXs91AmS2NJn0hVRE4g9ZsxbRWeR/WeVBPoe9LmToLViNU5JlxROBckMG/Pp4DR7N4NSLHC8denrY/wO91Gzg5jmexny1nw+M7eLWvgec6Rt7+VlpV2c7fnEji9f23uyXjTX2XvKeRk/teJKQx237vjDtpLnmHe4t2sHi2ut7vWBnE+6ybDDOvCXGrTdDAqgRVDurRV6IEue1lGOxNoz9kZaFyLB8OSy4OwFBuI22MxxqJblkBD/bVsGFcA04Vtk3hfuUYzT7BNPAvR3X8/PEKnqvNvw1fIKBz5/2UhLVHJK//9ovekkPUeSfXYwKv15qt5FNBrsX7dTFal07/oSxO+wTIvn0NdHmOWceSrAyluMbqzdzXspejdQ1qpasKuk8ok7oYym1kXi31O7YQd6MJGVi15kwSjpWS6w5edjP12VYW6JTAusBsxbY2Cm8mO/gDQ4ulOh8qczHbtViqTaTPAnBSO2K267s9mGw2TED/sVJyLQQ9ltZsJYdmEtamEwVwvhZ9gXttBhsWwIdH/aPxqsqPmXflCmseUqaB7Dmym307lX0S9nzMdx5SZ1Lq/YCfbHqKTkDJPp/EPTGhZ59t71KcO/Q4qyrb+aZa5S/J3s43AZw/o8S4I+g+w51/uDYD8PmL1H1Sx8pEYIQvEQl7PubvOM3shx5mtm+7wK9t0MovPdl2kOv3Xe57v3yPo2mnONfneMNcf7DzD9tmlOCSHdtIaQg9HdFb6lh4ba+3GlTiLlZshnP7XmRgSBbpM3OZX+lGn3WrK0iNaeTkO7Bk89Dzedvm27IM7o3p50ZnsFZmcG8M9DerbTyRz2n3qhOn6Nq40rNlVUEpC6pNWM1IcBV3tQkYWLVkLOukPg8s1TYliJ2vpfQqpGkANKRSil7vUJ51Gi1o7eZhjufAnOdAyYJDyUvV7YN0BQ93LM3aGGr1eqowUGbLxKKrwmwHZupIpZl9nw/eI5o1qaf5iW4DnezlaXsR+sersKW8y3dST/MTnRIcEvZ8zHcq91Ji3EHCnq8z+8huSnYO+nqwfwMl+5Vtn/BZfNKYxMlgXcFB9mFb8PP7tfnxtyh6/h9YRZXfcVt6+9m8wAgdI6f1SQ/N5Ze6JE5iQH/wBZ7etoPXW9+iKBd1udKe4oNv8emmpyDY9bOD13U74PG3KPrHodcYsCs42PU/Psz5/dq8l6ftX0f/+A5svxnxUofoszfCZh1T6xoYAKbenwot5QxgZLEhhoslWZ6Aua5ol9Idm7iLFRuh2b3Ow8jijQm0VeUzwK4h5zKU28imFn2e975Fb/Gpb2yoYzFw/UN3oPeZnvR8jX/5RrfVK4nvcfl8f1L+7RjKbdjKU3y+WApxd5mAg5c0xOCi1ZhDenct+oNO+q/6VgdwUu/+NlzZhHNWDOFN+z9++o/VqBlsK67e0PZp/093JrqD3zujiUuBhPlz6Wm2404iOh2n6YlbQALQefkKsx96geLKvZG/ANVw5/dr828u0RNgf3tf0PRniJ4j/6EG5SpONPcxe74BUuYy2/mRN1jv/4j2WXOZx625/uHO79/mc1wb9HuuKtCjD/W5fIedq6QyOxEgg9lL4erHDUrAQkNqcR3riut8slM1+H74zpB5t6O35BD1YfmgOsmg9MAoXbSDA13fG1kcLdlLW08/bVVZHC3J8qmlXElbibKsmRzWbTH6HzZxFys2JtD2ztDnuFUFemrJxlZtQRvKfRDiDjPxMlbtAhK6L0FiKs6mQrSJVjo7IEMHrvfB79GRbgEJvS5qbldbI8rAvLiRt3JnWWx7l2J7+5CuyIlAF53A9d4wSiWp5s2NZsSyOZPg+kPXQNdvN7Pi/gy60HGfq47THShVA4MUlwhcw9hIbDLMSN7Buge992JVcQ1tVTljziL7mp3wyEKmghJE1W7q/kNZAQJ54OxYiLvJxMtYHZfoBBwdnWg22chfBppNJtK765VuVR/a9alEdV/yZAdR9ym5q9ac73lGOiaRyoY/t9NMKhtmDrPN4zpSZrXy+/1qVpaq82SIq554mNnXLuGXB+7fQMlLH/hlksOby7zHQ2tuSOcfxtJZUXT2NYy8oZ+9/I2mj1ZHFbReoUfzAKvUNQl7vk5S7xU+9d087OtHyYZDEcr5gzCU28LL1E6con+pjuj7U+lvrvQs60rOIj5AacSBK53MeHAz/oUEvdnl0ZIsjlY1cr2nkZMlOZ7AN5YsMjpVw/UWu5qZGlmsBtWho4GDZ8foLFhtNqxmyWHFnW/iZawAsQvQBhx5awA0ZNtsZAP0NlKqfit2WOrJsWVjs2XD+UYae1M9+3hf2wGNzUZ2rzK4JKXcRrb7GVOyDdsm72AoZcCUzXMuZfBSStBjDa+Bdy8V8C+pRjjmf1FJue4BNX0cf+l+pYtx/wZ+ubqd79jVyui9H/CTTUom4jsYCaDdmuR9DuoebMQLFNtfoN3qfqa4g/888nW+83w7a57Hk+UF3yf4+Uc0cxdZX3ZSdyy0zWc/pJzXfS3Ks8qneFv7Md9xD7ailV/q3IOnAl8/j79F0fPqgCJQ2u6TzZ58+wPWP+8+lzIY6dOg1x/8/GMvQT9YJd2uOlIfdNJc4l3Wdmgl69TnnuDz7PNEPifn1rCquE5dM7h0Y3BVBXpazVbyzVocww4u8i8P6X3u6lM3eWMd8Rv91xvKTaSeDTIq2H6Jzu3paO5LgQi9wCbERBXWJPy3akrD//lvv7oDh+1n8K+P7yDmTJbnHc87793Kodc4HGXQ0D7/0bjiDqWMtg8aeIW4g0y8rmCUYfvNy0zYbDblvztiEEQD//KbGlg3njMv3V66ZQWkXto74SaHELeZsQybTYKquHtMyIxVJuEXQggxWU3IjFUIIYSYrCSwCiGEEBEkgVUIIYSIIAmsQgghRARJYB2NSNZ2VT23to5XA0wIEODk41zTVQghxFhMzAkigMD1WMOtVDMGEa/HOsypltWwmUEl5Z7JZ/+3Fil/bqtn2z8dVldU8tzRCt59fBctv3kR++CDBRXofkam/RCgHJnOgtUYSyfJYPevdTtxyouNvrbo1KwaVj2o1PJVph/Eb1IF/ykJfSdc6KetKifgVIBCiDvDBM1Yfeqx6vXoX24mdXsZBhyY8/To9bU4b2fzKgvRRyqoz9xFUWon7/jOyKR9ir3fgl/8vYltf2/iF2Syd6fPdEMd+bzTl07RsoyQT+MuxafX69HrIxtUg+vmD2f70aT55vYG0pL7aX7/dgdVvLVFS7I4eshJ/MaKQVMFgjKxgRWLzneZkcQHO2l2TyH4RiX+0wrupS0mh8Wrla2nZmXBIWXdyQ9h8eZd6py/yhSAZcbB5xRCTGYTMmMNXo8Vgqdo/nVUlSkIHcOvM5Zh2+QNWM6DegorR1ePNfj5DZRVL8DVnU56MgzOFnVfToXmcr+i4F/5mgYa3+LXAGiYFwvRsWv5Ck7+qG7zanMjWet06M42hJS1ptwXRWfToGBmLMOW5qIxNn3QNflfC72+9UX9p4h0X2tFkPM2v99MxvY0DKDcK2Mamt5majyNVo6XcCyEDDZxFysMMVz0mcIveksdsc1qpulbp7SnUSmzpm7nl2G61w1TW3RI23xvcuJCovzKpQ2WwvTZ3hqnA3U5tKlrBj5u5vpS93YOzHkplNlslOGf1QshJq8JGFhHqMcaJIq45ynVewqdmygzOiisHLzOh998xAbKbGUYKgtHVY91uPMzK11ZV+BAa7ZiyjaAvQp3AfTmo/4T1ifHzaT7907gMUw/z4TGU/R9ZdAFf36RzplZbJgJ9iF1Xn3uptmKaa0aUJJt2DbhX4Q9ORVe1qN3F4s3a6myuGvYeo/hnl/WUK4EGr37i4nORYXFAeb8wA2wN9BsNJFmBCrBkKah/2zN6LrXO17k4vk6YldD3wlQqro46X4DJeg+4uJkSb5S2zSrhlVbjEo2ubqCVUubOVkytMSZx5Daot5eE88XvEFz6Crz9fp07foUJ7/+4V7aAkTeqfenMsNV59OOKgr1rViqbVgTJ0L3uBBirCZgYFXqsTYYc8jurkVvT8Oa2ApkDrOPlgWx/TTXuj+UHDSczSc/UQukkJbspL4gwAeWzoJ1ezpRngVOmkbV5uHOrxzXXUPW0dGJ6b5QjvkYpp8/zLUfmfgpT7F3cGClFdcwAdXNYcnFgfJcM60pQFZ03ls1yL0t6vaeAgVAf4iT6gdoAQ1n8zGlGYDWQfcJlMASeqd6X7OT1FQjbScqlWB4/hRtqAFrdpTP5PTAeeV/0akaun6bHzyoumuLVqnb6CxYt6fS/LJ+UJd5JW0llbQl7mLFZji3b1Cg7niR0yXgfna7Anzqm6IE+Ac7aS4Z/EtwYM5TekOkQLgQk9/Ee8bqqceagLOpCm1iglKPdRm4IvpgVYvFmA6e5463+bmtj/PXPmfxtx7m2o928VMHkDwnwLO/FGJmdnIxhOAaNmMZ2clOavXKM+7SY/2eVa1X+4laq87jvCmBxsqRB3c53m+mP3YBWl0GqTTTMJbnuyfeoS1mJdFAdGoCbXZvkLr+4V5v6TTPs88ReGqL+gwospvJ1dcTs320zz8b6GnpZ0acT9HB1RWsU4P30Eo03gnqJagKMflNvMAaRj1Wn5241B1F6np3hmggZ20UnR0OoBVXr4bMIHUglW2U57qawStDrsc63PmH08C7lyD1y/6DkP74Oyd9fU5+5wDQ8Ix2EX1/POZ5vgrAzIUkfO6iJaT2jUKvC6VUuXItCi0Zy6DxZf2QQVCOjk6ilmV4iiUYstPhbIMSdO0NNJNKTnaqd5mHgbKw6nQ20NOSQOxqI7ExzfSowXDg42YYUqdUXXetn/hHdgUoEj5cbdEqCvW1sGk0NUQzmL00ii53fVVPRhxoNLCBMpuJGLt+SDew1mzFZhs8cEoIMdFNwK5ghq3HGqwealVBLWk2EzabCVAHD1WCd4DIoHUWB2Z7DrZNynPH/mONOInxnirMeqzBzz88+yfNFD2+mefONngHMDne4qdfe5Hv/bxU+bmtnm17/PPp51LT4dLeMF63CUNlDY06kzpwy0njsX61Dqnarbvdhm27e2N1MFZlIbVpNs9gL3obKS3w7xo3rYXG2rE/Qxz4uJkoQw58uNfbFdvxIuc+rPHrCna/PjNQl0NzXJ13nTp4aeowtUUV7uef+Vh0juFHUvs8X/U9N2QQv1lZPsOnvqqyXoulWnmOG2jgkqOjExMaYoYZWyCEmHgmZHWbO7Mea3C6ZTX8y6w6NhwLcVhoYgXvLnfxr2G9xxoJyqCtJp/R0BPnndQ7kOdZ7616PUoIEQkTMrAODPztMK973JmeW1vHykuhFAg38mr2Sk7V5vu9onOrDB7U5DfCWESMcp8jP5GHEGL8TdDAKvVYhRBCTE4Tb/CSEEIIMYlJYBVCCCEiSAKrEEIIEUESWIUQQogIksA6GlKP9dYYxX3Wmq3Yqi2EO6WDEEJEysScIAK46+uxap9i7/dWEs0FfvH3FWqlG5io9VgDzbs8Xr+foPMe33Hc9WKdNJcEmgoxAL+JKpT9Bnwr+wyqBzu0ruwdf1OFGHcTNLD61GOtRP3QLsNgLwxaXeaWCjgr1Ci567HW+hzwmXz2az/jRz86xTPfmzN0n4583llQR9GyDOxnG4auD8BTj3U8J3Lwed/YUG4ju9xA1VjecR3FffYtJDDZTc0qYLHLSdfsIBsYy7ClNfm9RxytU6ZoPO07RWNdDkfdE1KtrmDd5l307HuRAYwkeqr+KJV7Fq+upO2ETPwhxFhMyMB6t9dj5acVbPspoH0q6D2aaPVYc9/3P3RVk5Ns3QK0gMPvPvvet0Hn8Uw2EaRnwvc47hJ4nvU+7RoyoYh/m53qFIJas5UcmklYq2bagya7UErudYaUeUdvqWPhNZ/pEP0q4LgzT2VVl+/cxL41ZPHJTBN3seTBTppLThFbPLhOrG/bfFuWwb0x3jqwgUydmwCuU+pUkJW07XOvqaT7fA6x6k9VBaUsqDZhNSPBVYgwTcDAKvVYQzLR6rHq/AsJeOqu6ixYN0GtXu8NjtUWWvPMOIw5pHfXos8bHLYcge+z+vsK3BWslp9Tf28+d8AzH6/yuzZQZrNicebSAGjWxqhtM1Bmy8SiqxpVF3mfvRE265ha16DUg70/FVrKGQCit+xg+m+zOKrWkF1cXEN8Zw5d7GLFRmguyRrUzavML9x/KIs+jJ5g57kisxXTsmZK9d6/m9Fb6kh1z4ilzknsO++xd70zQNk6pV2xyf3c8Fy78jswlNuklJ0QYZqAgVXqsYZmAtZjnZXunYT/fK0afHOIOt/kzfgqm3BuSiMFcDhd9G/Kxla9YBynrEwhZpaTJs91V9F0Plv5kgb0H6tR29aKq9f/71hY3coddq5SwOxE6OrIYPZSuPpOA0rAgvhk70T/0O+pIcuH5UOenSpdwDVqIPZnKLeRzdAvI31vZHGUDOKLCuCdoVV0lPUoGXJxxaBnthnEF+UQFaA4e1WBHspt4/w7EuLOMvECq6ceayrOpkK0iValHqsOXO+PvHsYJ/LWY7UEzkInNqUe66lxrceqdIFqzVby1VWtV/vJXuuu4tNP48uF3g/bcOd0tpvJtaN8wbHZME3qOaEb6PrtZlbcn0EXOu5z1XHaE6QCDz6aen+g4ygl55idw7riHM/S+OI6ug5lUVWgp9VsHX2gO3GKro1Z3JsIfR3K+eKLdiiBvG5oz0mwQC6ECG7ivW4j9VhDM8HqsQbldNGfnOZ5ZUZrzkTjObbKbiZXX4sz5PsNCYmhvlCj/P7T3N3DOguZyf24Qqhqr9RDDeN1nxOn6F+qI/r+VPrdtVippPu8hoVZQ3/HA1c6mTGkhmwDXft8irWX1NCFk+YS73NZhyWX0rOpmEbzytfqlcT3eOvYRm9Rg+qQ0cBaLNXKAKah3cBKDV1beSRfOBPizjHxMlaQeqyeV20U3/p5Kd9qq2fbPx327Dfh6rEGO5bdTMV6Kyb1PiqDjZRMy+/5L8o9KwSG+z07gKraRjK3u++1mlkP6tY32WyY1GfJ5soMrNvdg52UwUtmO2jXR+Ru+aik21VH6oNOmku8S/veqKG/eAfrHtyhLFDrwQ6cyOfkXN8asqG/VuOw5CqDwkIYee33/NV9boDVFepyn+xYXf8/1TEDgQcuteLqBU2sOjgthPYKcTeZkNVtpB7rCKQeq7jNPF3EMqhJiCEmZGCVeqzDkXqs4jZy9wzI712IoCZoYJV6rEIIISaniTd4SQghhJjEJLAKIYQQERRWV7AQQgghhicZqxBCCBFBEliFEEKICAo7sJbuv8iF+ov83vKX8WiPEEIIMamFHVhN2xayqDQW1vVTOh4tEkIIISax0XUFH76HKxFuiBBCCHEnGOUz1nu40nuTBY9FtjFCCCHEZDfKwPol8p6YA9+9yIX9A5FtkRBCCDGJjbK6zV+ofvsz+PFCFh0eeWshhBDibjHKjPXPzJ01hUsSVIUQQgg/8h6rEEIIEUGjC6yP/Zm5EW6IEEIIcScI+xlr6f6LPJkMfUe/jGk8WiSEEEJMYjIJvxBCCBFB8oxVCCGEiCAJrEIIIUQESWAVQgghIkgCqxBCCBFBEliFEEKICJLAKoQQQkSQBFYhhBAigiSwCiGEEBEkgVUIIYSIIAmsQgghRARJYBVCCCEiSAKrEEIIEUESWIUQQogIksAqhBBCRJAEViGEECKCJLAKIYQQESSBVQghhIggCaxCCCFEBElgFUIIISJIAqsQQggRQRJYhRBCiAgaRWDVYqm2YbMp/5UZI98oAHQWrNUWtON0eCGEEGI8hBlYtViqTaSeLUWv16PX18ImKxbd+DROCCGEmGz+auHChf8d8tbGMmxpTegLqjyLtGYrOR31sCkT18u5mO3e5flUkGtxKPtt0igrehspzTPj8GzTTOfadDSedQ1kVJtIn+V/6v5jpcqxdBas29OJAsBJrb6QKjXgp3fXqm0zUGbLJsG9jxBCCHGLhJWxGtISaKytwlCudgVXW6Cjk4TEVmqOQep6d8etloxl0Py+Ggh1Lkr1evR6PaVnUzGVGzzHjFobQ5O6rrY7nRyjA3OeHv3LjfT3Nnr2UwKkgbLtMdSry/QHIbvaghYH5rxSGmMz3dPjrgAAIABJREFUsehAa86UoCqEEOK2uCecjRfEdnIJC5mxjZS+DPnZl3AQQz7geL+ZfGMGWhw4dBmk0kyFHbTmVKJmRWGy2TC5D3Tee8z+YzW489+qAv3wDTCmoUGDxmYj272s16X+wYG5MgPrdhvpvY2U5klQFUIIceuFFVhjcNGgiSHzbA0OTQ75VxswpGXT2eQAu4P6bCsZOmB9Kp32XKW7F59u3Eg4X+vXFT10vRNnbGROJYQQQoQrrK5gVzfgdMFaEzZdAqw1kR3bSE2lsr6qqZPU9QYylnXSpC5zvN8Ma3MwBD3qMGbFkOL7c2UTzuTMIIOlDJRtT6W5tpCaQd3NQgghxK0SVsZKbAwp9kJy7UHWVzbRacsm/XwtZvcyu5mK9VZMPt23zoN6CitHOJfdTH22jWx1PyXrraLwYBq27TZs25XNlOVgqVYGKxXaAXsFGdUmbOUMn90KIYQQERbWqGCt2YrpvnoJVkIIIUQQ4b1uAxjKbWQnu39yv+4ihBBCCBhFYBVCCCFEcDJXsBBCCBFBEliFEEKICJLAKoQQQkSQBFYhhBAigiSwCiGEEBEkgVUIIYSIIAmsQgghRARJYBVCCCEiSAKrEEIIEUESWIUQQogIksAqhBBCRJAEViGEECKCJLAKIYQQESSBVQghhIggCaxCCCFEBElgFUIIISJIAqsQQggRQRJYhRBCiAiSwCqEEEJE0OQMrNsKsdsL2Rb2jgMcru+jdByaJIQQQgDcM7rdjCwuziEegH7aqnLo6ohgq8bFX6h+uwtqF2K63U0RQghxx/qrhQsX/ne4O03NqmEJ5ZyuaxiPNo0Lo+UaL8ydyaJtU293U4QQQtzBhmasKctZ3nGGMzeC7zQ1Lor+Zv+gOjWrhkSaiXownRkA52s4+kZl8IM8/m1+8Y8xdLKIlFkXOHYkhrUPzaTVup3v7E/hpYPPsXaWum3vSfZsepPD+C6/gFVXxn51k8f2mHmSVhIeWqWc31mHzviuuvYv6L4KH/xYgqoQQojx5f+MNWULL5m2sCox8MZTs2pYV1xHajLEb6xjXXEd67YYPevjH4zhYkkWR0tq6ErOIj7IcTxmLYL/fJVjvYtYO/d37DnyOQnzU4BWnt+0HZ1O+W9Pcwr/7x7f5XW0BjhcykMx/Fqnrtd8jZceV1c89gUruBf74RDvihBCCDFK9ywBzoEaVJdzpvR53ggUtYCBuhyO1kH0ljpim7NoO+G//vqH79AHQCs3ekI4e+9JfrYfNvzd5xx7+13Qfs2zalvly+RqfI59ZOTDXT/yazWDbae792sjbC2EEEJE3l9/f88WloQQVG+pbYXkai5gdWesRz6/3S0SQgghQvLX5eeW87+en0BB1a3XRQsAG3jyoZljO9bhaZzmT+gei0C7hBBCiGHcc+b/Ps+z//d2N2OQ/b/m2N89x077KnZygWNHPicBgA38xJ5FirpZiv1lctWBTcP7EvY/wAubB+CwDGASQggxfkb1us3k9Beq3/6EuYcX8tiPb3dbhBBC3Kkm58xLo/Il8p6Ih2yZeUkIIcT4uYsyViGEEGL83UUZqxBCCDH+JLAKIYQQERTWJPzJyfP55JNPxqstHgMD0jsthBBicpKMVQghhIggCayjYSzDZivDEMFDPre2jldHmltZOTmvZlfwXATPHb69PG1v5+lwCuJue5di+7usGrc2CSHExDDKeqy3goEyWzbKdMH9NL6ci9muxVJtIn0WgJNafSFV43V6nQWrESryzDjG6xzuUy2rYTM1bPCtaftMPvu/tUj5c1s92/7JXUGgkueOVvDu47to+c2L2Me5bWF5/C2K/hHe3vQUnbe7LRGRQXzRDhbPdtJckq/Ogz2CxF2sMKgVnlD2G8iqYdWDUeoG/vWLp/quG6kilBBiUpigGasSVDmoR6/Xo3+5mdTtZRhwYM7To9fX4rydzassRB+poD5zF0WpnbxzzOcDVfsUe78Fv/h7E9v+3sQvyGTvTp+KBB35vNOXTtGyjEi0YBR28Louidf3j7ylx/4NlOg2cHLc2hR5U7MKWOxy0hVsA2MZtnL/fotoXTr9h7I4WpLFUTUYD9TlqD9ncfRQJ4s370KZ/8tI4tJmTnoqQuWweLVyHEO5DatZO27XJoQYPxMyY9WaM0k4VkquO9bYzdRnW1mgg+Apmm82C/3HSsm1OIZfZyzDtskbsJwH9RRW+m/7/7d39tFRlfe+//TlqAcwpEnAkIIGJiId0PCW8tJih1EamAKrBIOFemAtOrEihGt76HC5CFlBOa5Ea70knFATvQuXhaNTAkvslogMc7Ql0vAOpggZCELTGMI0RMMt3treP/beM3sm85YwgQn8PmuxVtgvz/PsvZ/Zv/37Pc/z+zoUBYfvHCJ4zOHqt1O2dQjeSznkDAO/960eZ/2mGerL2WS4kvu+Y4K6LbwDgIlBqZCUOoH78PCxdsym+jqmT7RiPbk3itdawsLtQ2htncx4E0A7B557AGU3gB3b9qcZr7W5rfZZNqxWryh9/TEen5SkldHATs0oGrc3OnXjGljO465GQ3kY9vnLUQlXf6Q2o0YTVuTQvN1GodZHkh7bxd2tJZzYpekEZzzDqEfg9IY1XPV5nuquT982KDON3cjEmXofMHimGc9w77ebqV93hNS1ozvdVUuRE8eEZqptxs+rqfxrSgdXIrjrtw9MB+8RrgJQydkN+p5KLp2ZS6r2v6plpQzZ6sBZhKEfC4LQG0hAw2ph6ohmauZD8VZFNVRnqim9CNkmwhpWe7kD88lSbMVudCNXVuCmsDJ4n4HKQmw+R9FOmVKGvbKQovnusKHgovmasVSyY66f/jnqvmVu9YWcZwdXFTCVh4dA/YeBovHD0u7k0nEP8BCOHblQd4T2+4Iu+LNPaL5zOg/fCa5o4j/9J5NV/yzrCqrUsc4nt3Bo9wIGVT6tbl9dhW7kFi6p4rWKEr4/qYWd1gc6eZjNqx9gHTCmspH7fVurUOZUoYQJBStzqlAoYaFrXEBZY8LWH9jm9PXHeHxeCcrulWEvsd1VB49YuX3XXq4Ctz9ghlPlXAWSHltJn99P58NDAAUMXbuNu5rn8inPMGom1K+bHhTmncpdj6ieZzsFPmOnYyly4hhRT6nN3zeSHlN1igGw72Io8Pkf/Ybev99D/bpQ4d4CUod1cMXXv90UzXdjL1dQyrOwLeuxQQ9BEOJMAoaCTaTgpaFgLjmXqrFt99BxMZrsjoUhqR3Uf6C/5tzsPdlBeoYFsJM9zENNqK9+azFORUFRFBTfeG53iFQ/gL9+d1Oso48P4dgxmdaXHJT+IdT+Brwxq+k18IHmiVJxkMb+AxmEnUFp7TS49Rd2FYfq20kebAdO03o5i1muY9imhSvzWolUf2Cbmy+0BJ7qKiLf5vdWAWhycREzyRkAU0keDheP7UU1WHDXzF1MXLuLiWvncpd2yu0PmMGnIexHDQFv66Q3DGqI1jGgBlvQB1f769P5cF0JZ9s6OFulhn193rNv/3Q+fBvMazeSFFDqVO5aPpe+fyz3jb3qVC2zUU0eytZiJDAsCL2DxDOsliGkXzoPGel4jlZhyUinuQmmjgBvXAdWLRQX5MD+UnUc90aP2xo40/oZQ2dPpvWlZ3jVDQz7RtCLGCCLlDub+aSrUrXThpAc9aAqlDmZrLNugCcbWdujBjZe7OXT3zcz4IGpkGFlgHeXwUh5qNfHONdN58N1czsZMD9TSR7eF4bNNRhiE+a1uxg6VjV0pRdzu2/oDh3hU9L5V98McC1M7d0WYIh17OUKeVR3MuSCICQuiWdY3edpRvXsTHMUlo4A0xwHOZdqfOOSIU7i/KW+mKforzo7cyf0pbnJDTTgvWwiN8xEEPUYdVy3k8faP8UnURel0RHqj8Re3jsP5m8GTkL6+A8e2ts9/MENYGKx5R7aP97vG18F4M67Sf9M16yNnXTLKJI9BzlMFX9pTSLLonuIJXx/UhJtF4whR9XA7vQkkRbbjYD+AxkU04Gx1B8GLdJQVhC0/dAROoZbSXrATEe97s5WcumMibund57odbWlmX7ffiToo2Uvn24wGuFtfKoZZt2DdRfnU3rSjKM7S67GjuautnraNMOe9JhqVDvPBrZQvFUh92JpiDCwnTJF6TRxShCExCABx1iB1CFYAsY/dYxLcMCkKORdrqN0fhFVy6rJVhwoigPQJg9VgjpWlUVZ8L5iN0WuuShzFJQ50LG/Dg8p/qpcRdTkKeQpCnm+c7K6UX9kXH+uZ/m0R3ji5F7/BCb3Fl79zhqe2qHp8JytYcn6QH/6CXMOnC+JcblNFrNcjcwCuLyPl+eoY5WHC97gftfTrHU9DWiThypQl82smuz3bC/v42VtBvCYykZm+W5AI2vzDROLdi/gg3mNvrrUyUj3stD1KJnaKZmuRmZd3sfLcxaEr7/bVHLJuwvztz3Ur/NvbX99Gx1rVzLx29oYbVsdhzes4eqhpRweuI0xa3dpR8a+rMZdnI9bmxVcFWX8M2D8Va8bYOxGbftcJq6dG7D/37Qx+9ATlxrwXgZT6hAsIJ6sICQYXVK3uV4pDf/tl78j92K4l8rNh3XENv5X/108vD/GNYwZG3lvpJf/iGkdqzpp6HgvW+oiRMYXIpZJTYKQcCReKBh1qUH9CIc2qUi56SduuE7O5bfMjT3z0kT4baIlhxCuD1oYXIyqICQuCemxShJ+QRAEobeSkB6rIAiCIPRWxLAKgiAIQhwRwyoIgiAIcUQMqyAIgiDEETGs3eGW12MVBEEQwpGYCSKAW16P1bKAkqdGk8Q53vrhRk3pBhJaj7XLRFCdiYIx6YKa7D6LoYY8wIHapgWGfYF6qIIgCPEmQT3WW1yPdfFSKhbDqy8dCZ0F6IbrscaJsY8w4FSJlpzew10zg5PTg5raz0mx1bAp4xnuTqnTdEz1ZPeVnPWlISzhbIpf2/T26dNB00g9/Ef8eqjWYpxxjjwIgiAkpMd6q+ux8upGlrwKWBaEvUdd0mM1Zl5a8h5rxx5kXQEsdM2g1aBzmr7+GPPY4NNktZcr5KWqKRvdoGqc2lP4xJD2L+mxXaTWa56mUdvUmLovyDP1yakdWsoJvZmHjvDpzGDdU/UDK31/KfnGi0xPoZ9P0zQUWfRJ9uuiXt01l7PanqvH6vl8uPYfVxH5JjWsT09GPwRBuKVIQMMqeqwx0RU91pCs5N3aGcyz2GG3qoc61gwN/xnBvDSt4ZMzu0gdC+2atmnqMA+XXkc1ut/1cnjdUlUPdfo2xjxWwIevV5L02ErVMw2h3uJj7GjuavPij9D6oxa+D6yMZxhlz6EfACYtv26gOLm+//M/lnA2RLj39gfM9PPu8hvlykJsnmKcipMhhg8eQRCE7pKAhlXVY91bMJe8S9XYXNk4MxqA3AjnaHqo1UY91KUszbAAWaoe67Iweqwrcujr2+DhaLfaHKl+tVyjHqtjQLcqCaIreqyhaXafgCetpFNF8zQrWZzgzd3+/VXLbJ28uPZ6D2ZzAWcPVarG8MwRzqIZrOS+hoT2wBnQje8nr0cwqhnPMGpmOmerVKOsPhcz9S/YAg1d0xpOrEP1jM1HOivC6Ps1D3kUBEqxjd3ImG83dxYadxWRTzHOFQplpiCdV0EQhC6SeGOsoscaI93UYzWyewEftI5i7DRVTq7t3QVElWE/9FvOpowmCUgyp3PW5bdCn/+xxCC3Nj2EFFoINC+z423DhCJXEfm2GlJWhJCGi4m9tJ3qoJ9R627sRiZqxrvTuLXBkItRFQThWkk8wyp6rLHRJT3WgQyaBlDCwvzAKzp8qIUsSwljzS0cD5Jss5eHEkDYS9updFLHFpCa4tcVvXqsHjppmwI0cKUttB4qFDDUnkNHyNnAVRTaqmGOgjPMswuPKlb+qa7J6vOIQ8wGLihDWZFCja1zGNhS5ERRgiZOCYIgRCEBQ8GIHqtvqY3K7B2lzD5bw5Kf7fGdF7seqzqW+viqRsavaudAbQOZAw27Kw7S5nqU8Z43WBe2jECuHqunr30u/LHEP1bZtIbTf9wWEApWl8/s5dMNWfQx6KHqk5eSHtOWwMzcxV0zCdinUkWhrYHirUsptrojj38GjL8al+5M5a5H1O397LsYatyfXIxzDmGXbbmbmnFgIiXC2L4gCEIwCaluI3qsUeiSHqvQbXwhYpnUJAhC7CSkYb169XsBS1e4bFjycZPyxIRdjD4/nSeiJi4oYFPeaI5ULw1coiPEFXu5Qt6wwKVRgiAIsZCghlX0WAVBEITeSeJNXhIEQRCEXowYVkEQBEGII10KBQuCIAiCEBnxWAVBEAQhjnTdsP60nXMV4dOfC4IgCMKtTNcN66+TeINPOV78ZQ80JxLDSXtlA4MXBW7t9/wGhq8cHvqUGOj3fOcyu4favtFO9V+sbYpf/XDbyme7dy9+2s65mk8492YH3cogKAiCIPjoVijYseQuWib+la0PXWPtBWUhUuaF4xTtp9pJG2VMxp9LcmY73trYEvv1JP2eX8Zg7+84kr+cI/m/48r4ZXEzmD3Ll2x96Av2ld7NPfP6IqlyBUEQro3OKQ2zRjKy6SM+uhLptNv5rw8/Y/mDX8Ker3W/9spCSjOcOLYWQwwJIL6oPc2VwpH0o4bPARaNJK39NPXvq/v7Pb+BrEz17ysHyjlVcgrVk1wIp7wMHp/p39c8k9EztYMzN5A2E6CRhvwXtbJ/7t/ffpD6n2zmC3IZ7PwBffSyH1zE8MJxXHn7d5DZSEN+jdbSGi68PZLRo3K5AAx2jqTNWO6ojzhyYmT4+h9cxPBZ4E0Zx+CkwHb1e34DySeWc2EzQK5adtklMgrH0QeAZYx2ArRzoexpWt+P5UHcxvk90Y8SBEEQohPosWY9xnOOxxiTEf3EyqbbSPrW3645dOguzsfmSsGhlGGPdvD7tXjbM0nWPMF+ozK5cqqWL1DDoBmt5ZrHWI53uNFjTGJw2kcGb3Im/Ta/yJH85TQ0Quvby7V9mvF7cBHDH7xEfb66vf7UvZifzwVquKCfD/SbNY4rby/nwtl0+rRf4gtjW89e4kpKOreFu5ZI9QNkjuOO97X6D6SQ9XwE2bz3N3Mqfzn1B9q5ckC/B7Ea1b8zsH/0owRBEITY+Pq9wGnQjOpIPipdxesNMZzZ8DXaYwwFq+nhtP+ESk9YWYiNMpSoYtNqOHjwqFwucJY7Utrx7lS90qThSfRJ0r01lVbfX+1c2GnwJn2eZWhum3QvfZKSMDvH+Tc26n9o3qhzAzT+jiObgQcjX3+3aD9Iy2b1zy9qT3NlUQQj3U0Kilt5euJtvJGbhCPOZQuCINyqfP3n6x/jxf8Di7tiVAGyviTp0u0xjcmFEswOoKAMZQ5U2/IjH4fByDyYTgqnafR5ZV0JfUbHH0oOs7+x0f+f95u5UjiS28DvtQ5NpY/3o0AvtrsMTaUPl+JRUgCVRWlUcpU9Ne2UinEVBEGIC18tPz2S/7mqi0YVKMj4gvaWa1edsxQ5UaxeSsNId3Xi/Vq83MvAWfeCFgZWPVkYPCtCuDQCfdIDZ9J+UXsatHBvJx5cxPCZ0PSLF2niB9os3BraGjPJ8M3IzWXwzExaT+iecQp3POjfHq3+YIwhb+Px/Z7/AWnBZaUNpWt8nZbLXTxFEARBCEs3My9dZU/NZ7SUpjH/Wia9FJSpRrWLyjW3rXwW83iCPNThpL2yTJvsA/4JP9rkpc1hvFltAlKfgHP0Ovyy3a1vL+fCZnXyEm8bJw/pk5mGMtjpN3StvmOMZbVz4YBXHe/9RU34+gO2oYacQxx/5cBBroxP9U+M0tqjtiFWD/5Ltr7Zwfl54rEKgiDEg24Z1tKKT5jR8k3uL7qGGcFCeB5cxPBF0PiTzfEJJUfkS7a++Vf49TV+JAmCIAhANzMvPcpdYlRvGr7G/D23MdkhCSIEQRDigSThFwRBEIQ4Ikn4BUEQBCGOiGEVBEEQhDjSpfUyw4YN5s9//nNPtcXH1asSnRYEQRB6J+KxCoIgCEIcEcMqCIIgCHFEDGs3GFPZyMIl17+s21Y+y+jgZPyLfs7oVxZ1O49wtzVcw5Sl69HG2qZ41s+Dixh+DfdCEAQhHohh7UV8UXuaK5kjA1ItBqc7vGEs+jnm8V4aNEWgBu84TRFIEATh1qJL61iv1+Sl2/Pf4e7WEk7s2qtuyHiGUY/A6Q1ruP2xXZh1pRw81K9bSjvA2I1MNHs5m5LD0OSgfWEpYaHrUfTsvY3OTF6rAKZtYfmT8OacBTQD6euPMY8NbLjwI9bmZwWV0cBO68P8Zf0xvs8JkidNRq3+DdYVrNTqGMdx68McBljyHmvHHmTdoXFhyzqs/c9erpCXalQDUtM23vG+MaXiFP6mpS7skh5t7aTAtIlAQBrELunRLqdtlFEnVm/bSNryPyI5lB7tzvQI9ecy+JV0/uYdx+DMwHaF1KPNf5s7AtJZBt8DwFqMc0UOzdttFIqauyAIPci1Z9HvAdpddfCIldt37eUqcPsDZjhVzlXg6uvT+VA/cOxGJj5WwIeva2/KYWaoms6HTXD79G3cO32q3zh3wo5t+6PgzGRdBagG8Bi2hgdQwjWs4mHWVajh2/sPaUZYIx3InDSQndZMDmPHtv1pFi5ZGXBMrGWFxyibVxMg9O7To/2FbkyXMXiRboCSGJz2AUfyX0Q1RjPpV/Iip97fzG0rnyWT1wKVfHx6tC/6tG7Nz+dy5Bc1XMhHPZ8XQdej3TyctFfa+dtZY1vP8rf2KZr4QAje3xy+foCkcaSc0q5n0c8ZvWgR7e9vDl0Wp2j9yXJar2sqSEEQhNAkpGGlycVFlpGcAZ82TSV5OFz8rWogb5++jTHf7us/9swRw9+7+LRJ/fPqrrmciFjJvaT1b+C4z6Ct5LjnUe7PArqg8mOkrfa/NG+zikP1y5k3OKp0e0RCye19UXuaK4Uj6UcNX6SncOXU23zBcNJupB5tj9BIk25sN39E68yR1zZ26ioiP6zOryAIQvxITMPKXj79/SOMemAqn2JlgHcXJ5qAjGe499twtmq6akDHbmSi+Ua3NTSDBiZBSw8U/H4t3kULuePB4dwxHLybVQ/1hurRcoq/eZNIHgr46h/KHUle2t6HOwqvsTEPptMHaLvGYgRBEK4HiTt56dAROoZbSXrATEe9cVCsmf/bBDCVu75ruoYKTtN6OYv79Rm507YwxdROq+6t9h/IIG37vElJnc5OjuiNlnC/qZ0Gt+5vDmTQNHX7wk7jquHLspcrKFuLsQRsVbVnU2bNJIXTtL/v39ZtPdogDdeu69HC5ycaSXvQPyO33/M/IK3xI03OLooebRQN2dsm3UsfX1mR9WhJSg3t2VqLcSoKziJLqL2CIAhxI0E9VoBKLnl3Yf62h/p12qamNXxyZhfmtbuADs7+0UPnN2usVKH8p5XlqxpZm69uaXRmouwGWMAH8xqZ5WpkFg0cqG3HaA4Pv7mPKaueZq3raXyTl4DkSfo2Y1krebd2Bo+vamT8qnYO1DaQOTByWYeJzBe1p6FwHBx42zeW+EXJa1x4ZRmjnT/Qtvi1ZSOWVfIBrc4faOfpXu9mGic9i9m5wXecT49Wm6z0OcAvfscV5zKGryznVMmLNIza4A8fGzRkWw5MwVy4gcGF7Vw40BjwzELXD5BJll5/+0Hqf6KW9fnOg1CohryvHDhIa2aqv7D3N9M0a4PvvACv23We5hU5mEZMxYK7S/q/giAIXSEhZwX3xpSGvpnDq4NHRYWuo8/2jf5h0BXs5Qq5F0vJLxazKghCz5HAHqsgxAltqU3fM9XYxKgKgtDDiMcqCIIgCHEkcScvCYIgCEIvRAyrIAiCIMQRMayCIAiCEEfEsCYwliJniHWsEc+geOtNtFZzyXusdb3HmBvdjpsCO2WKQlnBjW5HaEKv2Y5rDQl9/aHpjW0Ohx3b9kaWr+9KNroSFrripyR2PbmpDGv6+mNdfHARmLaF5du3kB6f0uKKvfxm+bF1nzGVjax1qf/i9sxvKBaKtzoptkY5rKAMRVFQApJd2ClTgs9VP7Li3U8sRU5f/YqioJQn0r23U6aU0XMtUu+p/5pVwxfLh6ylyHnDP3jt5TH0r+tOCQtvwo9nWW6TwLiL87uYyMBN0fybaDmJJlTQiWlbmJK2j5etqvrQLUVlIbZK9UW91LexiqNn8sidYgGX9vytUzH391BT6T+m0BafNdYd+/W1wHbKlDzKCqquWTEoVF7s+BKv6++ggyFYAHdBNpzxxKHMcMSnzZYiJ44R9VSfrOe8qQxlBVTbCnv4fgdThTKnqzWu5DXryh5pTU+TsIY1ff0xHtdTCV7ex8tzFtAcToLtzSEsX6XJtaFnMWrnwHMPoOwuYeH2IbS2Tma8CcP2YGUZvez/YtD2pxnfX636cZeaE7et9tmIyR8sRU7mUk/6hBz6ApypxrZMO76gDGWOnn7RY+jU6otJ3xP8wjIBXDbIxhnLGaagzDGUZ9jnL4eI9Udsc9wI88wKVpIeVmpPVQdSn0GIbFRZA0luPdjJqIbuM3Zs25dDfQvjJ6n5s9RneS8LXePAk0WmqZ0Dtep+33Ne8p5B1s/fZ8JhL1fIxoNpmImO/XU0T8jB5Ht2gc/ZY5Cus5cr5PlkEDuo0//U196qZ0R9EVYd9ZBn9WeVskwx0/dMje85Oyb07VQ3ENg3tPZmlStkHw08zq5t2xZYq2rQM1RPrHjrUjjZTM6E4H4Y5voDrpHAvh7p+kP0Zwz30aQo5IGvP0e6fuM+Y/32cidDLgZfSxYp/ZupP5nCVCtkZcPRo2DKzgLcQc9Sa3PAdThQFAfQQd0L+RS57JQp2Xj3p5MT1L5wbVa3N/vuR2dpyc64i/NxG9dyx2Csx1QeY1BL8G9GPS/074zwvxnDdmM5YyobmaU9xkxXI7PA9w4w1uGT89QIV3+kNuu8UCcFAAAYyUlEQVR9MD343dhDJGYoeMl7PG4+wcvWTNZZM3m5fhSPV5aEP373AjZYM3m5tp222mdZZ81kndXwIuw/mawWbbuzhfFPRgrxVqHMyWTdc/tou7zP14ZYMiqZJqRQY7Nhs5VSl5qnhuGsxTjnQLXNhs1mw7Yd8rSxJEtRLun7S9XtNpvhgVdRaLNhe6GODmMFlYXYbDaqz6g/NvU87YWj7Svd3xHYqAj1B7a5Gs+w3CihIi0UZgwFdgpBdo3MSQP5wJrJOusbNJpmYJumXr8yR9tmPHjaFpa7GtUfqelRLRSshZEi9pkkxg88qPWLN2ib9CMt9JRFcsuz7PQkMd7cwsvOBpIH3gvYsX1/IAeey+zclyJgSvVSut1D3wlmvC9U4+mfQhYWirfmge95VcMc9Z5ZipzkUa1tL6Xusl6SnbIV+nPp/MxCUnkUT38zU60AFqaO6IvnqNpn3cX5vn4TgLUYp9VLqVZP6UkzjnI7DRc7/Pu3FmPBwpDUDrydnDM72cM6qP9A77d9yRlw1HedzRPmYo9w/biKyNevMaCvR7j+4P6s9f+qZVofxuPftyzK9ReU4RhR3+n6fdcyQrs3L9TBhLlqiPmyl70feEmZUkw2R6nyeH3tVttgaHO53XeNpfs76PD91vMp8iktmTCz0XcP0q3qdYZrs7s4n9L96eQWWcBaTG4Uowpa+L4AavbXUX00GyWmcLn2m/D9Zparv82wv7MIv5mKh9VjawPVsQ8X6L/xBnZq5akf1tC8+gHWWTPZGdznov3O9TY/tw98v/PrT0Ia1vTBA2mrd/k8kmb3CdrShlzDeGcDH+iGseIgjXqC/TjTsX+b9lXtZu/JDtIzLGBKoe+Zo/6v7cqj2gsX3E3N9J3g6Nlxqgj1B7a5Ae/lUAUYcVM03/Dy6PSS6Dp+qb3TtEarX/uAWudsUL9srZms07zZyH2mnQNv6iGllbzm84D9/aLxXWNYuYq/tCYxflXXJk54XNoL7kyN4Z5kkdLfw1FDSPbomb6kmCxMHQF11SE+2AqyMWEiT/94mROL2IRarnmKJUSdobFMMdO3fw4OrR6f5wakZ1iwTEkB9L7SzHntmvpOcGgfVXmw3fj8OwzXU0WhrZCqsNcfoWERrt8yxQy+PnttWDLS6Ti512eU3B/U05E6xPcB43uervOB0RHXXrwjcuBoYCsCxp9jemYAHmr0D2pXEflRjCSAu3gj9SMcKCvM1FfGcnw+tvlFMMDMEE+h/2M8Cv7fxEqOe5JIy4r0O+veb6arRLMNvjbvPh+khqU6K9crnWnChoJ7jGlDtJBxz5I1oC9cjHKQNl6mT0jpmVBsPLFQvNVBTn/jNj2sdaPa1DMcLsjkMPokqc7hqB6nG32h6qiHvOws1TCdOUosan2dhg0ACrJxZGeRBdS4ILsgC/CyN9I58SbM9SfGfHfDXAYrkDoEi7WYpROg7gWb+lsoKEPJ7sk2ePCc6ZqrUbUsv5t12RkUg9jJDf/NJBAJ6bE2X2gh2Wz1fYWMmTeZ5Fb9qzGKBNvAeyOWnW4ZRbLnoG/MTpdsG1P5KJ0EzcJ5tlElyAwhMo+XjmHZvtCLpSgX02VvoJZ6ZaEaCjN8LUcjPSPGI2OpP2a667FGfmbxIHKf6T6HC9QQVoC0X5ck6BrwXjaRrc/OtRaTO6wDr8fN+Uu6hwmWoqX+D5bKozGE5UNQeRTPsGzKsk2+MHAk3B/U+0OcRjxeOlKzyb6ohjrTrbnXFC0Kff0RTolw/WqUJ0SbfaQzJMb75m5qpu+Iqb7fnD0vh76Xzof3AK3Roma6V2+h2NrZY+07ID59317uwHxyG4XV9ZhX9OQsaI1pVrL6N3C8IrbfWcjfTET090N0uv87V2dwX69Z7InpsVY8zM6xjb6JQ+oAtRrKiyTB1rz6HRpdj7LW9SiBE06yNAm4wLKMkm1ttftoNBkK222Ujos+eQn0EJkDUMdAVYNTxMYpThz6hAo8VNv0CRLGyQ7qOZ0nboBDUXAYvuCrquvIXaHXpU6SaDBOwtAmSaiTHsLXf32+/iPL5oWmhIUu/4dOpquRWcZJEqEI22e680MKrF+dQNXdSIKbosqpOFfok82MfcP/HDv2V1N3WdfTraJwezbKCgVlhbpF9xItYZ+zet7RMwp5wzxUL/O3IKCfDVNQ5uhRhuC+oU+UUSX20tkGrgbqC3LI0QxO1/tMpOsPR/jrp7KQ0ozg/qyHNqvYtj8Xh36e9psJe/2VhVRnK+rvC7TJS918zq4iavIU8hSFPDqo2++BAYa7UFzDXCVPDZ/HEOUJ1+a9U5zqZKVlbsCtPb8y6IFZvpn5uqSm+i49DBF+Z+F/MwGTjbTJpX5v1vh+wDd5yTixCVMja/O193kE2xAZdajLpDkZPR0XvAWS8AfNSu0h1OUPG0WSTBC6Q0EZSvbRBB8KuXUIXDFxc2ApcuIYUHNd+lhieqyCINz0BHrfHqrjtM5WEALRlntdS0Sii9wCHqsgCIIgXD8ScvKSIAiCIPRWxLAKgiAIQhwRwyoIgiAIcUQMqyAIgiDEETGsgiAIghBHbirDmgh6rAH5QuOe5aOz3qS9XKFsQ1lnkWhrMc4e1aYUBEEQQiHrWOOKnbkGSafrxvGjeObkMtUKbi2bi1E2TBAEQbh+JKxh7W16rICaS/SyN0iz0hJepzJAVzKU7mJfQzkeqm1Hw1QcLHStyYa54m9WQ9+zh6GykSkthns0bQvLn4Q3tTSEwTqSgiAINyuJGQrudXqsWoLnFTkGGS6jTmkonUp8Gqp+nUotdGstZumEZk1XUtXp9GyPLnTtSyhunYo5Btkwe3mwtqqiash2g8Nv7gNDcux0yygwyDsJgiDcKiSkx6pq7v1XoObek0NI53w3SwzSY80fF2c91ioKbVXquGYBbOykqRisU6n9GZRsHzyE80mjUmkIBwdrsIZr9TJb/LzH3S4anlzO2Gmg7LYz1gwN/+kv3V2cH1U3UhAE4WYgIQ1rj3Kd9FijY6G4IAf2l2IrdqN6vZqAo0tVF8nTFTzOVKu6rRFRw8HZJrBnm/Acja7GGayuA4Hh6K5RhfLuj1husQNWslrfYcPuqCcJgiDcdCRkKLj367HGTnOT6sdZinLxjbYWZGM6U+0PE/vUGEJpW/pDvlVHPZiyy8geFj0MDKrHGqitGptRDXvPKg7SZrYyxjKKtkOBUk7qbGln1zVGBUEQehmJ6bH2Uj3WruGmyDUXZY6qU9mxvw4PKequyqN4fNqNGpq2ZChtS1+rtPNMZ6qJ7q92j4j3jJUcb21k1qQGdgYZUHdTMw5MqrC3S4LCgiDcvNwC6jbXR481nnTSdrUW41yRQk2vnlFrp0zJxRtF4FkQBKG3k5ge6y2O+4N6lq5woCgObUsHdS/k91qjqi8d8my3iVEVBOGm5xbwWAVBEATh+pGQk5cEQRAEobcihlUQBEEQ4ogYVkEQBEGII2JYBUEQBCGOiGG95bFQvLWryS7U3MjdzSvc49z5DDumPUPP5aIoYaGrkYVLevqcm49/LDzHl+NudCsEH+P2cHVhaYgdBWzK28gT171BNwc31XKb9PXHmMeG+CRyCFJniZUAVRotqUM8CU5D6FPKiTdh8x4nOgVsmmamfvdcrvvKnm72mZuLLJ7b/gQT+p/DaS2jwrDnn7bj/D/e4PaDho2WBZQ8NZokzvHWDzfyTgw1zPhVKbOHqn+ffctB6avRz7lv9RqeyrkTztaw5Gd7YqjFxOLXfkpOEsBn1L30DK9G/SE8hGNHLkNjPh5YvJSK2feof8fatnjes4MP8S8jz/F322m+rhjTrlXyxIcbeW/aM5zavabzb6mgDGfGtpjfPV1+Zsb7AtB+hJcWbuHjmGq78YjHGld0PdbgVITxxbNdK/+FOpiw9BrTBLopmm/ronGuojDG9IfXmycmzCW9vpz/9VlP1rKS16y6dF5PntP7eGj9j5nQeo6G4B0ZW/lyQgv/8prDv23xUioWw6svHaE9xvLvW72G2dSw5IcOlvywBmavYXGUYMuMX5WymC28VBd7p5jxq59y38e/Vut5ycN9Ty1lRqQTLAso2TGC4z+s4WyslVgWUDIb3vqhgyU/dPAWuZSsNkU+pwfu2Vdfe4OvTFjOlxlBJzYt5bftOSwfMdW/zVqMU3FSjJf6pqyYIlfdeWaA+qGh3ZslvcioQgJ7rKLHGkqPNShRoWsv9QU5pJgAl4XirQ5ytHYHeLIB9ajJJopcgdv9xweW41AUHIb9xnYFJ+wPaPPlOkrnF+HGTtnWIXgv5ZAzLKj+uFPA6G962LV/b8DWMZXHGNTSwvhJam5p/7O0YzM864BnvOQ91vpyUfv7jLFfNjr1vhNYTnCfCX1O5/P89Yfvs9FvQRlK9tGYPuqWVL7AjJZNzF6tmcFpP+atJ+F/z/kNe6b9mLdWjaEfAEHe55JCXPm6N2HYN+3H/I9JXpzWPzHG9a2Auv45ehTs3xD4Jf/qRpa8ClgWxHBhACa+cx/Uvap5dZa7SOVOUr9jArcn7Fnv/MzBO8B9q2Oshoe4f+g53D/Tyhz2DZK4h/sXwzvhPC33Fla6tXNjrOW+75igbovmcZoYlApJqRO4D094I9Ij98zBV/fP4MvRBdAU+LW8qb6O6ROtWE/uVb1WVxH5vndNCtW2aApZ3Xtm0bCXK+Sl6u+YxCMxPVbRY41Nj9Wgu2ovd2A+WaqVVUr9CIf2JWmh2JpO3Qt6PQajptVfur/DUKjqwdpeqKPjch2lWvt0I+0uzsdms1F9JqgtBWU4RtT7ji89acZRbtfufw7mi6VaXZCTZ49wL/GJHARoxW4tJupHbsZosv58hE2ddiQx3tyiPcs3aJu0HNs0GFP5NFn1en95lgbz09oYqB3b9wdy4LnMTn2pefUDrLNmsjPgnRC5z4Q+J1L9BPTZl2th/LwI/b+bVLx5GMwTeEj7/0OWLKjfzx4e5uVVKbxjXYHVugKrE/K3/1g9btqPeSsfnPo+n8HN4rknx9DsDAz/qhTwj/vgK0euNcSRSVqSl7+4UT23p77Bx13wQmPGchep7X/lDKq3VWH5K3Uxu6GxMyztTi79xYMaQv4paR/H7oXGTmz37CuftvDlfVY6peb57BOa7zTz8J3a/63FOJWl4KqjbvtRsqN6rNfwzIbmUrGjlIodpTgWx3ZKopCQHqvosUbGNEdPwq+nOrRQnNpBfbVeq5u9J5eyNMMCuDl/yUHeCoUyU8+Fby0Z6XSc3Oa7bvcH9SwtGIKF84CHGt0wNzXjGBClMFcR+XH2aBvf1cc9V3Lc8yj3Z9khrZ2GN/3P5VD9cuYNtgNV/KX1aWataiQtq6fCt3YGha0fjH22+UILDAxZiL+0gLF3kybgoEY5wn4S7t7PR0/+mIenwZ7dWTxsho/+swGWzCCLe8hyvUC+fuxlL6AZ39rfdDKeagh4F9brEepevJQKy1956YdbYPUa7uuhaoatXsPstH0sWbiHGb8aTVqP1PIQjh2TaX3JwassoKSnLibaPftLC18LeWIDXqMd1H+bBWU4M/aSb7OFPKvL9Qeje+agjSmvYfEZ/7h1XLWke4CENKw9yk2gx9pVzVS9E9rLFRTlWjRXrxOdPjgwhJavFTuDYnhDHi7I5DDqcMFaV3AIN/HwvWi6EAqGBla96+UtSxYwgZGtf2D2biAL8OzCWvBepzMe6rQFIIuHzXdC/+m4XNP9W10vMMa5gsfjdt8aaW3PZbbFP5FlRtqd0Bqv8jXcn3LpqVxmp+mTidQwbbw50/oZs2dP9k90WvwNkvhrnGuJ8Z4NGsiXlw6GMAhZpNzZzJFgJ7Oy0P/RFY/6I+Hez8eLo4w9JxgJGQoWPdZweqzhcHP+Ul9Vkg1QJ1H19ZWtU7VMDfumZ8TY7v4pdL7DYVrQ1EzfEVN94Vp7Xg59L53vniF0FZEfpBNri8WoNh2h4ZujIy8RmGYlq38Dxyuq+EtrElkW3UMs4fuTkmi7EHivDxeoQwzJg6OEr3XC9ZlOxFZ/j1PxJ5rNE1hiyaL50Hu+bQ2m7/DctM6H77ngpd+kGQSuGmpg1Rw9NLwCq3UXDZzDadWNaiVf/Rj+ObqL67MsCyjZUWqY0OPhDx9/RvvH+9UxSMsCLEM/4+M/+GPs3dH9nfGrUip2GCcn7eH4WTh7XBsXXDydnKRzHDeMr6ofqdrQTUw8hGNHKRW/8n+afPwHD+3tHv7gBjCx2HKP/9qgW++Z+1avoWKHcXJQ9HsG8M+7BvK11tOdC7zzbtI/83Iq5hYEE73+zm0OYvF0cvRwskbX7//1JTE9VtFjDavHGo6qZdVkK35FnI79peRXguoJ52GYIkW1TTfmxglS6rk+b9ZVRE2e4vOa9clLASHHYQrKHG0yUmUh1dmKb7KT6mGqE4SuH5Uc+fMupo+YyqaTgROYMvMbWZsPer84DFDwBve79Mlu2jP2TWQzfmg1sNOq3vsxlY3M0m+mqZG1+YZ+FqbPhD0nbP3XcgsKiTE4p/Eeh1tfIH/SOZxW/7bHnd/CteoFXKvULZ/XapOcKspYP7iI1b4wcedlNaH4ypET8NMf8Q+l0v8171s2ojJ7Rymzoyw5+Xj9Fj5+7adU7FD/f/YtR8CyFl33V53Qp27zLbUBIJeKHblRl3y887Ma7t9RSsVs0JfbGJe1NFzsgGHpDLHq9ehLbVSGPlVKzuIoS0TcW3j1O2t4aoe2jvRsDUvWGwyeFrkyDcgC/bOyB+4ZlPKPCfCVX3cOYz1hzoHzJde0dC16/Z0JfGadlxWp999EdgGQgNG3W0DdRvRYby0K2JQ3He/uub4lN4Gzv4UbxT9tx/ki7R1uNy65iTfWYpwrzNT3tO5vQRnKHCKPYV8z6uxb88keWquu8Y+F5/hH67NB61iBjI28N9LLf4Rax3qjSfB3YmJ6rLc4N5se6/Wlkid2382Oic9gTcQXwi3MV5T7+ZeF5/hynIOvHYx+fFdRoyk9uZwL/MvRokwMu1a0pXA9lgBGZ9weNWlHsFGlgE0T4bfVifcbMj7nRH0n3gIeqyAIgiBcPxJy8pIgCIIg9FbEsAqCIAhCHBHDKgiCIAhxRAyrIAiCIMQRMayCIAiCEEduKsM6+bubeOW7k250M7rEmMr4iV+nrz/G8vWJmotEEATh1uCmMqyCIAiCcKNJ0HWsP+K5J8y0nRjA6FF9AGj874Ws+hMw4N95ZW426tZz/G7TGl4P2KZzhSPbnqDk4nyee8LMR5vW8DrAt55hq6me+W9vZfJ3N/ETTtMyKltNX/fZUcp+80v2Dfh3XpkAp/pnM/pOQz0RWx1BWzOUhuyhcQa9T50Gdlof5vC0LSyfBw1pk7XytO2E0ZB9roUpPj1anUANTzV9YXMPZ4oRBEEQEjjz0j0Mp4L5m2pVY/r9f2fyn5qYNTeZvZsW+o3kj/+dM7/5JT/ZhGYoN/OT39fGXEufUcl8tGkhq4DHZr7GrG/BvlZgcDbJ/72Q+X9St0/97iRej1CuT1vTIKC9cElV+DR6FQ+zriJCuj3TZNKcmayr0MS1K0s4XLAydFm7F7BBE+Gex4Y45zQWBEEQukICG9Zz7NUN2cVf8pPfAN96hkLuIfOJ1/iBfthnbddUy5UTis8Tff3theofA4DPjrLzT+p/z7RdYWrEUqJpa3aDy/t4VzO2fj3a7uMuzo+D5JogCIIQjQQ2rGG48A7z3956o1txfckaSDItN7oVgiAIQgz0rslLf6qncfD3WDkg/CF9kjupqgID+OYAgPk89717eqBh0bQ1o2jIRvFsx4zNoq3epenRRtaQDadH2x2dSkEQBKHr9C7DylZW/fdFRs99ja1PqP+My2v2/f6/aRw8Q9u3STPAW9l5Au2c79F24lyPtOxwwRu0TXqata5G1roeJbn2WW3cdCXv1sL4VY2sdc2gtbYh8Lw394HvvPcYo+/oP5nHXY2sdTUyizd846bG46e07KPRUFbz6ndoND2qlXUMm0Go2t3UDBjF0AVBEISeIEFnBd/i6jbTtrD8SXhzzgKfl3rt2ClTcvH2tE6lIAjCLU7vG2MVuoy61KYvnu02MaqCIAg9jHisgiAIghBHetkYqyAIgiAkNmJYBUEQBCGOdCkULAiCIAhCZMRjFQRBEIQ4IoZVEARBEOJIlw1racUnnKv5hOPFX/ZEewRBEAShV9Nlw+pYcjf3lKbCxA5Ke6JFgiAIgtCL6V4oeM/XJSW8IAiCIISgm2OsX6fl8hcMeSi+jREEQRCE3k43DevXmD/vG/DTTzhXcTW+LRIEQRCEXkw3cwV/ydY3/wq/vpt79sS3QYIgCILQm+mmx/p3Bva/jfNiVAVBEAQhAFnHKgiCIAhxpHuG9aG/MzDODREEQRCEm4Euj7GWVnzCo8Og/cNv4uiJFgmCIAhCL0aS8AuCIAhCHJExVkEQBEGII2JYBUEQBCGOiGEVBEEQhDgihlUQBEEQ4sj/B1TNQnAgjWKhAAAAAElFTkSuQmCC;" parent="1" vertex="1">
                    <mxGeometry x="150" y="285" width="516.62" height="410" as="geometry"/>
                </mxCell>
                <mxCell id="4" value="" style="endArrow=classic;html=1;entryX=0.058;entryY=0.622;entryDx=0;entryDy=0;entryPerimeter=0;fillColor=#d80073;strokeColor=#fea4c7;strokeWidth=4;" parent="1" target="3" edge="1">
                    <mxGeometry width="50" height="50" relative="1" as="geometry">
                        <mxPoint x="-30" y="500" as="sourcePoint"/>
                        <mxPoint x="20" y="450" as="targetPoint"/>
                    </mxGeometry>
                </mxCell>
                <mxCell id="5" value="" style="endArrow=classic;html=1;entryX=0.058;entryY=0.671;entryDx=0;entryDy=0;entryPerimeter=0;fillColor=#d80073;strokeColor=#fea4c7;strokeWidth=4;exitX=0.639;exitY=0.717;exitDx=0;exitDy=0;exitPerimeter=0;" parent="1" source="2" target="3" edge="1">
                    <mxGeometry width="50" height="50" relative="1" as="geometry">
                        <mxPoint x="-20" y="510" as="sourcePoint"/>
                        <mxPoint x="189.96396000000004" y="550.02" as="targetPoint"/>
                    </mxGeometry>
                </mxCell>
                <mxCell id="7" value="" style="rounded=0;whiteSpace=wrap;html=1;fillColor=none;strokeWidth=3;strokeColor=#FFFF99;" parent="1" vertex="1">
                    <mxGeometry x="-230" y="-40" width="130" height="20" as="geometry"/>
                </mxCell>
                <mxCell id="8" value="" style="rounded=0;whiteSpace=wrap;html=1;fillColor=none;strokeWidth=3;strokeColor=#FFFF99;" parent="1" vertex="1">
                    <mxGeometry x="-170" y="575" width="130" height="20" as="geometry"/>
                </mxCell>
                <mxCell id="9" value="" style="shape=image;verticalLabelPosition=bottom;labelBackgroundColor=default;verticalAlign=top;aspect=fixed;imageAspect=0;image=data:image/png,iVBORw0KGgoAAAANSUhEUgAAAVEAAAAmCAYAAAB9JqiPAAANB0lEQVR4nO2dbUxUVxrHf91srMQRA84qWgfcMlgLuunE3VCdboIDdMVszNqWtUL40nR2BxvtLiE0ig0xdSQlxO1qK6Q0/UKQupRqmgZokNEPRZdUdzZxsQrD1mGqVQNDeItbv3Q/3Htn7gx33pgRKJ7fp5nz+szMOf/znOfcufeJ9PT0H5F5+ul13L59m1j44YcfIxcSzAv59hrepIVd1a75NiUE2zlW+Bap/Tuw3ZFSdHY3Kf0ZeE5H38ps6iSctR9wPsfLse63cQTnWY7QVpnKlzv389F82CZ4pPxsvg0QPM5c4FB3Ozz/Abb5NiUurDQ+D59qCOjr73fQUZnN9XohoIuVJ4QnKhAIBLNHeKICgUAQB0JEBQKBIA5+Pt8GBPP76ly+sPcFvFejztPK1yK4vXDvo7Ur3nICgWBxsOBE9At73wwhUl6HEkx1fnD9aERWQV02WAi17IqlvVDtCgSCnzYJF9G0klzWfdPHFWdQxprV5L0MV96/x1SENmIVGrVYKa+1BCyUl6tOV8QylPiGE0YtkQ3nVQsEgp8+iRXRNavZmHprpoACadvXM9XbF1FAY0Vrex9JhJUykbzLaLfvwf2KLb1A8PiQUBENKZRhxFVN8HZaa1uvlFG/DteOuq6SF07gYhVALU9TeJ8CweNDAkU0mXW/vMd3Gv8a0f1KD4OuqLfxWmIUXCZUfiTPMtTWfzYHVup2Q8VghaAKBIubhImo7ncGdFdc3J2Rk8zGX09zw/5DzG1GOkgKVS7UAVEozzZSWqj6seYLBILFR4JENLRQhhbXyGgJWrTCGqpsOC9Xi1gubdJqX3ifAsHiJjEiakol7VsvV2ZkPMmaLLjdHrsXqqAW0ng9vVAebCzthtquR3M4JQRVIFh8JOAfS0+SZV7GzQsTM7NMa3jG62Hw+9hbjXTIFE29SGW0BDBSP0r8Ux0HDW5biKVA8PgQvycqC+UXM4RSFtf2W7NqVkvY4vVEtbbaka7rjLbfWMMEAoFgcbCg7+IU7pKhcJc4aRHN9aThrvUM11e08dhw5QUCwU+TBS2iAoFAsNARd3ESCASCOBAiKhAIBHEgRFQgEAjiQIioQCAQxIEQ0cVC+X4cjv2Uz7cdCcSW20Xj2vm2IpAlFdcwnWplyXwbMoM6DM1uDCXzbUe8bOdYYTvHls+3HdGz4G7KHEBJD6acqzirq2ZVXWd3k5Xufz/tPMrA8aYEGffoKG+qx/SvSv7U4E/Lt9dQvdU/sqYuNybsUcjBj1Yub6qnOFPJnaSv9ggHuxPSVdRYNrbzCu0U3FElvvYGDbsypNfffkn5X3vm1qgIqMdbwseauZUNtm0sU95PXqJ/314eJqLtoHm2pOIaOaZkX/ZI51w+jvoCh/5p4VzhB9g+e4PGueo2Dha2iCYA3wAwt7LBdgC9uYmR3vm2anb4hbOADx2l1BaqxK3hJJaGcLWjo7ypnmK9E7ulhXmTqOXvcCD7Lp9+phKhvBLe3QWf/6GKTqDob3W8W32Lt+xDc2raw+Ob0byjo7mVtSmX6C9LkLBpoRJOnd3N+gqrSqir8JTNztlQIwnofQbLNif83r9RM/k2J663cyjXSmPfwnd6EiCidRiat/DAuQqDvHr5Vy4r+lOHMcgOVICg7QRvyjY5z8VgWb70owWvuMNXfT1pr/RW9KcOgOs+BpMxKE9FrwNv6TaSMoDeQLsCVvWSHkxFRjljAk/jZll0g+oMn4nCQy7gQ8cOlNYCvMfy/TiKZa9q3Il9dws96rTMehzFAG7aLCcZmNG2l+FuACO1Z23krvCXVbQ0317DHlykbTWhAxjqwmI9P7N/YOqyZK8pc5K+Wi0BLeBDx7OMXk4lV/aIXW2ytxzQlt+GQA/XSO3ZUjh1hIPdBXx4djWjIyZyMyHY27U8lQ3X3w/wQp4xZ8LXp+mUvhzWrITklbk8wxA3w/0EmkhjdkwZcypPbEnFNVbzH5JM8hj0/c51GJr3oAdtLzBjFcvGrgYJaOCYiTxmszA0b4FhI/r0CTxOKX/aeZQBjf9nPLgrjXG15xjgNcY8z6wkG5MZ6dQS0HDzTPXdEDTPS+GW/F0tqbjGek4wcLwJnf0aS0dDz1nHjS7++NJz2CBgHOTVtFGVe5fPdu7no5lfybyQoJiokVRO4CzLwNl4iaQXpJiRzn6YpK8ypPSyM1B0Db1ZrpK+zZc3OGxkbYUVqMNg24S3Ua7T6d+uLqm4xtrRo3JbR/EaD6viP8kYVl719fPA9KokGmrMFlKXuxg7DdDEyD7Frgz6XZtYX2EFrOhfWIVH6b9ss99rLXkVw9gZX51oQgz5djNplxuxWCqxWCr9AlpYyucverHL6fbrRqqbCiRv0lJJ25AkUFI9vyjqttpwOOpxOHZAm5Lu4uDuSiyWLrQ298atqXRa5PxMM7WFcv/F0Kb0f3lSKlz+LMZxF+e7kWOs9TgcNVIdADLIoUWyq9ZJ2oul5Ae1ZWmD4rOl5Ef6claYyLkvfzdtXnL3KXW2U2CA67cvBBR/Wr+c0e+HgHyqzv0Z/c1/o3G3hoSgN63ijjyWRtKL5DFbhUce39PqwuZWNjS7pYU3fQ+mZjem5h50SOM/1RXrmDWSNHqUweFkDMb79He6WLYyS6qyfBs5zW5MzW6yOOMTy4fHN8vzSOPDxDLP1HNE+VwBcVYtm63oT+2BzhDzPCTy5/O1dSCojgvvZCbPLbCYuBYJElEXd5RVpHcvA/v28pA6UtJBX+SWB5Z/pQJg8hL3lEEwKk+Hki3ohzs1ttvSCrnMdFhuS+URAjCBp0MRtSo8ymqLqn/bJryN/nSdXbHLrYr/NPG/sWQMNo0Avfs+0+l7YjpU6PnOKwlfU0FAen6eEd0KE9WOehyO+oBYZzimfILcBcVqcQtXp1MW21uMjvv7x5cegoaTWCyN9I2rE910KgtBdwu7drfQY0xFN/SNv62Gb3CtSGVDRMtUbUVdJ5+qc9sYea+KukcYkpl2fiKPk0EeTEYo3LuXAUWIhpVFNp8prCxNmcDr2442MeGaICnNKr8PNWb9c2nkqyBvd/KSLDoZDLKHDRVWIhLTPJv5uQKFWcvmLJJ8zomUPjacLO34IuD/fFp1LjCssUpePFLMzgXkhcIjj4mqtg9qIq5SWqi31tGjGRQv6SEr3W+btM2QmKrOwIkisqr6vXsZ6MW3Qi+LJrCvxCnL90veo2o7Hd/B0HmcQzswGYFEHvi4vEwVS2I2p/HQwtWkRSjy35FJdu3axtfvvcPHF4HXUkhmbC6sW5BM9btYlpOV2EZ7PTywbWKpGabm9NzAytKU4LTtpCdP4420iC0AHuElTlWM+bYPUeK+z3T6FnlbU4fBF5tsYsIFhp11iTNv8r4sgHWsVp1EKkxVZ9DvVHsOMr17GSg7w8jyVQEeaV5NGx0dbRyxaPTVcBJLrZMp/WrygZ6LLthaFPZypLR1xjC5UuxydJYa3POdF112rrR9LizlTcUT7m6hcyiD4iDPOSwuL1OZz/o+S77djHHc64vh6latl9NL5bjtTPLzjCpv9gLnPZD91PaAMjd7h5iYGKL3IkAmr+VlMHGzzx8PtRyhraODtpq8KA1fxVIzBI6zRCLtalJzlfEjjTMljhkvuhwj06ODs6sccp5Vcc8JhtJYLuEa5MGkkRRl52ZuZW36BA/c8ntlnphbWa8xz6Q66lCbgpHU5XcZDhLRsPNsnniknuhU9RkeNB/G1HxYSojkvfXu5c5ON1nNbsDFYKcLfY6U9fD4CTynDmNq3iMXDuHlRsPpT/C8cJgcuR+Pc4IkIDhALvUxM3gPUiDcE6GbwEuFpDhnD0B3C3/Pq6HaUU+xKk+5pKnhH06KDtpwOEB9sCTFRP3lpYOYwMMro6OeYvmgKiQNnfS9aKPaYaJ63Enb5UmKlCxrI+lnbZLnDMAkYe85NeOzuGlTTvare9nj2CF74U76xtVilUGxUmfciX33eV+O4/Z1DhS+gu3GBf+hwsXTfGx+m7+ckxfSb7+kXH0y7/Bwt/I3ZP7CCFwMZzGSWBSRY3NjsE3gcbpgZYQqQQcxOc3uiIeLweN/2nmUgXguFZJjooDUt7ztD7iUL92NvkjetYVqJ+w828yg3e3vBxjpD2dUEyMtFjbY3JjkQTTSmSHvGAP78TgnSFXV1Be50ReBsstUz2XLxh0Yb3dhC+rt4p27VJFJ9m/zwBHpd54bxF2cBPOAdNLvVB2aBWPZ2M6hFV0URH2JSx5HWqvIvlFH8ZGFMbkEodHZ3aT0h7j+dPk7nCtMpUvzOtHXOdnxO7z1xdQ4Hr2d0SD+sSRYkDhuvMynvBzdP5asJ+noEAK6ONjOseezud49U0ClrfxLcHbhCCgIT1QgEAjiQniiAoFAEAdCRAUCgSAOhIgKBAJBHCy4G5BEekBcqGfHhyPUg+Fm8/C5aJ76Gam/cG3E+0RTgUAwt/wf9ySm51HLIxkAAAAASUVORK5CYII=;" parent="1" vertex="1">
                    <mxGeometry x="160" y="130" width="443.42" height="50" as="geometry"/>
                </mxCell>
                <mxCell id="10" value="" style="endArrow=classic;html=1;fillColor=#d80073;strokeColor=#fea4c7;strokeWidth=4;entryX=0.252;entryY=0.134;entryDx=0;entryDy=0;entryPerimeter=0;exitX=0.537;exitY=0.98;exitDx=0;exitDy=0;exitPerimeter=0;" parent="1" source="9" target="3" edge="1">
                    <mxGeometry width="50" height="50" relative="1" as="geometry">
                        <mxPoint x="-20.000000000000227" y="510" as="sourcePoint"/>
                        <mxPoint x="230" y="340" as="targetPoint"/>
                    </mxGeometry>
                </mxCell>
                <mxCell id="12" value="" style="endArrow=classic;html=1;fillColor=#d80073;strokeColor=#fea4c7;strokeWidth=4;entryX=0.116;entryY=0.134;entryDx=0;entryDy=0;entryPerimeter=0;exitX=0.393;exitY=0.273;exitDx=0;exitDy=0;exitPerimeter=0;" edge="1" parent="1" source="11" target="3">
                    <mxGeometry width="50" height="50" relative="1" as="geometry">
                        <mxPoint x="408.11654" y="189" as="sourcePoint"/>
                        <mxPoint x="290.18823999999995" y="349.94000000000005" as="targetPoint"/>
                    </mxGeometry>
                </mxCell>
                <mxCell id="13" value="" style="rounded=0;whiteSpace=wrap;html=1;fillColor=none;strokeWidth=3;strokeColor=#FFFF99;" vertex="1" parent="1">
                    <mxGeometry x="-170" y="490" width="130" height="20" as="geometry"/>
                </mxCell>
                <mxCell id="14" value="" style="rounded=0;whiteSpace=wrap;html=1;fillColor=none;strokeWidth=3;strokeColor=#FFFF99;" vertex="1" parent="1">
                    <mxGeometry x="-240" y="-88" width="280" height="20" as="geometry"/>
                </mxCell>
                <mxCell id="15" value="" style="endArrow=classic;html=1;fillColor=#d80073;strokeColor=#fea4c7;strokeWidth=4;entryX=0.474;entryY=0.4;entryDx=0;entryDy=0;exitX=0.906;exitY=0.121;exitDx=0;exitDy=0;exitPerimeter=0;entryPerimeter=0;" edge="1" parent="1" source="11" target="9">
                    <mxGeometry width="50" height="50" relative="1" as="geometry">
                        <mxPoint x="408.11654" y="189" as="sourcePoint"/>
                        <mxPoint x="290.18823999999995" y="349.94000000000005" as="targetPoint"/>
                    </mxGeometry>
                </mxCell>
                <mxCell id="16" value="" style="shape=image;verticalLabelPosition=bottom;labelBackgroundColor=default;verticalAlign=top;aspect=fixed;imageAspect=0;image=data:image/png,iVBORw0KGgoAAAANSUhEUgAAAeUAAACrCAYAAABYFYTKAAAgAElEQVR4nO29f3Bb5Zno/9lvOwngxAl2fhi3IYllaOoAJukaAy3flZWAjS7l1jamm5ZlvsNKJV7HLJ3NiGEp0VVoNt9osrNcHN+EypeZy0C9IOx0KHuwSyJrhy6JUUtiSNS0WHZCtsH5YRE7EcWZcu/945wjHcmSLP9Wkuczk4l13vc973teHZ3nPM/7vM/zFzfeeOP/4WphzQ9pWLKP5s7Tsz2S8bHmhzzzzSNs+3lPdpxHEARBmBb+4qoSyoIgCIKQxXw12cHrrrtupschCIIgCFc9SYUywOeffz6T4xAEQRAmwerVqzl69Oi0t7naSZyzTOZw9erVKcsS26YUypcDdtc5nuB6bnV+ZYyaI+zvHOG3lbk4pn1QTSjV0G5tpGXSJ7PRpNTAXiuNnikYG1k6Z4IgZC3pBAqMFipXG0ePHk0qqI3lxv+NdY319L/TCGUzrlYHZQvUT6EpFAxTwuPD/OSb1/LThw3CxfwDdjx5O7kAw4d5/tGf83sA5rKufYQTr0f4+OEcMr0Ms9OLozxH/dDXjnVTC2anlwaaqXP5p/Jqov1N17mBMebsBG9+r5m3owUTm7PsJP5eZiiAe4OTqZ5l4/2Sdb+XKcOGde9P+MsFAL380rKeQ7M9pFnhGm64ycS8CyE+Hvgi7ticc0c58dmsDi4jdOGQiaaXqnwsgT1Zrl++msJ56t+XBo1zPT6uKbiJZZyccHudVAI18XOm82pEr/v/JC++B1erg5JjbqxWK1ZrO1R7cVnGeQXTxgj7ay7x3otGYbEOx5Mmfv+8g/rvOXj+9yae/Jd1sSYv5vLa4CBPuL7MqAez04tjVRC31YrVaqWdGrxO89gNPY1Yp0RLBmih0TpVD/ckc/ZYA7sfg5eeP8xwsibjnLNsxbbLeC9bsU6DQAbwu+rUe6VvGk6eNbSgVK9gq+U1js/2UGaVL/j0P8OQv5Tr9UPXLyWPMKcvI4EMMQGSdVx7A4vmhAkdPcrRo0cnLVAnS6JANs6f/k//nKq9Ps/Gv43lkEpT/v8epGywHWtUY2uhrbuSWhPgS9A6QNMioUkpJdxdQNkobUE1w5q06tHjFhdeOzRrD8mYplhMU+sywoNllBUBRAjsrMPp007w+AjFffNZt98whsdWsbL/PdzakIsWzYeVq7if/VHtz/FGPvc//gV2xtL8bNSWD9BujT28W9oDVNYUw1mACpoUh3o9mgYdr42F4szXZqeXWoIUlJeRE9cGzdxtivYc6Y61SaZ1jedccfOWbM5eaqb+JcD8g5QzkfGcFT7HLbY8PtnaEBXwuY90kB+son/gOW6xlaG98HLx/R0c6egCKlj6xCb4wwAr7zAllCXHtkuhlBCmIhOR7gAD5WWYhgK4PdCwOY/O6Lyr30eez0q6DWC2XQo1Rfon/Xuz0aSUQp8JU1GEQPcAZeUmIt1u6t6twFsDwfyypN91SozfTVRTN+NqbYBj6vkBtY/o70793RTEHUvHDh71fZ8V2qfzB37KC8+0EK/dAkPv8bPqH8C2D3l4yRkwFbMw9B6/WXQ3f7lA1X4/3fYh93GEhXfdzUKA0GtstT81Rv/x/Rz3ruDl3fq4vsW5A0v4y7tyE8pQnwObyxi43KwLf/qUk4M3YVp+PZ+d+BM3LJpD+D9PoIoOVWvOm6NWjWp5197ATV+Hkx9/yhdMnQank0y4JgqJZMJlLM1u0kL7+uWsLpwHXOTU0RNk9N5yzRzmXBpm1MxEzwVcChPS5tKoVUf7ufYGbirKQ/0aTKzOB7hEuO9jPv2TWlO/tky02vHUTWQs87X+HSTVlB+9ZSmB9hZsuxQURUFpdcGpAQoKzZidDarAtlqx7gwQIUS7LhQwUUJztKzA4sKMGVerui46Lq17QRklZzXtZu8AZXYXup7qvv08vYfnxlX/xg15DJ87Dph47GU35nOH6U885/6vcmbBn7CsSyxIwF5KQXcbLfYm9foVLy5OMpC/jBIgpzyPHqsVq9VNIL+GJjuAH+cG9fpCSU5pKs+jU7v+UFGlev0WF95qaNc0OHd3JFo/ndaV9FzYaKouILDTGm0X6W6Ovsgkm7OMyHTOTj3LJ30m8tfqB+zkF4UY/EAtO7K1ioNbqzi4dQdnb97E0kK9Xg4rFx3WytqI3PGQuvyQBlN+GPfeEDnlJYR3thNakEexz0lnn4lSu1bJUkEJAdo86gsV5Q71e0y471o2WWMa9F6o2WXTe6HgrJv2vhzKVmn9LS5Wi4rKyPPp31mBoU0KLC68lnDU6uI+VoIj2iaHssU90d/GQHktY5wtJQXb7mfhgZ+y1bKCrZYVmkCGmHar/vtZ8BYe3qb2stAE725/j/Omu1n0q5/ym6El3HCv2mrFXUt417KCrZaf8ptF3+fR+vT9r/H8hEW/0vt5Deo+xHqvXlpMMS+oZdvfY+F9P6dggteZTXwxcI6L8xZxQ8FS8i6diz7or1+umrZVgRfi4nwTy69Pf66pwKi1GbU3iGlnqQSKLhRSCfZ0507P9SyPSst5LCq4Jn31a2/gptWrVcE7r1Ab03LVInHtDdy06FJUew5dmIdJm9jPThjGdgoKl18Pf/qUj48eJTR4iUuD+vcRE8jjYTzXbNSIx9tHUk3563mnOY6LyvwA7p3QUHMSP3k0jHnKEJ36G73PSZ0PwEbtghA90TfgFnr6aig1QVLplexcnh5C1aUUwxhmxxU89nIli/wOnnppHY5fJP4KvsqZoTEvAnNhAQOnwGUpILDTDfZaTvogT3vgR7rbNM3IT9exBhoKzWOOLNaml/BQpdrPPSXQ3TxuU3eyc00fmc0ZwHAwREmJnf4PPLD2dpb26S9GdlZuqWVptGbE8MIUod+n3xwe+reO3U/I58RPE46+Tpw+aNqsHm/pCaGU2oAWzPeUMOCrU78V/V60uPBuVlDssTXlOL8BgD5dr9buv12OWH96nSFV2AP43w3SYF9GujvAfE8JOQtycChK7BzRl60IgfaY8Gy0Glu20GjN/O4Y+M8zLKz7CVs8N43Satd4jvNdgxHl/AH9/3/lEBbuGXqPX+2GtfcZ6/yrtl7cwgfBJ3j46+rcJmcHt5pghek4W+r0Y8Oci5b38q7+kvDOD3jhHUPT6LPicuQzTg8uwpQ/h3Cfrv9dwzVzLnHxjK7jfcFnFy6xbO41jFb7Zo5MBEpWOG396VM+PvqpqhHnDnPUsEB/zYJ5zJkzB9PqvFj9i1pZwU2Y8ucYjiddlBvFeK458aXGaGFItiSQyvkr3Xp0UqF8PZ+xz5RH5bE2/KZaGs52YSutYaDHj59aHOU1KEoNoJpWp2b9NA2WZRRAWjPk7z8Nk/tgJYvedOB+CTAvJX9UrT+zZMEcfrt/dHsjxYsh/G4xeZYgbb5iau1huuyl1Az20EYJFXF1cxjomSbHrHHRS3iohrLNCspmVBPppqkYV2ZzBsAHb9D/HU3TLSmICtvcR2pZ2tfGwVc8RE3W04GnjUBrLTbMLFscpM2VUO5zUqctv9TawR9y0VAOgZ1W1aJgb0IpHWefpjxyCI9ZLZLUBJ2Bj8J42L2erbuB+n1s8R2PmZzr9/FdU8wpq2Dbhzw8zlPfsCQXzoxV6+p0/Ppi6CKX5sNnE9C+LhcmZ77+jBOncqPm63OTNNUndfi69gaW5UO476iqBV+/nNVjmdzGSaL2OxEnLr19Ylvj56Tm68/CQCismvwsBVDuoCZf1Q5spSZCe2Mmv7HXgHoJDxnNii4qiyKEdS15QR7F2vEGo8ZiwHxPCTl9PVHh7zi8kOLbR+IrvXSMfk7w0Uvqx/v/6+3k9h8zeBMD6/7MkqGv8PFYIz47oI6bMhxKJQWU4aguMGg0OjZKjdcyTvynBshZVaE+mtNcf0Zo5lp3CmempHOWCRnOmUoX5/9QQP5aO/l5Qc6fipVcPNer/rH2IVYuHP8wMsNP17ECSp0V5J3tSqG5FpNn9IdggJM+ADMuiylpi3TYSk1EjqXqSxvVu0GYkFnaRpOiZOZgaGT3erZuf4/zi5bFTMRDZ/gUgB3cd9d4n1Y7uNU0TK8/3ev3U3wUKuaebRMwvltceCdynVnLF3xxaQ7zFuhm2utZmj+HSyOaIJkzh2tBEyRz4ptqptubxjLxzjCTM18Dn53Q2mS4npyCL4YuxjvXxXGJL/4EcA03LJo3qnTO3GuTtkplsk8k1bVn4mmt95Ho6JWs3+SOXnnXU+xrSGpS8veEUKoVlOrYsfTbP/w4PRWq2bA6Vl9d63TSWaNQoyjUECLQHaEk2s6kHUdzjDE8EF6cS2/nBVrXzWVDVIPbj/vNVez+hZsHQdsSFa/euR8ahN99LYPtPQXkmfw0bhj9qDXfAznlDhTFkXAt8c5sJkWhRnPoSYmnjYDFoZo1hwK0d0fQjdFxDkhFCkq16rSV0gXK10XQ7og3kRq3/iSbM+MWMuDBX7h5sL+T+h/H5i3zOVMZ+TBIjq0W3t+B/gow7AuA7SnuvOMp6AvQf376VhP97wZp2FxCcKc+76MdEyPdbuo8EH//RQh0h2BxBp0sKIvNc1/MITLVd+b0OWm+x4tDv5+Zni1TiSbq494VDADs/ld+c99P+JHvONDLbw4Mk8l70cK7fsIW30+i51LegURnshW+43xXcxw7ZH+NW32xNrpD2cBYHflOMrC5DNOqCsz4p8Uzfqb57MQpclfrjkWadvcZwKecu7iawtWrKeQi4cFLxImPP33BJWDe3GuZVVu3RtYFF9Gd61avRndLuXjqKCc+M87rJcKDF8HgQvPFwDkuri5k9epCEh29xkuippxua5nRkS7xWKpzJ419Xbn1Df4+ryPm1RtF8xb1xDyhzU4vjsWdSepOBtX7tSedV+vjw5xY9xV+muke2vHUt7jwxnnyXgbYm1BKewzfg40mpZJwnNf6NM5ZtjBqHqaYhB0DVyqqifsFg7PY9GLbpVB5NlMv8yuZZPufM2M6InpNtvxKIpnZOlV0r3Qm7lTCW6+fVFN+9/9/lGXuN6LrxrFtH6pjk0Nft4TRWuxM8WIuPy08xxOua/BkEp2qBl6rzFC4+JzUmVTP6+nUbKYUTw8hpcbwnRm1eI3pnLPZRt9yNFv3ozAxtO1QOX3GLZhXKdpWn0yDZCQzfaYyw05EcE7rFqnLkHRby4x10jl4JTuWqEkn1ZSvu+46iX0tCIIgCDNMiohegiAIgiDMNCljX0v6RkEQBEGYWZIKZTFdC4IgCMLMI+ZrQRAEQcgSLmuhbHed46OMMhiNsL9zGPe0jwjVC1hpmnD84njU4BFN9rFrZkpWzpkgCIIASD7ltFwN+ZS/8cyzPFk2X/0QFzjkSsmnHB/URSd52MsMyeK9yms8x7n1A0MGpkkw03uV40mVcSqB+n1sWfvbDDJYoWUy07OVhQhubWCkqo01d+iR9CL0t9RyWotEN9dYFg0TKwjTSwpN2Sz5lK+GfMqs479+I8Tz33NQ/71O+ldW4njM0OSKyKeszqHV6iYwRDRErASpyHLq/5rioJbxytvLirp9rBlPe3sTSkL2rlxLGZG39GxlaorRkY5a7XMVB98aYOVDz2mBoOwU3hzkkJa97HRRLSu1DGi2XVdSSFAh20iuKdtrJZ/y1ZBPmf24H439/VF/JbcmzMSVkE857UuNHrwCiH1v2nc5qM+tntf4LYKrHoje+3qoTV3rtu1SKO0x3vN6VDpb6t9G0v6jV5t5PuX6fWyp01JLRjM1GRJEGMv18Jf1+9hSt4TfbL8N5R1VM/7RXWf45fYz3PO0lkcZPWzmsFZPzY38kfG8mqaqatZHOH/X3WoYTmOYzWT9p7ue3et5Ifr3bzle961Y2b0/54no+IDQb+Oaqr+dAdrjMmxVcG1ehM/TdDp3SQGED2vhYT30RwfgYbCvNprgpmWTm2WtDrxOknwv482BLQjxJNWUbaUFkk/5qsunvI5bV17gXGJ/V0A+5dTYaNqsz6WWT7nVhRk/zg1uAvnq3JqdldpD9n+o3/HOAJGhWPKPzB6+yX4bqfqfALvXs9Wygl+GVFOvmtNYE5z3/pwn7jvDzwz5lH/k2aG28Z7hLx/egZqo4owqxN/5AS9YVvCzA8Ocj+Znvk2LfZ2ehXct4SOtn1+eu5v76tP0nyn132KFIaHGo0/fQu/2FVEt2kjMwhV7ucl9pIM7tzzFyoU5rLR1cOeWDm6piuV6U8s7WHPHAMGkJmo7+UVGga7+1jsXO0Zp44IwWZJqysvyBzgp+ZSvonzKJh57uZL8wItRS0OMKyCfcirspZgwqclD9GNDehrGWCKVsqEA7iTJScZHkt+GvQlHyv5hvPmUU1FgvoWFC3K1hBTR4ajsXs8vPcfZ4lOF+WTTLsZyMMMh+wotVWSa/sfi3p/zRN0SfrN9vaZxf4sVobd5OckLgm2XQg3tWBPCrA6/UsVB3SrzRmzNOL4cWNvMnVuaCRqsPao1p5ac93fQn9CuZZMVdikorctiiV+m6DsTrl6SCuU8wnRJPuWrJJ+yicdefpyywU7qtyV7Ul5B+ZSTYTT/Jy0PERp9I00dY/U/RZw/8NM0DlvDHJ9g+tGp6T8Fmpn6fDRDVXpaNlnpdXoThOQ4+OAwpx+o4tpCGD4F6r36FCvDbRxMsqSS6iVAECZDUvN1eBDJp3yV5FO+/180gfzjFFL3isunbMDTYzD/J2KjaXMJwfZG2o6V4Eg0U+r3bQIFharx2bZrtMf3+PrXxjCBPMMLvx4/1gH/Ebjrr5M6ShVs+5Dv8jYv29+Gug+x3ptwriU3JWm1hBvuBdjBo3XJZiGedP2nZgePagI5zuu69wznTd/SzjW6f7+rDvexEhwT2Za49naWno/dt7mPaAJ5lEnbjKtVzWo1+oVK/c7ErC1MlOSOXvl5FPsaJZ/ylZ5P+bEGHlwJUMnuX2g9x20luxLyKaejhca9pSiGrGeq0xa4WlVnnUYf4GumotWBsgv1Iewz3rcxR6+W9gCVm9V7I9IdIFSUN8H+J255OfT6e9zztO6c1RtdI37d/CE/8h3nu1q9494VvMw+1bHLom4netn7LbY8/SGgrh8PPPM2x33fZ4vv+8QcvZ7iVwfu50dPH+cvnx7mNwd6WbFkjEGl6j/Ntq01Hi1nc53utKZr2z/g3YeP813fcb5LL7/09rJibXxbv6sOv+Z93TKGFSL3kQ5K9N/Z+QCHXnhWvW/XNmvHa7lzS21c+d/sUnemJP+eegkPgamoFHUhRRDGR9IsUalzJEs+5axF8imrTHc+ZUEYg+l5JgpXC0mFMiRoaoatGnEBNSBeG5syMhDKqNGpnuB6bs0kN3DnCL+tzI1pkWORsL0o64KnjGJ0kIxkY57WOZtN4vIpZ19QD2E0azzH+W5SG79hK9dlhfYblHtQmAQphbIgCIIgCDPLZR37WhAEQRCuJEQoC4IgCEKWIEJZEARBELIEEcqCIAiCkCWIUBYEQRCELEGEsiAIgiBkCSKUBUEQBCFLEKEsCIIgCFmCCGVBEARByBJEKAuCIAhCliBCWRAEQRCyBBHKgiAIgpAliFAWBEEQhCxBhLIgCIIgZAkilAVBEAQhSxChLAiCIAhZgghlQRAEQcgSRCgLgiAIQpYgQlkQBEEQsgQRyoIgCIKQJYhQFgRBEIQs4aupi8y4Wh2ULVA/hfZaafQYSp1eHOU56oe+dqybWqZvlFOAbZdCaU/8NQiCIAhCNpFCKKsCueSYG6vLD9hoUry4QnU4fQA2assHaLc2kt2iWBAEQRAuH5ILZXstZYPtmkAGaKGtu5JaE+ADLMsoGArTFtfIRpNSSri7gDJNg45q1/YmlGpTtKZR647TuNVSAt0FlCwegCITOX0BAvlllC0IRV8CbLsUaorU2pFuN3X6i0PrMsKDZZQVAUQI7KzDaTL0XaSgVKt9yAuFIAiCkG0kXVO2lRYQaG/BtktBURSUVhecGqCg8L/RpCgom8vIWVCGQ1FQFC8ui97SRAnNWK1WrDsDFFhcmAE8jeoxqxWrtR2qm7ABWFw0lA/QbrVitboJDEFobyNdQE4RdO4MECkqI8/nJjBUwDKLKsQrz7q1c7kJrnLQZNe6X1BGiVbm7oayGlu07/Y+9WVAbScCWRAEQcg+kmrKy/IHOImLyvwA7p3QUHMSP3k04KfR+t/A4sJrh+YNTvxxLUN06tq1z0mdTztsceHdXEaOoV7PGAOLdLfRQgWVQwHaPFBhATBTsSqHnAUOFMVhONvo/v2nBnAszmgOBEEQBCErSCqU8wjTZcqj8lgbflMtDWe7sJXWMNDjT1Z9DMy47GXQbVyfLlWLfCcZ2FxGjaJQA6rDmAfMznTn08zSvnR1BEEQBOHyI6lQDg8CoTBUO1CGIkQWOKgZCuCehOfywClVoJudlZgYUDVleymmcXlu++k61oCjxga+8RugCwrNwEReLARBEARh+knu6JWfR7GvMWZ+nhR+nL5alGrVySrSHSBEnlrk6SGk1KAoNbHqfe24z6Y5m6uZilaHoU1mTlst7QEqN+tmb3H0EgRBELKPv7jxxhv/T+JBs9OLY3HntO89Nju9NNCseU+jrT3n0SkCUxAEQbgKSSqUIX7b0bRplqMcwGS9WBAEQbh6SSmUBUEQBEGYWST2tSAIgiBkCSKUBUEQBCFLEKEsCIIgCFmCCGVBEARByBKyWyjXN+LzNVI/7oYj7O8cxj0NQxIEQRCE6SJNPmUAOyu31LIUgAj9LbWcPjUDo5oUX9L6+mlovxHH2JUFQRAEIWtIuyVqblUbN7GLIx1dMzmmSWF3neMnS+azvH7ubA9FEARBEMZFWk157qIcIsF4gTy3qo1CguTcUcY8gL42Dr6SJij2vT/kzb/LY4DlFC84QfeBPMrvmk+vdzM/2l3M9r0bKV+g1R06xLbqV9mP8fgJvJYmdmtV1m1z8n16Kbhrjdp/qAOLfZ9W+iWWb8J7L4pAFgRBEC4/kq4pz61q484tHZQUwdIHOrhzSwd3PmKPli+9I49PtlZxcGsbp4uqWFo4Ri8LlsOv9tA9tJzyJf/BtgMXKPh6MdDL09WbsVjUf9uCxfz9NuPxDnqTnK74rjzetmjlpm+z/V6tYN0X3MK1+PZPZCoEQRAEYXZJqimPdNRysANyH+kgP1hF/wfx5Rfff4NhAHr5/HwGvQwd4rXdsP6+C3S/vg/M344W1Xt2UmcynPvA2Ke7eOBtTXM+zuDQt8eoLQiCIAiXB7PrfV3fSJ3pBF5dUz5wYVaHIwiCIAizyexviRoK8wcA1vP9u+ZP7lz7r+EIf8KybgrGJQiCIAgzzOwK5d1v080anvHtxOf7JoNRTXk9P/PtxOeropjl1Pl24tv7Q8aWtV/B9zu4+6GR6R23IAiCIEwDV2CWqC9pff2PLNl/I+tenO2xCIIgCELmzL75esr5ChseXgo1EtFLEARBuLy4AjVlQRAEQbg8uQI1ZUEQBEG4PBGhLAiCIAhZQtLgIUVFX+ePf/zjtHc+MiKWc0EQBEHQEU1ZEARBELIEEcrpsDehKE3YpvCUG8s72DNWrHC1c/bUNLNxCvsWBEEQspsx8inPBDaalBrU8NcRAjvrcPrMuFodlC0ACNFubaRlurq3uPDaoXmDE/909aF3taqNh2hjvTEn9WMN7H5wufp3fyf1P9azaXjYeLCZffc+xx/eeRZfxr0km8+pGT+A2emlgWbqXNpsWVx47fkMUAQ+K42GhGG2XQqVZ92xurNGBUufeIqVC9VPp98aHc89FXOr2lhzR476oa+Ng69gyDFOQpa0yzH/uCAI2cQsa8qqAGGvFavVinVnkJLNTdjw49xgxWptJzSbw/M0Yp2qF4L5z/FEyQBvdBuklvkH7HgQ3vyeg/rvOXiTSnY8Y8jOcaqBN4bLeGJVRcbdmJ2VFHS71fm0Tq1ATs0gvzsWwVRqtCnYKC2KEHx3tgUysPYhFv9hBwe3VnHwrRBLH2gmd1QlM65WLy6L8ZidwjsGCG6tUtu+4gE89Ouft+6gP6+WlWvV2nOrquAttezQ+7DyoeeYGz23QpM9sU9BEIR4ZlVT1gVInS6nfE46a7wss0Bq1dCoRUOk26iJpSizN6FUx4RdaK+VRk98XYei4Ii2IY2mnqp/G02tywgPllFWBIlaquVrJRDcxR7DlXzj2yYI/Jy3ATBxQz7k5pfzDUL8XquzJxig6k4LlmNdGWnLxYtzGOhJEIT2JpTSMIH8soRrir8WhgK4oxYDo8Ydu9bmFP0G3w1SsbkUG6hzZS/FNBSkLTpo9XwF3RlozoXPcYstj0+2NmjZyBIylq1t5s4HtJGdD3DohWfRA6vGabZ62QcNHNHP/cFhTj9we0KHhrEZJ7nwRnLOh0mt7BZz3cIInw+on0Y6aunXSkY+DHLxZr2eH+eGYpoUhSbirQmCIAhGZlEom6lYNUDnBnC1Kqpg6GvHfRZKTaQUyrZdDkqOubG6/OgCssnup9GTWGbA04g1+iC00aQ0YfM04tzgT2m+dm7QBK1SmnH/LChTyzb5MTu9OGps4GsBKli/DIIHu+LOVbRoPoMfhYB1OH5RCYHDDH8j4YIvfMLA/CrWzwdfmiRaZqcXR7kmjIoUlGp1Pq2btNeJohLYacXq00zQTjMtLr92nbFzNDjN+F1+bLtUIWXVX2osYZpdfnA2JB+Ar4ug3UGpHfCArdRE5FjbxJYETj3LJ30d5K+F4Q8A7OQXhRh8BVVgfyfMoa0NjKAJ4Ufsqha7tpk1Nwc5tDUmpEex9naWxgnamLUm+nIYZ4aGNVs6iDNHFz7HLbYy5gEX399BfxKpPfe2EuaFOwzjaKHR2ourVcFbmA0mfUEQspFZFMom8gjTZa+lZrAdq68Ub2EvUJmmjZll+RGC7foDzU/XsQYaCs1AMaVFITo3JXnYWVx4N5eREz0QomdCY07Xv3reTu1h6z81gGNxJudch+MXd3PueQcv8crd9BIAAB4OSURBVAN2JApleglnkNHS76rDj7qOW9qTRBvr64xq7XpdtPo1RbFqke5Mxpx0BHQda8BRagN6E+YJVKGU+ULAcDBESYmd/g88qiDtO0w/mrBbmKMJSo0+9b/cEhOnf92QWiAXPsctDxTQ36LVsbjwbi4huNOaYOb30L/VQ3/hc9zyEHz8QoKQP/UsR7aCvlZ9C3Ckw/DCtbaZNXcMENya+CX4cW5QrTDKruLYC5MgCILG7K0pm5dRMHgSCgsI9bRgLixg4BRUrILwlC4km3HZyyC6zjrL69QG+s5dYOWDd3Pu+ed4yQ8UXZ9krbOYvPkDfDIdqabtTdQUhWi3qmv67u5ItKj3bISccgeKoqBUFxDwjO0I5383SCR/GWZLBSUE6ZrMevYHb9Cfdzu5QG5JAf2+mIC7+L62Phy31jsGmnYbecvgfOVzUmftJG/zRNd7uzj/hwjzFhXHDq1t5k5N8A+Pqq9aVlRrighkQRBGM3tC2X+SAVSN0lSt0LAKTNUOygY70zgn+Tk5mEPJPbpmaqO2PIeBU36gl/CQiUqnOWlLtY66jm1KLFyQR/GoFuPtPx1d7DsJJV+Ld9j6/X+EGB4O8R9+ABOPmZcz/Pvu6HoyAPNvpOCCnnN6GhgK0wvo16JipmIVBHZaRzmM+U8NkLOqgugM1JTBsS5VYPu6CFJCbU1J7FgUG02KgjfF9zOaLs7/oYD8tXby84Kc1wTpyIdBuOOhJC8vMHIuwtLv6M5VRuystJURSep13UKjtR2qxzM2nQoW3pzD6aD2UhDVxJN5XdtoUhzk+ayjTNdmpxdFSXQyEwThamR2t0TlL8Mct96rE+9kZFIUajQnpJZN7ZQqDhTFAWiOVh6IOdMklLn8OH21KNXqOmukO0CIvFhXPiedNQo1ikJNtE3xBPpPj++PQZ649yE2HuuKOXv5f85L336WJ3+h5bPq76R+W7wev7GkDE7uGMeWqHHgaSNgcWhObiEC3REK1IGppujNCspmvbLmuOZppL1UiTrGMRTAvSnenO8oh0D75NdMRz4MkmOrhfd3xMzHp57l4/fb4szX+hankY5agos6YmWao9fcR7T14Qc6WPqAWnTx/R0Gk7O+3tuAy+JP77FuWE829g0VLH1IPT7P1sHKuHIzrlZ13TqZk5f/1AAOTOSl8aUQBOHqIGmWqJkKs/k3//xvWbKPdWawrGrjHxd0sL47Q/fbwmb2rQ7zT+PapzwVqA5uPQav8+zZc3wFEl3bnqktbIIgZCuzKpRHRv4qzZacK5ON5R3cfrKKjWMGlbCzp+Z2Drc3xG2jmikSHcDiPLmFKUOd56kP8iIIwuXJLAtlSUghCIIgCDoS+1oQBEEQsgQRyoIgCIKQJYhQFgRBEIQsQYRyOiR148wwgXk2O70orS7Gu7NYEAQhm5HUjbOdutH8A3Y8eTu5nODN7zVrySkgW1M3JgtZOl3fT8qQoVccemrJEMGtySKBJSFuv7TabsSYjCMhdeToFJRX/KQKwmXJLAtlQ+pGD9oDvwmbrzFlQogZJWlgkwmip25sN5zwsQZ2mz/j+ecP89iT149uc6qBN5Z18MSqCnzHukaXJyGaunE69xMbtq7ZdinU7LLRMpntUhOYZ2P87suduVWbWBkOcXphigr2JpTSnrgtabkWNULZEWOEso5aDuoxVdY2c+dDz3H+hWcZwU5hNFGHmmxj5VoP/R/I/nNByDYkdeMspm7kpWbqXwLMP0g5R9mWurHu3fhTt/SEqLEswwz44+bZOG8J/UT3PKewiBjPo2e8ipYbxjVqX3v8mENaBC2z00stQQrKNQ0/Yc+1mmFrICONP/eRDm48Z4gGFpe0Qtd41aLTxrCexnSTGDTiwue46Y4BglsPk78lMaWkcWzGkVVwbV4sZWQy5i4pgPBhLRKah/4X9BIPg3215GufWja5WdbqwOtEBLMgZAGSunEWUzdmRLalbrTEx++Opmi0uPBWQ7vVGhOsrS56Nzjx22spG2zHuiFR5PmTz7P2fSU3X2vZprTvzTAD0VCW6ndto0nx4grV0QWYyvO0sdloUipxWVomZNYf9gXgIQtzO7rU1JG3lcAfdjEC5D7yFNf9uoqDWrrJlVvaWDpQy2me45YHILi1KsE0rYbmjLxVxTD2qKCMXpHTi2NVELc1dm/mPtJBiR7URQvnaQwZGisPJclSpY4rvyjC59FrV78D2y5FMlcJQhYgqRvHxXSkbhyLLEzduKAsFvu6r10T3LXk9PXENE1PD6HqUooBfyhMpLoGpXXZNEZsKyZvQYie6HW30NNXo77gAZHuNm1svYSH4u+xcZnCT/k4yyYWFsLpUxUsvBnOvtGFKuxgaVEsvjZEoukmeX/XqLVi1WzdpgnxeGy7FGoY/SIz/EoVB6lg6ROb4I3RiS/UclTNfEtzwhp1BUufqCUnSQ7olk1W2KVM83ckCMJYzJ5QjqZuLCHU04i50KumbrRA+N2xm4+jo1jqRldy7Te7UVM3Hp7W1I2q2dbs9NKgFfWejVBTrifeiBDY2Rh7UI83HKrPSZ0P9eVIUXBc1uFUuzj964e45bYKTmNhcbiDI1EBl9xRa+5tyc6jZphiYS13bqmNHl26pYPTb1XRsslKr9M7cSH5wWFOP1DFtYUwfErtb+kTT6kvAR2jLTapXgIEQZhZJHUjzFrqxozIstSNKQmFiRSVRrc1mZ2VmKLn1vA5qbO2E8p4vqGgMNNNT+r3X6qbtC0uKosiGeXmVlMnjmNL1geHidxsIfe2EiJ62kY8DPaZuLFq9Hc8cmaAeaPSTXZx+gVDTuitbZwmRHBrbB3a76rDfawEx0S25a29naXnYykvcx/RBPIor2szrlbV2Wu06VpNt6nsmspNgYIgpENSN85m6sbodiiVB3/h5sH+Tup/vD/aLutSN6Y6l89J8z1eHNo8qo5ZqoYXt96NOmeNQLrv2Q+0tAeo3KzPtabRJyxFOBQFh7Z27vRU4N2sO4apjl5OH5jvmZLZMuBhMNxByR0hgltjR4dfaSOy5SnuvOMp9YCWOnLkgwYOLTGmm8x865PfVac60GXg4R633qz3DbC2WTtu0Mq18r/RfCSSO3n1Eh4CU77myJfBeAVBmBySunEGkdSNwuVG1KwtDmCCMCNI6sYZRlI3CpcFukVCvndBmFEkdaMgCIIgZAkS+1oQBEEQsgQRyoIgCIKQJSQ1XwuCIAiCMPOIpiwIgiAIWUJqofz4MCd2j8zgUC4n1IAL3hSBSibEuggfvR7BPmbFL2l9/Ryt66aua0EQBCE7SB085MVcXtv9CR+5vsatzq/M4JB04jML6Rl/jBmE4jNETTWj9+pOHyPsd/yJI+5FxHYwm3js5ccpywW4QOD553jJD/AVNrx4LR85hnHvz1XjT88KagrApcYgFWMwOqdvb1xWpbiAF/r5gcTcwBPm8WFO1JyHoXx++nAOklFYEIRsI6352lG/lDN3fjZ5rUzLGJS5XqkK5JJjbi3MYztUe3FZUDMIWa24uyOTHNRk8OPcYJ2yFwL37tMsOXg9G2KBvLj/Xx7nG79/kfrvOah/PsQ3nmzgfr1wfw4vHLzE92fRkpH7SC05fSEuJi0142rVvq8odgrvGCCoh5V8xUNiqMlguIybtDCVc6uq4C31+KH3YeVDzzE3em6FprFNCgl8Seu6S7znvpHlIpAFQchSxgizOZd/PXiBJ/7fL2H/JLRlTyPuQi+OVhdkEhxET/UXFXottHVXUpsmpaPaLlU+34RQj9EgJcnzCRcbAmeY9LCRehCFdJp6iv5tu7wsOztAWXmydiN8q2ghb9cb53cdt648gf/HWuDmouvJZTm3PgZvv6RNqXM+f905gpu5Y2jLdlZuqeJzg6Y5t6qNm9ilpvsz5vlN0HrjNNvEsI15AQ69ATc9lNifGjqzoNutJqHQKbyRnPNhUiu7FVybB5GgmixhpKOWfn2GPgxy8Wa9nh5OVaGJJNmw0jKHk/vHriUIgjBbjBn72nNqDj9Z9wV2JqddRGP4Kk0Uj2EStpUWEGhvjEWVGgrg9g1oyQlSiPS0+XybRuWl1UaVNJ9w3SY9724S87UWq9uYUWms/iGHslVh3NZGNe/w5lps+NV6j49Q3DeXOGOEeSn5w5/RB3zjmWd58hshAv3LWRQ39q9yZug033o8F15MM5l4OPV+FTfdVsHpU12o2Ym0dIOFz3HLd8Ic2tqg5gauamPNI3ZVi13bzJqbgxzammiatrPygQL6WxoY4bmEvlSBzF6rIR640QyNFv/ZaI42lPclT2M497YS5oU7DONoodHaq67rF2a6hPFnliyAkxnUFARBmC3G9r7u/UpGgfNBDc2oKNq/ZOZqTyPWvVCjJJo2jZhZlj/ASVxU5gdw7wwQGTw5tnZtyhudz1fLRmQrNRHyJdfQjWM2Jk0YN2n6B2L9+9TsWJlQ9MyzPLnoPeof/Tmfjir9CicHMzvPyIdBuNmimn8LLSxGzR4097YS5i0sY82WDu7c0hHTioHcEhOnfz16rTj3kVpy3t81en3X4sKrVBLemai9eujfWsXBlgAXzwc4tLWKg1uN68Na+dYqgtRy5yMJdum1zay5Y4DgqOxGfpwb3ARXOcbMYmR3neNE5wi/rZzNNXhBEISxGTtLVPGX5A7OzUhLbtlkTe8UZW9CqYZ2a12aesXkEabLlEflsTb8ploaznZhK61hoGeKnbrS5BOeVfynGXyykgcX6RmjTNyQn1jpS5blX8eZ3iTtEzn1LJ+E21hYCOdvKyHy61pVMwYuvr9DNWNnhJ38IphXZMiEBKzZ0kZ/Sy11VjXVX5NpvGZlleFgCL5zI3Mhaia/84EC+ltqk7wYGvwOxtCUPc5FeBhhf+cwbhHMgiBkMWNqyvbCSwyfmXyGR7PTi2JRTbjpvZl7CQ8CoTCUO1AsBVDuoCY/QFu6B32afL69ZyOYLCkczZLmE9YpYFlKjT7z/tPy4lx6i0Zwxx3cz0f90P+RtgD6WBVluSf46CVjnT+zZEHma6TDwQEW32Zn4c0DDGom4pEPgzAqz69Wdi7C0u/ozlU6Ma32YJz2q2u+LTRa26F6YtvFcktMXPyDTxXIhc9xiyaQR3td22hSHOT5xuNs91XODI17SIIgCDPKGNJ2hL++E464J7klSl/TzTQDVH4exb7GeEchjfjcvGquXXW7VOp8vrjqKN6laHmDiTl6pcwnDLpzWTSnsOboNZH+i0nHXH7bd5r7XTk4DFvP3v5xJ7f+ws3uB0HfEvW2cUpdFyjum0/GjvEfHCaypZaVfW0c1I+depaP3zfm+YXTb1XR/4HqaBVc1BEry3jrk77e24DL4seZNudk/HpzTGuvYOlDZcwD5tk6WBk3NjOuVnXdeiLauCAIQjaTNsyme/cn3H9m5vcpm51eHIs7r6KUcSPs77zAGfeiuG1RKVkX4SPHl7wtpthx8CWtr38GL2Y4x4IgCLNAaqH8+DAnbp/L8vq5SYunm/h8vvHbm65I1kX46HF4Ycw9tCJcJowEDxEEIcuRhBSCIAiCkCVIQgpBEARByBJEKAuCIAhClpDU+7qo6Ov88Y9/nPbOR0bEci4IgiAIOqIpC4IgCEKWIEL5qmEiOaC1CF3jzsgkXH7Y2VPTzMbZHoYgTAeFzewrvzweZJMP1TUL3P2dPfwt/4u//fWBWRtDXBARPYPUFBK/JWwac0dbXHjt0JxpYJds4N4f8ubfwX+vfpXJ7wpbz8983+SQpYndUzC05BSzfe9GyqPZyA6xbUrGHs+6bU6euWs+AL3ezfwo4wuq4J/urYWDVeyZaOcWF97NZSTGxAtNIsiLGva2eRpzps8c8UGHIgR21o0RWGcCzFiu+fRM77NxdKIg2y6F0v8dwrQ4HB+gyuLCuzmPTmsjLacaeGNZB79Y1cv3jmUaVnh2uCyF8uxjo7Z8YNr3TkcfaBYX3s2ZRMhKR3xGrMxoodF6Re8OnxHqPRtZHdyD5ZlMApVPnP3PuNgP1Ht2smYc7SyrNnHHcBvrU+fVHBufU4vAZ6NJqSQ8HULnciVllropJlUGuxllZp6No/ioh1B1JRUW8Gv3nfmeEnL6OqPj2NPdxu01m/inP3bxjxdmcnDjY5aF8ga2byzh/JHF3H7LdQAc//dHefp3wOJ/4H/WlqIePcG/7XmWV+KO1dN6Sz3wOYfbNrLjrHquo3ue5RWAbz5HqynIhrdaNc36Y87cUsoKgAs9NL36z7y3+B/4n+XwhwWl3D7f0M9Yw7Yso2AoTFvcQTOu1gY4liRvclye5XjtIf4NGvRAKXH4ugjay8gzAb74HNBxb8Rx/RjexpO+QcefRw9Bqpcbx5Wo7STPTW2jqXUZ4cEyyooS+h9zPjPV1uM1zmd8a3gGuHhgDw8+06tq0E+vYR4AJ/BamtittznXgcW+D1UzrqLgwB7eXrKROm26in07qQMIqfXqPTtZ84GubRq1afXvwQN5lI/SSuPHl4m2Wu/ZGR1DbMxqH4SWU2y6QPeBMOV3LVev01/Omw/D0UVrtH70NmNQ34ivbrn6d5ymXsH6ZfD+QaM6q2oj9JkwFUUIdKv3dKTbTTMN8dH2jNpIuv6N96Z+z9ibUKoLoveJel8N0L4zTGVU61ZD2cbupwRNyd6EUtoTDYHbQJCB8jJMxn5S9T/WnCXB7PTSsHgAikzk9AUI5JdRtiBEu7WH0oSXEdsuhcqzburSveykeDbYdimUEsJUZCLSHVCvaSiAe8NJaifyO0tx/WnnbCJM+7OxJ0XHLfT01VB5jxl86vOtYlUOIZ/xrvTwerCKJ75WAXHasiEHfBZYZbJgTXk5N/O/2LDnUTa09bBk7T9wNxvYXruQrj2Pqsf/Hf7LD/+Bu8/+M3+751GajnzO50d2q2V7NrLj7Ni9XHfLQo5q5/u3oVK++02t4OulLPxAO/6fy6n4zl1pzqKusSqby8hZUIZDUVDi0lDmULa4B6vVitXazkB5rZqgwtOoHVOPU92kHre4aCgfoN1qxWp1ExiC0N4kDzdLBSULQvR4wLZLy4yktQmucmhrvmZclgICO/V+DD9UrX93d8RwUj/ODVasOwNEhgK4tfHpN6XfVYfVaqW9L2Es0bd+tb77WAkOPXXigjJKzrq1vqCsJn1KxfHTy9PVm7FsP8TFoUNss2zGYtmsCmTW87On83hbO2bxQt3eH7KOXp6u3kP3om+z/V5Yt+3bFGhCfLd9MxZLB72cwKu3s+/LYBzLWc2rav3thyi474esQ9WI83+lncfSAXVOtt8Lu18/BHdtxOdTPxtRx2AYs2d9tI+CM3vwhuZTXhJmm/cE85asUItMa6L9bDuQZ2iTgnt/yJv3haPztS1YzDN6m/kWSgiyb5TmYKLgrJv2Pi0X+N4QOYuL8bs6CRkTr9xTAt1t6QWyxYXXEh59z3gase4d0O4Tg4blc1Kn3a+Rbvfo+zkNOeV59Gj9tA+WUWtP0/8EySmCzp0BIkVl5PncBIYKWGZpoa0bSu7RfTZslBaF6HT5wdNGAPV5McqnI9WzATDla/NeXkJ4Z3ssFazhd2bdO0CZPUWyHZ0xrj/pnI2bWXo2GmjpCZGzqkKdC8Mz04hveIB5yyxkmmdoNsgC8/UJuvS14bP/zN++CnzzORpZzoqNL/Nf9GoXzk+ql8+PKFEN+JW3HlX/WAxc6OGXv1M/9p3/nIq0Z9HMuSk1uwiB9hZDXe3PUettIVK97xkxVSso1dp5d9bRghlXfoRgu96rn65jDTQUmgE/Jwcd1GyeeOrETDAXFhA51ha9bv+7QRrsyzBzEtAeQoD/1ACOxWOcK+FNWNXWJ7jeVv9Nilke03gBhsLaH708/T96efPpnZQPHWJb9WTNyCd4WzdFv/MqD74DsJ7vm6DYtBNfdAAXGIzWeVXT5Hfi+7uYpmpcBwYg9Lv4PjzQ+6tX2U8jz0Sv6xCvaarxfn8vf/93S1kHKdeo15mLmbdgftSyoPYz1jVq3+Uuh5YLvEmLs95CT59CqR3wmKlYNUDnGMsi5ntKyFmQE0sIA6C/7Hkaad+loCiqljRZk2fE8ILQskn9AZqdafqfcB8VVA6pmesqtCe8+luowIwfv72Ugu42VJuXvnSkWqcUpSF2j6d5NkTnva8Tpw+aNsfq6L8zPD2EqksphpTabdr5J/mcjZ+ZfTYmxWMwYSfmt9e5EOZiqrFnCVkglFPwn2+z4a3W2R7FFGDGZS+Dbj3vr2YaBPCdZGBzGTV6Zqm+dqwGYTpeJxk9n7XN8JDL5kxKfled+sOdKmezUEd6TTd0gt5Fk+lgLMYwJb/zKg++0832vRv5fv2r7O/9IX9/F3Rv38zT76CamNeOs8viPOYRHrNa1MQ/BbS0B/DW2MCyjLxjbTgzaJPe8ShCaBJCMhNmxPHJ56SzxkuFBYpLoXNTYn+qcDY7vThqbODrTf1syBTLMgpgTEE2m45fqZn4szE5qgm71AS2UhOhnsbRVebnMW/4MNns7pAF5usk/C7I8a//FU+l0bSuW7giydHFfG0xwAa2/9XyaRrcxBg4pf4gzM5Koiso9lJMfe0x882YXop+Tg7mxJnIastzoufWadmkmv4KCjPc/qSbxTLAf2ogZiICbDVl5AyenHnP7QV53Gz8vPt39Jq+Pco8rLKenz1dzNHXm3jNaLqNkseNSdoVfF2dlXpPVQbzs49DoeXcv22smivIX2D8HOaTdwCK2X7f+O/Z+rXLuRjsTuvJvd/fC3fdT32ywgs+gpSwfn6ywhT4ugjml+K6J4/wu2N/8/53g6CbKxMwO73U0Enjpk6oNpo7VXIWJ5tPPc+5jSbDeuRE+gfUl8JkpuUJ0NIzQMk9LkpJoqVpFC+O91FP+mzIENWZKXVfkMH1p0F9wW+aUNtMGd+zsZfwkEm11ABYXFQWxczULT0hTKVNlBaNNl0DWHILuDiU+HKqmd4nsaQxlWSpptzK0/9eQmvty+i68udHdke3QL3363/nuxvvp3Xj/cQcvVr55ZG/orH2ZVr5nMNHTsDCWbsAA36cvloUzRQd6Q4QIk8t8vQQUmpQlJpY9TG2ELRsaqdU0Z1ftDdgD+jOCgaXCdqt+s2eKgc02tu9En0j1d+o47ZkFSko1ZpZ2dNIe2libuoWmMzPNuq5myHvvMrbD++kTjNVq1rgPn7k/Sa+p3fie1qtph6H7XtVx64fvaO2Xb93Iz4Pmla9j9cOfJtn9Haatr379UPc//RGfD64eOAQvaa8MYe1297BGp/aBtAcqrpZb9wOpY9rN4DxOi7QfeAELMng+hesiZmiQx1Rr+44pzHTTnx1F+je7uLpd17lv5udPGMw7cec0LrYd3IT/1hih+5MzSrqsoljVRC3K4PqvsRc45oVhybVsUszHTbuLUXZ7MWFatr1uzqpjf4+9GUNY57zCIHuEKYxlklS9q9frqaVmRanMwJniKeHAaUG9sbsB6MclqK/GVI/G9JiimmQhnNlnus9cyta79kIFGkvQVOuXk7s2ej0VODdrC/tJSx7aO1Mfe2M1pPtPFwCwXcSt0T1Eh4Ck+YrMduG7KRZoiTM5swwah9mpp6swtXLlO7R1qngn+59iryjVWzMcFuUbZdCaU92L49kjrrWW3JsCky8077vf/Q+3WnF3oRSzYxvcZqOZ+PG8g6qhnYk3adsdnrjdxXMIlmqKV8d+N8N0rA5pvXGHLoEYSbp4h/fKVYjerU3pA0goltQYhaayxxtS86k11yjDkvqlsZsW70dP/qWydnJZT/lz8bCZh6ijfWjBLJmYTRYHGYb0ZQFQRAEIUvITkcvQRAEQbgKEaEsCIIgCFlCUvO1IAiCIAgzj2jKgiAIgpAliFAWBEEQhCwhpVB27/6EE52f8JHry5kcjyAIgiBctaQUyo76G1nuzoc7I7hnckSCIAiCcJWS3ny9/6ucmaGBCIIgCMLVzhhryl/lzNAllq2bmcEIgiAIwtXMGEL5K2x4+Hp4/BNO7B6ZmREJgiAIwlXKGLGvv6T19c/gxRtZPnXR7wVBEARBSMIYmvKfWbJgDidFIAuCIAjCtCP7lAVBEAQhS0gvlNf9OaOc64IgCIIgTJ6Ua8ru3Z/w/SIYPvg1HKkqCYIgCIIwZUhCCkEQBEHIEmRNWRAEQRCyBBHKgiAIgpAliFAWBEEQhCxBhLIgCIIgZAkilAVBEAQhSxChLAiCIAhZgghlQRAEQcgSRCgLgiAIQpYgQlkQBEEQsgQRyoIgCIKQJYhQFgRBEIQsQYSyIAiCIGQJ/xeN90Fp8KS5GQAAAABJRU5ErkJggg==;" vertex="1" parent="1">
                    <mxGeometry x="-900" y="30" width="511.94" height="180.5" as="geometry"/>
                </mxCell>
                <mxCell id="17" value="" style="endArrow=classic;html=1;fillColor=#d80073;strokeColor=#fea4c7;strokeWidth=4;entryX=0.645;entryY=0.055;entryDx=0;entryDy=0;exitX=0;exitY=0.5;exitDx=0;exitDy=0;exitPerimeter=0;entryPerimeter=0;" edge="1" parent="1" source="19" target="16">
                    <mxGeometry width="50" height="50" relative="1" as="geometry">
                        <mxPoint x="59.93130000000019" y="-60.070000000000164" as="sourcePoint"/>
                        <mxPoint x="380.18107999999984" y="160" as="targetPoint"/>
                    </mxGeometry>
                </mxCell>
                <mxCell id="18" value="" style="endArrow=classic;html=1;fillColor=#d80073;strokeColor=#fea4c7;strokeWidth=4;entryX=0.645;entryY=0.222;entryDx=0;entryDy=0;entryPerimeter=0;exitX=-0.024;exitY=0.322;exitDx=0;exitDy=0;exitPerimeter=0;" edge="1" parent="1" source="20" target="16">
                    <mxGeometry width="50" height="50" relative="1" as="geometry">
                        <mxPoint x="-220" y="140" as="sourcePoint"/>
                        <mxPoint x="-559.7986999999998" y="49.92749999999978" as="targetPoint"/>
                    </mxGeometry>
                </mxCell>
                <mxCell id="19" value="" style="rounded=0;whiteSpace=wrap;html=1;fillColor=none;strokeWidth=3;strokeColor=#FFFF99;" vertex="1" parent="1">
                    <mxGeometry x="-230" y="60" width="130" height="20" as="geometry"/>
                </mxCell>
                <mxCell id="20" value="" style="rounded=0;whiteSpace=wrap;html=1;fillColor=none;strokeWidth=3;strokeColor=#FFFF99;" vertex="1" parent="1">
                    <mxGeometry x="-230" y="127" width="130" height="20" as="geometry"/>
                </mxCell>
                <mxCell id="21" value="" style="endArrow=classic;html=1;fillColor=#d80073;strokeColor=#fea4c7;strokeWidth=4;entryX=1;entryY=0.5;entryDx=0;entryDy=0;exitX=0.058;exitY=0.329;exitDx=0;exitDy=0;exitPerimeter=0;" edge="1" parent="1" source="3" target="22">
                    <mxGeometry width="50" height="50" relative="1" as="geometry">
                        <mxPoint x="-223.1199999999999" y="143.44000000000005" as="sourcePoint"/>
                        <mxPoint x="-559.7986999999998" y="80.07099999999991" as="targetPoint"/>
                    </mxGeometry>
                </mxCell>
                <mxCell id="22" value="" style="rounded=0;whiteSpace=wrap;html=1;fillColor=none;strokeWidth=3;strokeColor=#FFFF99;" vertex="1" parent="1">
                    <mxGeometry x="-880" y="110.25" width="270" height="39.75" as="geometry"/>
                </mxCell>
            </root>
        </mxGraphModel>
    </diagram>
</mxfile>